<?xml version="1.0" encoding="UTF-8" standalone="no"?>
<svg
   xmlns:dc="http://purl.org/dc/elements/1.1/"
   xmlns:cc="http://creativecommons.org/ns#"
   xmlns:rdf="http://www.w3.org/1999/02/22-rdf-syntax-ns#"
   xmlns:svg="http://www.w3.org/2000/svg"
   xmlns="http://www.w3.org/2000/svg"
   viewBox="0 0 442.91336 276.37796"
   height="276.37796"
   width="442.91336"
   xml:space="preserve"
   version="1.1"
   id="svg2"><metadata
     id="metadata8"><rdf:RDF><cc:Work
         rdf:about=""><dc:format>image/svg+xml</dc:format><dc:type
           rdf:resource="http://purl.org/dc/dcmitype/StillImage" /><dc:title></dc:title></cc:Work></rdf:RDF></metadata><defs
     id="defs6" /><g
     transform="matrix(1.25,0,0,-1.25,0,276.37796)"
     id="g10"><g
       id="g12"><g
         transform="matrix(0.999945,0,0,-1,0,221.10237)"
         id="g14"><path
           id="path16"
           style="fill:#808000;fill-opacity:1;fill-rule:nonzero;stroke:#000000;stroke-width:0.80002201;stroke-linecap:butt;stroke-linejoin:miter;stroke-miterlimit:4;stroke-dasharray:none;stroke-opacity:1"
           d="m 111.073,106.246 15.586,0 c 3.34,-1.738 6.184,-4.41 8.126,-7.637 1.937,-3.226 2.969,-6.992 2.941,-10.754 -0.027,-3.71 -1.086,-7.41 -3.023,-10.574 -1.938,-3.168 -4.75,-5.793 -8.044,-7.504 l -4.988,0 0,26.805 -6.231,0 c -1.328,0.887 -2.438,2.094 -3.207,3.488 -1.032,1.864 -1.442,4.063 -1.16,6.176" /></g><g
         transform="matrix(0.999945,0,0,-1,0,221.10237)"
         id="g18"><path
           id="path20"
           style="fill:#808000;fill-opacity:1;fill-rule:nonzero;stroke:#000000;stroke-width:0.80002201;stroke-linecap:butt;stroke-linejoin:miter;stroke-miterlimit:4;stroke-dasharray:none;stroke-opacity:1"
           d="m 106.045,106.246 -15.587,0 c -3.34,-1.738 -6.184,-4.41 -8.121,-7.637 -1.942,-3.226 -2.973,-6.992 -2.946,-10.754 0.031,-3.71 1.086,-7.41 3.024,-10.574 1.937,-3.168 4.75,-5.793 8.043,-7.504 l 4.989,0 0,26.805 6.234,0 c 1.325,0.887 2.434,2.094 3.204,3.488 1.031,1.864 1.441,4.063 1.16,6.176" /></g><g
         transform="matrix(1,0,0,-1,0,221.10237)"
         id="g22"><path
           id="path24"
           style="fill:none;stroke:#8080ff;stroke-width:1.60000002;stroke-linecap:round;stroke-linejoin:round;stroke-miterlimit:4;stroke-dasharray:none;stroke-opacity:1"
           d="m 95.129,49.801 c 0.476,-0.789 0.633,-1.762 0.422,-2.656 -0.211,-0.895 -0.789,-1.7 -1.567,-2.188 -0.613,-0.387 -1.339,-0.574 -2.062,-0.617 -0.727,-0.039 -1.449,0.062 -2.156,0.23 -1.414,0.332 -2.766,0.91 -4.204,1.121 -2.082,0.309 -4.328,-0.234 -5.898,-1.64 -0.785,-0.703 -1.391,-1.61 -1.715,-2.61 -0.328,-1.003 -0.363,-2.101 -0.078,-3.117 0.238,-0.84 0.688,-1.613 1.266,-2.269 0.578,-0.657 1.281,-1.196 2.035,-1.633 1.512,-0.875 3.223,-1.34 4.91,-1.781 1.867,-0.489 3.746,-0.961 5.508,-1.739 1.762,-0.773 3.426,-1.879 4.578,-3.422 1.176,-1.574 1.77,-3.582 1.574,-5.539 -0.191,-1.953 -1.183,-3.828 -2.73,-5.035 -1.547,-1.211 -3.633,-1.722 -5.555,-1.308 -1.918,0.414 -3.625,1.765 -4.414,3.566 -0.633,1.445 -0.672,3.098 -0.406,4.656 0.265,1.555 0.82,3.047 1.347,4.539 0.528,1.489 1.032,3.004 1.188,4.575 0.152,1.574 -0.063,3.226 -0.895,4.57 -0.535,0.871 -1.312,1.582 -2.203,2.078 -0.89,0.496 -1.894,0.781 -2.91,0.875 -2.035,0.188 -4.078,-0.387 -5.902,-1.309 -2.141,-1.082 -4.039,-2.644 -5.512,-4.539" /></g><g
         transform="matrix(1,0,0,-1,0,221.10237)"
         id="g26"><path
           id="path28"
           style="fill:#8080ff;fill-opacity:1;fill-rule:nonzero;stroke:#000000;stroke-width:0.80000001;stroke-linecap:round;stroke-linejoin:round;stroke-miterlimit:4;stroke-dasharray:none;stroke-opacity:1"
           d="m 101.824,49.727 -1.699,0.949 8,14.222 -2.949,1.676 6.301,2.301 1.296,-6.574 -2.949,1.648 -8,-14.222 z" /></g><text
         id="text30"
         style="font-variant:normal;font-weight:300;font-size:12.80000019px;font-family:'Source Sans Pro Light';-inkscape-font-specification:SourceSansPro-Light;writing-mode:lr-tb;fill:#4d4d4d;fill-opacity:1;fill-rule:nonzero;stroke:none"
         transform="matrix(1,0,0,-1,27.435742,125.86499)"><tspan
           id="tspan32"
           y="0"
           x="0 7.6543999 11.5712 18.431999 24.9216">GroEL</tspan><tspan
           id="tspan34"
           y="-77.169731"
           x="-20.703117 -11.755917 -8.8247166 -3.6535168 -0.40231681 6.445683 9.4792833 16.455284 22.624884">Misfolded</tspan><tspan
           id="tspan36"
           y="-60.529728"
           x="-20.703117 -13.650317 -9.7335167 -2.8727169 0.99288321 7.1752834 10.093683">Protein</tspan></text>
<g
         transform="matrix(1,0,0,-1,0,221.10237)"
         id="g38"><path
           id="path40"
           style="fill:none;stroke:#000000;stroke-width:0.80000001;stroke-linecap:butt;stroke-linejoin:miter;stroke-miterlimit:4;stroke-dasharray:none;stroke-opacity:1"
           d="m 61.164,24.004 17.398,1.797" /></g><g
         transform="matrix(1,0,0,-1,0,221.10237)"
         id="g42"><path
           id="path44"
           style="fill:none;stroke:#000000;stroke-width:0.80000001;stroke-linecap:butt;stroke-linejoin:miter;stroke-miterlimit:4;stroke-dasharray:none;stroke-opacity:1"
           d="M 83.602,90.703 68.801,89.902" /></g><g
         transform="matrix(1,0,0,-1,0,221.10237)"
         id="g46"><path
           id="path48"
           style="fill:#4d4d4d;fill-opacity:1;fill-rule:nonzero;stroke:#000000;stroke-width:0.80000001;stroke-linecap:round;stroke-linejoin:round;stroke-miterlimit:4;stroke-dasharray:none;stroke-opacity:1"
           d="m 105.801,123.801 0,20.722 -4.301,0 5.523,6.454 5.528,-6.454 -4.301,0 0,-20.722 -2.449,0 z" /></g><g
         transform="matrix(0.999945,0,0,-1,0,221.10237)"
         id="g50"><path
           id="path52"
           style="fill:#808000;fill-opacity:1;fill-rule:nonzero;stroke:#000000;stroke-width:0.80002201;stroke-linecap:butt;stroke-linejoin:miter;stroke-miterlimit:4;stroke-dasharray:none;stroke-opacity:1"
           d="m 114.698,210.035 15.583,0 c 4.215,-0.82 8.121,-3.156 10.836,-6.48 2.719,-3.325 4.227,-7.617 4.192,-11.91 -0.035,-4.243 -1.578,-8.457 -4.289,-11.719 -2.712,-3.262 -6.575,-5.551 -10.739,-6.36 l -4.985,0 0,26.805 -6.235,0 c -1.324,0.887 -2.433,2.094 -3.207,3.488 -1.027,1.868 -1.441,4.067 -1.156,6.176" /></g><g
         transform="matrix(0.999945,0,0,-1,0,221.10237)"
         id="g54"><path
           id="path56"
           style="fill:#808000;fill-opacity:1;fill-rule:nonzero;stroke:#000000;stroke-width:0.80002201;stroke-linecap:butt;stroke-linejoin:miter;stroke-miterlimit:4;stroke-dasharray:none;stroke-opacity:1"
           d="m 109.666,210.035 -15.587,0 c -4.269,-0.75 -8.25,-3.058 -11.024,-6.39 -2.773,-3.333 -4.32,-7.665 -4.281,-12 0.035,-4.286 1.613,-8.54 4.383,-11.809 2.77,-3.27 6.703,-5.527 10.922,-6.27 l 4.989,0 0,26.805 6.235,0 c 1.324,0.887 2.433,2.094 3.203,3.488 1.031,1.868 1.445,4.067 1.16,6.176" /></g><g
         transform="matrix(1,0,0,-1,0,221.10237)"
         id="g58"><path
           id="path60"
           style="fill:none;stroke:#8080ff;stroke-width:1.60000002;stroke-linecap:round;stroke-linejoin:round;stroke-miterlimit:4;stroke-dasharray:none;stroke-opacity:1"
           d="m 100.309,194.371 c 0.789,0.469 1.757,0.617 2.652,0.406 0.891,-0.211 1.695,-0.777 2.191,-1.55 0.391,-0.61 0.59,-1.332 0.637,-2.059 0.051,-0.727 -0.047,-1.453 -0.207,-2.16 -0.324,-1.418 -0.914,-2.77 -1.168,-4.199 -0.191,-1.071 -0.191,-2.18 0.047,-3.239 0.238,-1.062 0.719,-2.07 1.43,-2.894 0.711,-0.821 1.652,-1.449 2.699,-1.742 1.047,-0.297 2.195,-0.246 3.191,0.179 0.781,0.336 1.457,0.887 2.012,1.532 0.555,0.648 0.988,1.382 1.367,2.144 0.762,1.52 1.32,3.156 2.309,4.539 1.179,1.656 2.906,2.856 4.179,4.442 0.637,0.796 1.164,1.699 1.387,2.691 0.227,0.992 0.125,2.086 -0.41,2.949 -0.371,0.606 -0.941,1.078 -1.594,1.363 -0.652,0.282 -1.379,0.375 -2.082,0.297 -1.41,-0.16 -2.687,-1 -3.578,-2.105 -0.887,-1.106 -1.422,-2.461 -1.769,-3.836 -0.344,-1.379 -0.508,-2.793 -0.739,-4.191 -0.078,-0.473 -0.16,-0.946 -0.261,-1.415 -0.391,-1.835 -1.016,-3.613 -1.438,-5.441 -0.422,-1.828 -0.637,-3.75 -0.207,-5.574 0.566,-2.403 2.293,-4.5 4.543,-5.516" /></g><g
         transform="matrix(1,0,0,-1,0,221.10237)"
         id="g62"><path
           id="path64"
           style="fill:#ffcc00;fill-opacity:1;fill-rule:nonzero;stroke:#000000;stroke-width:0.80000001;stroke-linecap:butt;stroke-linejoin:miter;stroke-miterlimit:4;stroke-dasharray:none;stroke-opacity:1"
           d="m 54.277,163.461 8.395,-9.004 c -2.664,-1.695 -4.527,-4.598 -4.961,-7.727 -0.434,-3.132 0.57,-6.433 2.676,-8.789 2.156,-2.414 5.429,-3.789 8.664,-3.64 3.234,0.152 6.367,1.824 8.289,4.426 l 8.824,-9.461 c -4.668,-3.461 -10.648,-5.102 -16.43,-4.504 -5.777,0.593 -11.296,3.418 -15.16,7.758 -3.742,4.207 -5.898,9.789 -5.953,15.418 -0.051,5.624 1.996,11.25 5.656,15.523" /></g><g
         transform="matrix(0.999944,0.561717,0.561685,-1,0,221.10237)"
         id="g66"><path
           id="path68"
           style="fill:#ffcc00;fill-opacity:1;fill-rule:nonzero;stroke:#000000;stroke-width:0.69751298;stroke-linecap:round;stroke-linejoin:round;stroke-miterlimit:4;stroke-dasharray:none;stroke-opacity:1"
           d="m -7.977,142.652 -1.578,0.625 5.295,13.209 -2.742,1.112 5.185,2.705 1.873,-5.533 -2.736,1.088 -5.297,-13.206 z" /></g><g
         transform="matrix(1,0,0,-1,0,221.10237)"
         id="g70"><path
           id="path72"
           style="fill:#ffcc00;fill-opacity:1;fill-rule:nonzero;stroke:#000000;stroke-width:0.80000001;stroke-linecap:butt;stroke-linejoin:miter;stroke-miterlimit:4;stroke-dasharray:none;stroke-opacity:1"
           d="m 162.543,34.352 11.043,-5.442 c -1.891,-2.531 -2.606,-5.906 -1.902,-8.988 0.703,-3.082 2.812,-5.809 5.617,-7.27 2.871,-1.492 6.422,-1.617 9.39,-0.332 2.973,1.289 5.309,3.961 6.184,7.078 L 204.477,13.68 C 201.34,8.789 196.328,5.133 190.715,3.641 c -5.613,-1.493 -11.777,-0.805 -16.93,1.882 -4.988,2.606 -8.98,7.063 -11.027,12.309 -2.043,5.242 -2.121,11.227 -0.215,16.52" /></g><g
         transform="matrix(0.13562,0.999965,-1,0.135577,0,221.10237)"
         id="g74"><path
           id="path76"
           style="fill:#ffcc00;fill-opacity:1;fill-rule:nonzero;stroke:#000000;stroke-width:0.792759;stroke-linecap:round;stroke-linejoin:round;stroke-miterlimit:4;stroke-dasharray:none;stroke-opacity:1"
           d="m -6.588,-212.39 -1.792,0.714 6.016,15.012 -3.113,1.261 5.892,3.076 2.126,-6.289 -3.109,1.238 -6.02,-15.012 z" /></g><g
         transform="matrix(1,0,0,-1,0,221.10237)"
         id="g78"><path
           id="path80"
           style="fill:#808000;fill-opacity:1;fill-rule:nonzero;stroke:#000000;stroke-width:0.80000001;stroke-linecap:butt;stroke-linejoin:miter;stroke-miterlimit:4;stroke-dasharray:none;stroke-opacity:1"
           d="m 198.98,212.512 25.559,0 0,-10.754 -15.894,0 c -4.012,-7.528 -4.133,-17 -0.313,-24.625 1.719,-3.43 4.18,-6.481 7.168,-8.883 l 0,-5.301 c -2.906,-0.945 -6.098,-1 -9.039,-0.156 -2.508,0.723 -4.816,2.09 -6.734,3.859 -1.918,1.774 -3.446,3.95 -4.563,6.313 -1.668,3.523 -2.414,7.437 -2.519,11.336 -0.106,3.898 0.417,7.793 1.195,11.613 1.156,5.684 2.883,11.254 5.14,16.598" /></g><g
         transform="matrix(1,0,0,-1,0,221.10237)"
         id="g82"><path
           id="path84"
           style="fill:#ffcc00;fill-opacity:1;fill-rule:nonzero;stroke:#000000;stroke-width:0.80000001;stroke-linecap:butt;stroke-linejoin:miter;stroke-miterlimit:4;stroke-dasharray:none;stroke-opacity:1"
           d="m 203.051,158.941 12.312,0 c -0.578,-3.105 0.274,-6.449 2.266,-8.902 1.996,-2.449 5.094,-3.965 8.254,-4.031 3.238,-0.07 6.476,1.387 8.57,3.851 2.098,2.469 3.008,5.899 2.418,9.082 l 12.934,0 c -0.649,-5.773 -3.528,-11.265 -7.907,-15.086 -4.375,-3.82 -10.207,-5.933 -16.015,-5.796 -5.625,0.129 -11.18,2.359 -15.332,6.16 -4.153,3.797 -6.867,9.133 -7.5,14.722" /></g><g
         transform="matrix(1,0,0,-1,0,221.10237)"
         id="g86"><path
           id="path88"
           style="fill:#808000;fill-opacity:1;fill-rule:nonzero;stroke:#000000;stroke-width:0.80000001;stroke-linecap:butt;stroke-linejoin:miter;stroke-miterlimit:4;stroke-dasharray:none;stroke-opacity:1"
           d="m 257.129,212.512 -25.559,0 0,-10.754 15.895,0 c 4.012,-7.528 4.133,-17 0.312,-24.625 -1.718,-3.43 -4.179,-6.481 -7.168,-8.883 l 0,-5.301 c 2.907,-0.945 6.098,-1 9.039,-0.156 2.508,0.723 4.821,2.09 6.735,3.859 1.918,1.774 3.449,3.95 4.562,6.313 1.668,3.523 2.418,7.437 2.524,11.336 0.101,3.898 -0.418,7.793 -1.196,11.613 -1.16,5.684 -2.882,11.254 -5.144,16.598" /></g><g
         transform="matrix(1,0,0,-1,0,221.10237)"
         id="g90"><path
           id="path92"
           style="fill:#4d4d4d;fill-opacity:1;fill-rule:nonzero;stroke:#000000;stroke-width:0.80000001;stroke-linecap:round;stroke-linejoin:round;stroke-miterlimit:4;stroke-dasharray:none;stroke-opacity:1"
           d="m 170,186.852 0,4.296 -20.727,0 0,2.454 20.727,0 0,4.296 6.449,-5.523 -6.449,-5.523 z" /></g><g
         transform="matrix(1,0,0,-1,0,221.10237)"
         id="g94"><path
           id="path96"
           style="fill:none;stroke:#8080ff;stroke-width:1.60000002;stroke-linecap:round;stroke-linejoin:round;stroke-miterlimit:4;stroke-dasharray:none;stroke-opacity:1"
           d="m 215.082,195.68 c 0.789,0.468 1.762,0.617 2.652,0.406 0.895,-0.211 1.696,-0.781 2.192,-1.551 0.394,-0.613 0.59,-1.336 0.64,-2.062 0.047,-0.723 -0.046,-1.453 -0.211,-2.161 -0.324,-1.417 -0.91,-2.769 -1.167,-4.199 -0.192,-1.07 -0.192,-2.175 0.046,-3.238 0.243,-1.059 0.723,-2.07 1.434,-2.891 0.707,-0.824 1.652,-1.453 2.699,-1.746 1.043,-0.293 2.192,-0.246 3.192,0.184 0.781,0.332 1.457,0.883 2.007,1.531 0.555,0.645 0.989,1.383 1.372,2.141 0.761,1.519 1.32,3.156 2.304,4.539 1.184,1.66 2.906,2.855 4.18,4.445 0.637,0.793 1.164,1.695 1.39,2.692 0.223,0.992 0.122,2.082 -0.41,2.949 -0.375,0.601 -0.945,1.078 -1.597,1.359 -0.649,0.281 -1.375,0.375 -2.082,0.297 -1.411,-0.16 -2.688,-1 -3.575,-2.105 -0.89,-1.106 -1.425,-2.458 -1.769,-3.836 -0.344,-1.375 -0.512,-2.789 -0.738,-4.192 -0.079,-0.472 -0.164,-0.945 -0.266,-1.414 -0.391,-1.836 -1.012,-3.613 -1.434,-5.441 -0.421,-1.828 -0.64,-3.75 -0.207,-5.575 0.563,-2.398 2.293,-4.496 4.539,-5.511" /></g><text
         id="text98"
         style="font-variant:normal;font-weight:300;font-size:12.80000019px;font-family:'Source Sans Pro Light';-inkscape-font-specification:SourceSansPro-Light;writing-mode:lr-tb;fill:#4d4d4d;fill-opacity:1;fill-rule:nonzero;stroke:none"
         transform="matrix(1,0,0,-1,247.99746,77.735395)"><tspan
           id="tspan100"
           y="0"
           x="0 7.6543999 11.5712 18.431999 24.9216">GroES</tspan></text>
<g
         transform="matrix(1,0,0,-1,0,221.10237)"
         id="g102"><path
           id="path104"
           style="fill:none;stroke:#000000;stroke-width:0.80000001;stroke-linecap:butt;stroke-linejoin:miter;stroke-miterlimit:4;stroke-dasharray:none;stroke-opacity:1"
           d="m 248.398,143.902 -6.796,5.602" /></g><g
         transform="matrix(1,0,0,-1,0,221.10237)"
         id="g106"><path
           id="path108"
           style="fill:#4d4d4d;fill-opacity:1;fill-rule:nonzero;stroke:#000000;stroke-width:0.80000001;stroke-linecap:round;stroke-linejoin:round;stroke-miterlimit:4;stroke-dasharray:none;stroke-opacity:1"
           d="m 227.375,104.648 -5.523,6.454 4.296,0 0,20.722 2.477,0 0,-20.722 4.301,0 -5.551,-6.454 z" /></g><g
         transform="matrix(1,0,0,-1,0,221.10237)"
         id="g110"><path
           id="path112"
           style="fill:#808000;fill-opacity:1;fill-rule:nonzero;stroke:#000000;stroke-width:0.80000001;stroke-linecap:butt;stroke-linejoin:miter;stroke-miterlimit:4;stroke-dasharray:none;stroke-opacity:1"
           d="m 196.109,99.473 25.559,0 0,-10.754 -15.898,0 c -4.012,-7.528 -4.133,-17 -0.313,-24.625 1.719,-3.43 4.184,-6.481 7.172,-8.883 l 0,-5.301 c -2.91,-0.945 -6.102,-1 -9.039,-0.156 -2.512,0.723 -4.82,2.086 -6.738,3.859 -1.918,1.774 -3.446,3.949 -4.563,6.313 -1.668,3.523 -2.414,7.437 -2.519,11.336 -0.106,3.898 0.418,7.793 1.195,11.613 1.156,5.684 2.883,11.254 5.144,16.598" /></g><g
         transform="matrix(1,0,0,-1,0,221.10237)"
         id="g114"><path
           id="path116"
           style="fill:#808000;fill-opacity:1;fill-rule:nonzero;stroke:#000000;stroke-width:0.80000001;stroke-linecap:butt;stroke-linejoin:miter;stroke-miterlimit:4;stroke-dasharray:none;stroke-opacity:1"
           d="m 254.254,99.473 -25.559,0 0,-10.754 15.899,0 c 4.011,-7.528 4.129,-17 0.308,-24.625 -1.714,-3.43 -4.179,-6.481 -7.168,-8.883 l 0,-5.301 c 2.911,-0.945 6.102,-1 9.039,-0.156 2.512,0.723 4.821,2.086 6.739,3.859 1.914,1.774 3.445,3.949 4.562,6.313 1.668,3.523 2.414,7.437 2.52,11.336 0.105,3.898 -0.418,7.793 -1.196,11.613 -1.156,5.684 -2.882,11.254 -5.144,16.598" /></g><g
         transform="matrix(1,0,0,-1,0,221.10237)"
         id="g118"><path
           id="path120"
           style="fill:none;stroke:#8080ff;stroke-width:1.60000002;stroke-linecap:round;stroke-linejoin:round;stroke-miterlimit:4;stroke-dasharray:none;stroke-opacity:1"
           d="m 247.711,13.574 c 0.516,-1.875 1.519,-3.613 2.883,-5 1.367,-1.386 3.09,-2.414 4.957,-2.961 1.867,-0.543 3.875,-0.597 5.773,-0.16 1.895,0.434 3.672,1.363 5.114,2.672 2.535,2.297 3.953,5.781 3.707,9.191 -0.243,3.414 -2.149,6.672 -5.016,8.532 -2.871,1.863 -6.641,2.269 -9.828,1.039 -3.192,-1.227 -5.719,-4.075 -6.535,-7.395 -0.446,-1.816 -0.403,-3.711 -0.477,-5.578 -0.07,-1.871 -0.281,-3.789 -1.168,-5.437 -0.695,-1.293 -1.801,-2.36 -3.117,-3.012 -1.316,-0.649 -2.832,-0.883 -4.285,-0.656 -1.449,0.23 -2.821,0.918 -3.875,1.941 -1.051,1.023 -1.774,2.379 -2.043,3.82 -0.266,1.446 -0.074,2.969 0.543,4.301 0.613,1.332 1.652,2.465 2.926,3.195 1.269,0.735 2.773,1.059 4.234,0.922 1.461,-0.14 2.875,-0.742 3.988,-1.699 l 2.219,-3.715" /></g><g
         transform="matrix(1,0,-1.5901e-8,-1,0,221.10237)"
         id="g122"><path
           id="path124"
           style="fill:#8080ff;fill-opacity:1;fill-rule:nonzero;stroke:#000000;stroke-width:0.80000001;stroke-linecap:round;stroke-linejoin:round;stroke-miterlimit:4;stroke-dasharray:none;stroke-opacity:1"
           d="m 234.148,33.523 -6.546,1.454 2.699,2.046 -9.824,13.028 1.546,1.148 9.829,-13 2.699,2.028 -0.403,-6.704 z" /></g><text
         id="text126"
         style="font-variant:normal;font-weight:300;font-size:12.80000019px;font-family:'Source Sans Pro Light';-inkscape-font-specification:SourceSansPro-Light;writing-mode:lr-tb;fill:#4d4d4d;fill-opacity:1;fill-rule:nonzero;stroke:none"
         transform="matrix(1,0,0,-1,278.49687,180.65439)"><tspan
           id="tspan128"
           y="0"
           x="0 5.8495998 12.6976 15.7312 22.707199 28.876801">Folded</tspan><tspan
           id="tspan130"
           y="16.639999"
           x="0 7.0528002 10.9696 17.8304 21.695999 27.878401 30.796801">Protein</tspan></text>
<g
         transform="matrix(1,0,0,-1,0,221.10237)"
         id="g132"><path
           id="path134"
           style="fill:none;stroke:#000000;stroke-width:0.80000001;stroke-linecap:butt;stroke-linejoin:miter;stroke-miterlimit:4;stroke-dasharray:none;stroke-opacity:1"
           d="m 264.801,21.504 10.801,16" /></g></g></g></svg>