<?xml version="1.0" encoding="utf-8" standalone="no"?>
<!DOCTYPE svg PUBLIC "-//W3C//DTD SVG 1.1//EN"
  "http://www.w3.org/Graphics/SVG/1.1/DTD/svg11.dtd">
<!-- Created with matplotlib (http://matplotlib.org/) -->
<svg height="576pt" version="1.1" viewBox="0 0 720 576" width="720pt" xmlns="http://www.w3.org/2000/svg" xmlns:xlink="http://www.w3.org/1999/xlink">
 <defs>
  <style type="text/css">
*{stroke-linecap:butt;stroke-linejoin:round;stroke-miterlimit:100000;}
  </style>
 </defs>
 <g id="figure_1">
  <g id="patch_1">
   <path d="M 0 576 
L 720 576 
L 720 0 
L 0 0 
z
" style="fill:#ffffff;"/>
  </g>
  <g id="axes_1">
   <g id="patch_2">
    <path d="M 90 504 
L 648 504 
L 648 57.6 
L 90 57.6 
z
" style="fill:#eaeaf2;"/>
   </g>
   <g id="matplotlib.axis_1">
    <g id="xtick_1">
     <g id="line2d_1"/>
     <g id="line2d_2"/>
     <g id="text_1">
      <!-- Arizona -->
      <defs>
       <path d="M 54.890625 33.015625 
L 54.890625 0 
L 45.90625 0 
L 45.90625 32.71875 
Q 45.90625 40.484375 42.875 44.328125 
Q 39.84375 48.1875 33.796875 48.1875 
Q 26.515625 48.1875 22.3125 43.546875 
Q 18.109375 38.921875 18.109375 30.90625 
L 18.109375 0 
L 9.078125 0 
L 9.078125 54.6875 
L 18.109375 54.6875 
L 18.109375 46.1875 
Q 21.34375 51.125 25.703125 53.5625 
Q 30.078125 56 35.796875 56 
Q 45.21875 56 50.046875 50.171875 
Q 54.890625 44.34375 54.890625 33.015625 
" id="BitstreamVeraSans-Roman-6e"/>
       <path d="M 41.109375 46.296875 
Q 39.59375 47.171875 37.8125 47.578125 
Q 36.03125 48 33.890625 48 
Q 26.265625 48 22.1875 43.046875 
Q 18.109375 38.09375 18.109375 28.8125 
L 18.109375 0 
L 9.078125 0 
L 9.078125 54.6875 
L 18.109375 54.6875 
L 18.109375 46.1875 
Q 20.953125 51.171875 25.484375 53.578125 
Q 30.03125 56 36.53125 56 
Q 37.453125 56 38.578125 55.875 
Q 39.703125 55.765625 41.0625 55.515625 
z
" id="BitstreamVeraSans-Roman-72"/>
       <path d="M 30.609375 48.390625 
Q 23.390625 48.390625 19.1875 42.75 
Q 14.984375 37.109375 14.984375 27.296875 
Q 14.984375 17.484375 19.15625 11.84375 
Q 23.34375 6.203125 30.609375 6.203125 
Q 37.796875 6.203125 41.984375 11.859375 
Q 46.1875 17.53125 46.1875 27.296875 
Q 46.1875 37.015625 41.984375 42.703125 
Q 37.796875 48.390625 30.609375 48.390625 
M 30.609375 56 
Q 42.328125 56 49.015625 48.375 
Q 55.71875 40.765625 55.71875 27.296875 
Q 55.71875 13.875 49.015625 6.21875 
Q 42.328125 -1.421875 30.609375 -1.421875 
Q 18.84375 -1.421875 12.171875 6.21875 
Q 5.515625 13.875 5.515625 27.296875 
Q 5.515625 40.765625 12.171875 48.375 
Q 18.84375 56 30.609375 56 
" id="BitstreamVeraSans-Roman-6f"/>
       <path d="M 5.515625 54.6875 
L 48.1875 54.6875 
L 48.1875 46.484375 
L 14.40625 7.171875 
L 48.1875 7.171875 
L 48.1875 0 
L 4.296875 0 
L 4.296875 8.203125 
L 38.09375 47.515625 
L 5.515625 47.515625 
z
" id="BitstreamVeraSans-Roman-7a"/>
       <path d="M 34.28125 27.484375 
Q 23.390625 27.484375 19.1875 25 
Q 14.984375 22.515625 14.984375 16.5 
Q 14.984375 11.71875 18.140625 8.90625 
Q 21.296875 6.109375 26.703125 6.109375 
Q 34.1875 6.109375 38.703125 11.40625 
Q 43.21875 16.703125 43.21875 25.484375 
L 43.21875 27.484375 
z
M 52.203125 31.203125 
L 52.203125 0 
L 43.21875 0 
L 43.21875 8.296875 
Q 40.140625 3.328125 35.546875 0.953125 
Q 30.953125 -1.421875 24.3125 -1.421875 
Q 15.921875 -1.421875 10.953125 3.296875 
Q 6 8.015625 6 15.921875 
Q 6 25.140625 12.171875 29.828125 
Q 18.359375 34.515625 30.609375 34.515625 
L 43.21875 34.515625 
L 43.21875 35.40625 
Q 43.21875 41.609375 39.140625 45 
Q 35.0625 48.390625 27.6875 48.390625 
Q 23 48.390625 18.546875 47.265625 
Q 14.109375 46.140625 10.015625 43.890625 
L 10.015625 52.203125 
Q 14.9375 54.109375 19.578125 55.046875 
Q 24.21875 56 28.609375 56 
Q 40.484375 56 46.34375 49.84375 
Q 52.203125 43.703125 52.203125 31.203125 
" id="BitstreamVeraSans-Roman-61"/>
       <path d="M 9.421875 54.6875 
L 18.40625 54.6875 
L 18.40625 0 
L 9.421875 0 
z
M 9.421875 75.984375 
L 18.40625 75.984375 
L 18.40625 64.59375 
L 9.421875 64.59375 
z
" id="BitstreamVeraSans-Roman-69"/>
       <path d="M 34.1875 63.1875 
L 20.796875 26.90625 
L 47.609375 26.90625 
z
M 28.609375 72.90625 
L 39.796875 72.90625 
L 67.578125 0 
L 57.328125 0 
L 50.6875 18.703125 
L 17.828125 18.703125 
L 11.1875 0 
L 0.78125 0 
z
" id="BitstreamVeraSans-Roman-41"/>
      </defs>
      <g style="fill:#262626;" transform="translate(112.084375 522.97796875)scale(0.13 -0.13)">
       <use xlink:href="#BitstreamVeraSans-Roman-41"/>
       <use x="68.408203125" xlink:href="#BitstreamVeraSans-Roman-72"/>
       <use x="109.521484375" xlink:href="#BitstreamVeraSans-Roman-69"/>
       <use x="137.3046875" xlink:href="#BitstreamVeraSans-Roman-7a"/>
       <use x="189.794921875" xlink:href="#BitstreamVeraSans-Roman-6f"/>
       <use x="250.9765625" xlink:href="#BitstreamVeraSans-Roman-6e"/>
       <use x="314.35546875" xlink:href="#BitstreamVeraSans-Roman-61"/>
      </g>
     </g>
    </g>
    <g id="xtick_2">
     <g id="line2d_3"/>
     <g id="line2d_4"/>
     <g id="text_2">
      <!-- California -->
      <defs>
       <path d="M 9.421875 75.984375 
L 18.40625 75.984375 
L 18.40625 0 
L 9.421875 0 
z
" id="BitstreamVeraSans-Roman-6c"/>
       <path d="M 64.40625 67.28125 
L 64.40625 56.890625 
Q 59.421875 61.53125 53.78125 63.8125 
Q 48.140625 66.109375 41.796875 66.109375 
Q 29.296875 66.109375 22.65625 58.46875 
Q 16.015625 50.828125 16.015625 36.375 
Q 16.015625 21.96875 22.65625 14.328125 
Q 29.296875 6.6875 41.796875 6.6875 
Q 48.140625 6.6875 53.78125 8.984375 
Q 59.421875 11.28125 64.40625 15.921875 
L 64.40625 5.609375 
Q 59.234375 2.09375 53.4375 0.328125 
Q 47.65625 -1.421875 41.21875 -1.421875 
Q 24.65625 -1.421875 15.125 8.703125 
Q 5.609375 18.84375 5.609375 36.375 
Q 5.609375 53.953125 15.125 64.078125 
Q 24.65625 74.21875 41.21875 74.21875 
Q 47.75 74.21875 53.53125 72.484375 
Q 59.328125 70.75 64.40625 67.28125 
" id="BitstreamVeraSans-Roman-43"/>
       <path d="M 37.109375 75.984375 
L 37.109375 68.5 
L 28.515625 68.5 
Q 23.6875 68.5 21.796875 66.546875 
Q 19.921875 64.59375 19.921875 59.515625 
L 19.921875 54.6875 
L 34.71875 54.6875 
L 34.71875 47.703125 
L 19.921875 47.703125 
L 19.921875 0 
L 10.890625 0 
L 10.890625 47.703125 
L 2.296875 47.703125 
L 2.296875 54.6875 
L 10.890625 54.6875 
L 10.890625 58.5 
Q 10.890625 67.625 15.140625 71.796875 
Q 19.390625 75.984375 28.609375 75.984375 
z
" id="BitstreamVeraSans-Roman-66"/>
      </defs>
      <g style="fill:#262626;" transform="translate(198.52140625 522.97796875)scale(0.13 -0.13)">
       <use xlink:href="#BitstreamVeraSans-Roman-43"/>
       <use x="69.82421875" xlink:href="#BitstreamVeraSans-Roman-61"/>
       <use x="131.103515625" xlink:href="#BitstreamVeraSans-Roman-6c"/>
       <use x="158.88671875" xlink:href="#BitstreamVeraSans-Roman-69"/>
       <use x="186.669921875" xlink:href="#BitstreamVeraSans-Roman-66"/>
       <use x="221.875" xlink:href="#BitstreamVeraSans-Roman-6f"/>
       <use x="283.056640625" xlink:href="#BitstreamVeraSans-Roman-72"/>
       <use x="324.154296875" xlink:href="#BitstreamVeraSans-Roman-6e"/>
       <use x="387.533203125" xlink:href="#BitstreamVeraSans-Roman-69"/>
       <use x="415.31640625" xlink:href="#BitstreamVeraSans-Roman-61"/>
      </g>
     </g>
    </g>
    <g id="xtick_3">
     <g id="line2d_5"/>
     <g id="line2d_6"/>
     <g id="text_3">
      <!-- DC -->
      <defs>
       <path d="M 19.671875 64.796875 
L 19.671875 8.109375 
L 31.59375 8.109375 
Q 46.6875 8.109375 53.6875 14.9375 
Q 60.6875 21.78125 60.6875 36.53125 
Q 60.6875 51.171875 53.6875 57.984375 
Q 46.6875 64.796875 31.59375 64.796875 
z
M 9.8125 72.90625 
L 30.078125 72.90625 
Q 51.265625 72.90625 61.171875 64.09375 
Q 71.09375 55.28125 71.09375 36.53125 
Q 71.09375 17.671875 61.125 8.828125 
Q 51.171875 0 30.078125 0 
L 9.8125 0 
z
" id="BitstreamVeraSans-Roman-44"/>
      </defs>
      <g style="fill:#262626;" transform="translate(312.956171875 522.97796875)scale(0.13 -0.13)">
       <use xlink:href="#BitstreamVeraSans-Roman-44"/>
       <use x="77.001953125" xlink:href="#BitstreamVeraSans-Roman-43"/>
      </g>
     </g>
    </g>
    <g id="xtick_4">
     <g id="line2d_7"/>
     <g id="line2d_8"/>
     <g id="text_4">
      <!-- Illinois -->
      <defs>
       <path d="M 44.28125 53.078125 
L 44.28125 44.578125 
Q 40.484375 46.53125 36.375 47.5 
Q 32.28125 48.484375 27.875 48.484375 
Q 21.1875 48.484375 17.84375 46.4375 
Q 14.5 44.390625 14.5 40.28125 
Q 14.5 37.15625 16.890625 35.375 
Q 19.28125 33.59375 26.515625 31.984375 
L 29.59375 31.296875 
Q 39.15625 29.25 43.1875 25.515625 
Q 47.21875 21.78125 47.21875 15.09375 
Q 47.21875 7.46875 41.1875 3.015625 
Q 35.15625 -1.421875 24.609375 -1.421875 
Q 20.21875 -1.421875 15.453125 -0.5625 
Q 10.6875 0.296875 5.421875 2 
L 5.421875 11.28125 
Q 10.40625 8.6875 15.234375 7.390625 
Q 20.0625 6.109375 24.8125 6.109375 
Q 31.15625 6.109375 34.5625 8.28125 
Q 37.984375 10.453125 37.984375 14.40625 
Q 37.984375 18.0625 35.515625 20.015625 
Q 33.0625 21.96875 24.703125 23.78125 
L 21.578125 24.515625 
Q 13.234375 26.265625 9.515625 29.90625 
Q 5.8125 33.546875 5.8125 39.890625 
Q 5.8125 47.609375 11.28125 51.796875 
Q 16.75 56 26.8125 56 
Q 31.78125 56 36.171875 55.265625 
Q 40.578125 54.546875 44.28125 53.078125 
" id="BitstreamVeraSans-Roman-73"/>
       <path d="M 9.8125 72.90625 
L 19.671875 72.90625 
L 19.671875 0 
L 9.8125 0 
z
" id="BitstreamVeraSans-Roman-49"/>
      </defs>
      <g style="fill:#262626;" transform="translate(394.87671875 522.97796875)scale(0.13 -0.13)">
       <use xlink:href="#BitstreamVeraSans-Roman-49"/>
       <use x="29.4921875" xlink:href="#BitstreamVeraSans-Roman-6c"/>
       <use x="57.275390625" xlink:href="#BitstreamVeraSans-Roman-6c"/>
       <use x="85.05859375" xlink:href="#BitstreamVeraSans-Roman-69"/>
       <use x="112.841796875" xlink:href="#BitstreamVeraSans-Roman-6e"/>
       <use x="176.220703125" xlink:href="#BitstreamVeraSans-Roman-6f"/>
       <use x="237.40234375" xlink:href="#BitstreamVeraSans-Roman-69"/>
       <use x="265.185546875" xlink:href="#BitstreamVeraSans-Roman-73"/>
      </g>
     </g>
    </g>
    <g id="xtick_5">
     <g id="line2d_9"/>
     <g id="line2d_10"/>
     <g id="text_5">
      <!-- Massachusetts -->
      <defs>
       <path d="M 54.890625 33.015625 
L 54.890625 0 
L 45.90625 0 
L 45.90625 32.71875 
Q 45.90625 40.484375 42.875 44.328125 
Q 39.84375 48.1875 33.796875 48.1875 
Q 26.515625 48.1875 22.3125 43.546875 
Q 18.109375 38.921875 18.109375 30.90625 
L 18.109375 0 
L 9.078125 0 
L 9.078125 75.984375 
L 18.109375 75.984375 
L 18.109375 46.1875 
Q 21.34375 51.125 25.703125 53.5625 
Q 30.078125 56 35.796875 56 
Q 45.21875 56 50.046875 50.171875 
Q 54.890625 44.34375 54.890625 33.015625 
" id="BitstreamVeraSans-Roman-68"/>
       <path d="M 18.3125 70.21875 
L 18.3125 54.6875 
L 36.8125 54.6875 
L 36.8125 47.703125 
L 18.3125 47.703125 
L 18.3125 18.015625 
Q 18.3125 11.328125 20.140625 9.421875 
Q 21.96875 7.515625 27.59375 7.515625 
L 36.8125 7.515625 
L 36.8125 0 
L 27.59375 0 
Q 17.1875 0 13.234375 3.875 
Q 9.28125 7.765625 9.28125 18.015625 
L 9.28125 47.703125 
L 2.6875 47.703125 
L 2.6875 54.6875 
L 9.28125 54.6875 
L 9.28125 70.21875 
z
" id="BitstreamVeraSans-Roman-74"/>
       <path d="M 9.8125 72.90625 
L 24.515625 72.90625 
L 43.109375 23.296875 
L 61.8125 72.90625 
L 76.515625 72.90625 
L 76.515625 0 
L 66.890625 0 
L 66.890625 64.015625 
L 48.09375 14.015625 
L 38.1875 14.015625 
L 19.390625 64.015625 
L 19.390625 0 
L 9.8125 0 
z
" id="BitstreamVeraSans-Roman-4d"/>
       <path d="M 8.5 21.578125 
L 8.5 54.6875 
L 17.484375 54.6875 
L 17.484375 21.921875 
Q 17.484375 14.15625 20.5 10.265625 
Q 23.53125 6.390625 29.59375 6.390625 
Q 36.859375 6.390625 41.078125 11.03125 
Q 45.3125 15.671875 45.3125 23.6875 
L 45.3125 54.6875 
L 54.296875 54.6875 
L 54.296875 0 
L 45.3125 0 
L 45.3125 8.40625 
Q 42.046875 3.421875 37.71875 1 
Q 33.40625 -1.421875 27.6875 -1.421875 
Q 18.265625 -1.421875 13.375 4.4375 
Q 8.5 10.296875 8.5 21.578125 
" id="BitstreamVeraSans-Roman-75"/>
       <path d="M 48.78125 52.59375 
L 48.78125 44.1875 
Q 44.96875 46.296875 41.140625 47.34375 
Q 37.3125 48.390625 33.40625 48.390625 
Q 24.65625 48.390625 19.8125 42.84375 
Q 14.984375 37.3125 14.984375 27.296875 
Q 14.984375 17.28125 19.8125 11.734375 
Q 24.65625 6.203125 33.40625 6.203125 
Q 37.3125 6.203125 41.140625 7.25 
Q 44.96875 8.296875 48.78125 10.40625 
L 48.78125 2.09375 
Q 45.015625 0.34375 40.984375 -0.53125 
Q 36.96875 -1.421875 32.421875 -1.421875 
Q 20.0625 -1.421875 12.78125 6.34375 
Q 5.515625 14.109375 5.515625 27.296875 
Q 5.515625 40.671875 12.859375 48.328125 
Q 20.21875 56 33.015625 56 
Q 37.15625 56 41.109375 55.140625 
Q 45.0625 54.296875 48.78125 52.59375 
" id="BitstreamVeraSans-Roman-63"/>
       <path d="M 56.203125 29.59375 
L 56.203125 25.203125 
L 14.890625 25.203125 
Q 15.484375 15.921875 20.484375 11.0625 
Q 25.484375 6.203125 34.421875 6.203125 
Q 39.59375 6.203125 44.453125 7.46875 
Q 49.3125 8.734375 54.109375 11.28125 
L 54.109375 2.78125 
Q 49.265625 0.734375 44.1875 -0.34375 
Q 39.109375 -1.421875 33.890625 -1.421875 
Q 20.796875 -1.421875 13.15625 6.1875 
Q 5.515625 13.8125 5.515625 26.8125 
Q 5.515625 40.234375 12.765625 48.109375 
Q 20.015625 56 32.328125 56 
Q 43.359375 56 49.78125 48.890625 
Q 56.203125 41.796875 56.203125 29.59375 
M 47.21875 32.234375 
Q 47.125 39.59375 43.09375 43.984375 
Q 39.0625 48.390625 32.421875 48.390625 
Q 24.90625 48.390625 20.390625 44.140625 
Q 15.875 39.890625 15.1875 32.171875 
z
" id="BitstreamVeraSans-Roman-65"/>
      </defs>
      <g style="fill:#262626;" transform="translate(460.472109375 522.97796875)scale(0.13 -0.13)">
       <use xlink:href="#BitstreamVeraSans-Roman-4d"/>
       <use x="86.279296875" xlink:href="#BitstreamVeraSans-Roman-61"/>
       <use x="147.55859375" xlink:href="#BitstreamVeraSans-Roman-73"/>
       <use x="199.658203125" xlink:href="#BitstreamVeraSans-Roman-73"/>
       <use x="251.7578125" xlink:href="#BitstreamVeraSans-Roman-61"/>
       <use x="313.037109375" xlink:href="#BitstreamVeraSans-Roman-63"/>
       <use x="368.017578125" xlink:href="#BitstreamVeraSans-Roman-68"/>
       <use x="431.396484375" xlink:href="#BitstreamVeraSans-Roman-75"/>
       <use x="494.775390625" xlink:href="#BitstreamVeraSans-Roman-73"/>
       <use x="546.875" xlink:href="#BitstreamVeraSans-Roman-65"/>
       <use x="608.3984375" xlink:href="#BitstreamVeraSans-Roman-74"/>
       <use x="647.607421875" xlink:href="#BitstreamVeraSans-Roman-74"/>
       <use x="686.81640625" xlink:href="#BitstreamVeraSans-Roman-73"/>
      </g>
     </g>
    </g>
    <g id="xtick_6">
     <g id="line2d_11"/>
     <g id="line2d_12"/>
     <g id="text_6">
      <!-- New York -->
      <defs>
       <path d="M 9.8125 72.90625 
L 23.09375 72.90625 
L 55.421875 11.921875 
L 55.421875 72.90625 
L 64.984375 72.90625 
L 64.984375 0 
L 51.703125 0 
L 19.390625 60.984375 
L 19.390625 0 
L 9.8125 0 
z
" id="BitstreamVeraSans-Roman-4e"/>
       <path d="M 9.078125 75.984375 
L 18.109375 75.984375 
L 18.109375 31.109375 
L 44.921875 54.6875 
L 56.390625 54.6875 
L 27.390625 29.109375 
L 57.625 0 
L 45.90625 0 
L 18.109375 26.703125 
L 18.109375 0 
L 9.078125 0 
z
" id="BitstreamVeraSans-Roman-6b"/>
       <path d="M 4.203125 54.6875 
L 13.1875 54.6875 
L 24.421875 12.015625 
L 35.59375 54.6875 
L 46.1875 54.6875 
L 57.421875 12.015625 
L 68.609375 54.6875 
L 77.59375 54.6875 
L 63.28125 0 
L 52.6875 0 
L 40.921875 44.828125 
L 29.109375 0 
L 18.5 0 
z
" id="BitstreamVeraSans-Roman-77"/>
       <path d="M -0.203125 72.90625 
L 10.40625 72.90625 
L 30.609375 42.921875 
L 50.6875 72.90625 
L 61.28125 72.90625 
L 35.5 34.71875 
L 35.5 0 
L 25.59375 0 
L 25.59375 34.71875 
z
" id="BitstreamVeraSans-Roman-59"/>
       <path id="BitstreamVeraSans-Roman-20"/>
      </defs>
      <g style="fill:#262626;" transform="translate(570.886015625 522.97796875)scale(0.13 -0.13)">
       <use xlink:href="#BitstreamVeraSans-Roman-4e"/>
       <use x="74.8046875" xlink:href="#BitstreamVeraSans-Roman-65"/>
       <use x="136.328125" xlink:href="#BitstreamVeraSans-Roman-77"/>
       <use x="218.115234375" xlink:href="#BitstreamVeraSans-Roman-20"/>
       <use x="249.90234375" xlink:href="#BitstreamVeraSans-Roman-59"/>
       <use x="310.783203125" xlink:href="#BitstreamVeraSans-Roman-6f"/>
       <use x="371.96484375" xlink:href="#BitstreamVeraSans-Roman-72"/>
       <use x="413.078125" xlink:href="#BitstreamVeraSans-Roman-6b"/>
      </g>
     </g>
    </g>
   </g>
   <g id="matplotlib.axis_2">
    <g id="ytick_1">
     <g id="line2d_13">
      <path clip-path="url(#pa752113993)" d="M 90 504 
L 648 504 
" style="fill:none;stroke:#ffffff;stroke-linecap:round;stroke-width:1.3;"/>
     </g>
     <g id="line2d_14"/>
     <g id="line2d_15"/>
     <g id="text_7">
      <!-- −800 -->
      <defs>
       <path d="M 31.78125 34.625 
Q 24.75 34.625 20.71875 30.859375 
Q 16.703125 27.09375 16.703125 20.515625 
Q 16.703125 13.921875 20.71875 10.15625 
Q 24.75 6.390625 31.78125 6.390625 
Q 38.8125 6.390625 42.859375 10.171875 
Q 46.921875 13.96875 46.921875 20.515625 
Q 46.921875 27.09375 42.890625 30.859375 
Q 38.875 34.625 31.78125 34.625 
M 21.921875 38.8125 
Q 15.578125 40.375 12.03125 44.71875 
Q 8.5 49.078125 8.5 55.328125 
Q 8.5 64.0625 14.71875 69.140625 
Q 20.953125 74.21875 31.78125 74.21875 
Q 42.671875 74.21875 48.875 69.140625 
Q 55.078125 64.0625 55.078125 55.328125 
Q 55.078125 49.078125 51.53125 44.71875 
Q 48 40.375 41.703125 38.8125 
Q 48.828125 37.15625 52.796875 32.3125 
Q 56.78125 27.484375 56.78125 20.515625 
Q 56.78125 9.90625 50.3125 4.234375 
Q 43.84375 -1.421875 31.78125 -1.421875 
Q 19.734375 -1.421875 13.25 4.234375 
Q 6.78125 9.90625 6.78125 20.515625 
Q 6.78125 27.484375 10.78125 32.3125 
Q 14.796875 37.15625 21.921875 38.8125 
M 18.3125 54.390625 
Q 18.3125 48.734375 21.84375 45.5625 
Q 25.390625 42.390625 31.78125 42.390625 
Q 38.140625 42.390625 41.71875 45.5625 
Q 45.3125 48.734375 45.3125 54.390625 
Q 45.3125 60.0625 41.71875 63.234375 
Q 38.140625 66.40625 31.78125 66.40625 
Q 25.390625 66.40625 21.84375 63.234375 
Q 18.3125 60.0625 18.3125 54.390625 
" id="BitstreamVeraSans-Roman-38"/>
       <path d="M 10.59375 35.5 
L 73.1875 35.5 
L 73.1875 27.203125 
L 10.59375 27.203125 
z
" id="BitstreamVeraSans-Roman-2212"/>
       <path d="M 31.78125 66.40625 
Q 24.171875 66.40625 20.328125 58.90625 
Q 16.5 51.421875 16.5 36.375 
Q 16.5 21.390625 20.328125 13.890625 
Q 24.171875 6.390625 31.78125 6.390625 
Q 39.453125 6.390625 43.28125 13.890625 
Q 47.125 21.390625 47.125 36.375 
Q 47.125 51.421875 43.28125 58.90625 
Q 39.453125 66.40625 31.78125 66.40625 
M 31.78125 74.21875 
Q 44.046875 74.21875 50.515625 64.515625 
Q 56.984375 54.828125 56.984375 36.375 
Q 56.984375 17.96875 50.515625 8.265625 
Q 44.046875 -1.421875 31.78125 -1.421875 
Q 19.53125 -1.421875 13.0625 8.265625 
Q 6.59375 17.96875 6.59375 36.375 
Q 6.59375 54.828125 13.0625 64.515625 
Q 19.53125 74.21875 31.78125 74.21875 
" id="BitstreamVeraSans-Roman-30"/>
      </defs>
      <g style="fill:#262626;" transform="translate(45.19265625 507.5871875)scale(0.13 -0.13)">
       <use xlink:href="#BitstreamVeraSans-Roman-2212"/>
       <use x="83.7890625" xlink:href="#BitstreamVeraSans-Roman-38"/>
       <use x="147.412109375" xlink:href="#BitstreamVeraSans-Roman-30"/>
       <use x="211.03515625" xlink:href="#BitstreamVeraSans-Roman-30"/>
      </g>
     </g>
    </g>
    <g id="ytick_2">
     <g id="line2d_16">
      <path clip-path="url(#pa752113993)" d="M 90 429.6 
L 648 429.6 
" style="fill:none;stroke:#ffffff;stroke-linecap:round;stroke-width:1.3;"/>
     </g>
     <g id="line2d_17"/>
     <g id="line2d_18"/>
     <g id="text_8">
      <!-- −600 -->
      <defs>
       <path d="M 33.015625 40.375 
Q 26.375 40.375 22.484375 35.828125 
Q 18.609375 31.296875 18.609375 23.390625 
Q 18.609375 15.53125 22.484375 10.953125 
Q 26.375 6.390625 33.015625 6.390625 
Q 39.65625 6.390625 43.53125 10.953125 
Q 47.40625 15.53125 47.40625 23.390625 
Q 47.40625 31.296875 43.53125 35.828125 
Q 39.65625 40.375 33.015625 40.375 
M 52.59375 71.296875 
L 52.59375 62.3125 
Q 48.875 64.0625 45.09375 64.984375 
Q 41.3125 65.921875 37.59375 65.921875 
Q 27.828125 65.921875 22.671875 59.328125 
Q 17.53125 52.734375 16.796875 39.40625 
Q 19.671875 43.65625 24.015625 45.921875 
Q 28.375 48.1875 33.59375 48.1875 
Q 44.578125 48.1875 50.953125 41.515625 
Q 57.328125 34.859375 57.328125 23.390625 
Q 57.328125 12.15625 50.6875 5.359375 
Q 44.046875 -1.421875 33.015625 -1.421875 
Q 20.359375 -1.421875 13.671875 8.265625 
Q 6.984375 17.96875 6.984375 36.375 
Q 6.984375 53.65625 15.1875 63.9375 
Q 23.390625 74.21875 37.203125 74.21875 
Q 40.921875 74.21875 44.703125 73.484375 
Q 48.484375 72.75 52.59375 71.296875 
" id="BitstreamVeraSans-Roman-36"/>
      </defs>
      <g style="fill:#262626;" transform="translate(45.19265625 433.1871875)scale(0.13 -0.13)">
       <use xlink:href="#BitstreamVeraSans-Roman-2212"/>
       <use x="83.7890625" xlink:href="#BitstreamVeraSans-Roman-36"/>
       <use x="147.412109375" xlink:href="#BitstreamVeraSans-Roman-30"/>
       <use x="211.03515625" xlink:href="#BitstreamVeraSans-Roman-30"/>
      </g>
     </g>
    </g>
    <g id="ytick_3">
     <g id="line2d_19">
      <path clip-path="url(#pa752113993)" d="M 90 355.2 
L 648 355.2 
" style="fill:none;stroke:#ffffff;stroke-linecap:round;stroke-width:1.3;"/>
     </g>
     <g id="line2d_20"/>
     <g id="line2d_21"/>
     <g id="text_9">
      <!-- −400 -->
      <defs>
       <path d="M 37.796875 64.3125 
L 12.890625 25.390625 
L 37.796875 25.390625 
z
M 35.203125 72.90625 
L 47.609375 72.90625 
L 47.609375 25.390625 
L 58.015625 25.390625 
L 58.015625 17.1875 
L 47.609375 17.1875 
L 47.609375 0 
L 37.796875 0 
L 37.796875 17.1875 
L 4.890625 17.1875 
L 4.890625 26.703125 
z
" id="BitstreamVeraSans-Roman-34"/>
      </defs>
      <g style="fill:#262626;" transform="translate(45.19265625 358.7871875)scale(0.13 -0.13)">
       <use xlink:href="#BitstreamVeraSans-Roman-2212"/>
       <use x="83.7890625" xlink:href="#BitstreamVeraSans-Roman-34"/>
       <use x="147.412109375" xlink:href="#BitstreamVeraSans-Roman-30"/>
       <use x="211.03515625" xlink:href="#BitstreamVeraSans-Roman-30"/>
      </g>
     </g>
    </g>
    <g id="ytick_4">
     <g id="line2d_22">
      <path clip-path="url(#pa752113993)" d="M 90 280.8 
L 648 280.8 
" style="fill:none;stroke:#ffffff;stroke-linecap:round;stroke-width:1.3;"/>
     </g>
     <g id="line2d_23"/>
     <g id="line2d_24"/>
     <g id="text_10">
      <!-- −200 -->
      <defs>
       <path d="M 19.1875 8.296875 
L 53.609375 8.296875 
L 53.609375 0 
L 7.328125 0 
L 7.328125 8.296875 
Q 12.9375 14.109375 22.625 23.890625 
Q 32.328125 33.6875 34.8125 36.53125 
Q 39.546875 41.84375 41.421875 45.53125 
Q 43.3125 49.21875 43.3125 52.78125 
Q 43.3125 58.59375 39.234375 62.25 
Q 35.15625 65.921875 28.609375 65.921875 
Q 23.96875 65.921875 18.8125 64.3125 
Q 13.671875 62.703125 7.8125 59.421875 
L 7.8125 69.390625 
Q 13.765625 71.78125 18.9375 73 
Q 24.125 74.21875 28.421875 74.21875 
Q 39.75 74.21875 46.484375 68.546875 
Q 53.21875 62.890625 53.21875 53.421875 
Q 53.21875 48.921875 51.53125 44.890625 
Q 49.859375 40.875 45.40625 35.40625 
Q 44.1875 33.984375 37.640625 27.21875 
Q 31.109375 20.453125 19.1875 8.296875 
" id="BitstreamVeraSans-Roman-32"/>
      </defs>
      <g style="fill:#262626;" transform="translate(45.19265625 284.3871875)scale(0.13 -0.13)">
       <use xlink:href="#BitstreamVeraSans-Roman-2212"/>
       <use x="83.7890625" xlink:href="#BitstreamVeraSans-Roman-32"/>
       <use x="147.412109375" xlink:href="#BitstreamVeraSans-Roman-30"/>
       <use x="211.03515625" xlink:href="#BitstreamVeraSans-Roman-30"/>
      </g>
     </g>
    </g>
    <g id="ytick_5">
     <g id="line2d_25">
      <path clip-path="url(#pa752113993)" d="M 90 206.4 
L 648 206.4 
" style="fill:none;stroke:#ffffff;stroke-linecap:round;stroke-width:1.3;"/>
     </g>
     <g id="line2d_26"/>
     <g id="line2d_27"/>
     <g id="text_11">
      <!-- 0 -->
      <g style="fill:#262626;" transform="translate(72.62875 209.9871875)scale(0.13 -0.13)">
       <use xlink:href="#BitstreamVeraSans-Roman-30"/>
      </g>
     </g>
    </g>
    <g id="ytick_6">
     <g id="line2d_28">
      <path clip-path="url(#pa752113993)" d="M 90 132 
L 648 132 
" style="fill:none;stroke:#ffffff;stroke-linecap:round;stroke-width:1.3;"/>
     </g>
     <g id="line2d_29"/>
     <g id="line2d_30"/>
     <g id="text_12">
      <!-- 200 -->
      <g style="fill:#262626;" transform="translate(56.08625 135.5871875)scale(0.13 -0.13)">
       <use xlink:href="#BitstreamVeraSans-Roman-32"/>
       <use x="63.623046875" xlink:href="#BitstreamVeraSans-Roman-30"/>
       <use x="127.24609375" xlink:href="#BitstreamVeraSans-Roman-30"/>
      </g>
     </g>
    </g>
    <g id="ytick_7">
     <g id="line2d_31">
      <path clip-path="url(#pa752113993)" d="M 90 57.6 
L 648 57.6 
" style="fill:none;stroke:#ffffff;stroke-linecap:round;stroke-width:1.3;"/>
     </g>
     <g id="line2d_32"/>
     <g id="line2d_33"/>
     <g id="text_13">
      <!-- 400 -->
      <g style="fill:#262626;" transform="translate(56.08625 61.1871875)scale(0.13 -0.13)">
       <use xlink:href="#BitstreamVeraSans-Roman-34"/>
       <use x="63.623046875" xlink:href="#BitstreamVeraSans-Roman-30"/>
       <use x="127.24609375" xlink:href="#BitstreamVeraSans-Roman-30"/>
      </g>
     </g>
    </g>
    <g id="text_14">
     <!-- Annual Savings from V2G -->
     <defs>
      <path d="M 28.609375 0 
L 0.78125 72.90625 
L 11.078125 72.90625 
L 34.1875 11.53125 
L 57.328125 72.90625 
L 67.578125 72.90625 
L 39.796875 0 
z
" id="BitstreamVeraSans-Roman-56"/>
      <path d="M 2.984375 54.6875 
L 12.5 54.6875 
L 29.59375 8.796875 
L 46.6875 54.6875 
L 56.203125 54.6875 
L 35.6875 0 
L 23.484375 0 
z
" id="BitstreamVeraSans-Roman-76"/>
      <path d="M 52 44.1875 
Q 55.375 50.25 60.0625 53.125 
Q 64.75 56 71.09375 56 
Q 79.640625 56 84.28125 50.015625 
Q 88.921875 44.046875 88.921875 33.015625 
L 88.921875 0 
L 79.890625 0 
L 79.890625 32.71875 
Q 79.890625 40.578125 77.09375 44.375 
Q 74.3125 48.1875 68.609375 48.1875 
Q 61.625 48.1875 57.5625 43.546875 
Q 53.515625 38.921875 53.515625 30.90625 
L 53.515625 0 
L 44.484375 0 
L 44.484375 32.71875 
Q 44.484375 40.625 41.703125 44.40625 
Q 38.921875 48.1875 33.109375 48.1875 
Q 26.21875 48.1875 22.15625 43.53125 
Q 18.109375 38.875 18.109375 30.90625 
L 18.109375 0 
L 9.078125 0 
L 9.078125 54.6875 
L 18.109375 54.6875 
L 18.109375 46.1875 
Q 21.1875 51.21875 25.484375 53.609375 
Q 29.78125 56 35.6875 56 
Q 41.65625 56 45.828125 52.96875 
Q 50 49.953125 52 44.1875 
" id="BitstreamVeraSans-Roman-6d"/>
      <path d="M 59.515625 10.40625 
L 59.515625 29.984375 
L 43.40625 29.984375 
L 43.40625 38.09375 
L 69.28125 38.09375 
L 69.28125 6.78125 
Q 63.578125 2.734375 56.6875 0.65625 
Q 49.8125 -1.421875 42 -1.421875 
Q 24.90625 -1.421875 15.25 8.5625 
Q 5.609375 18.5625 5.609375 36.375 
Q 5.609375 54.25 15.25 64.234375 
Q 24.90625 74.21875 42 74.21875 
Q 49.125 74.21875 55.546875 72.453125 
Q 61.96875 70.703125 67.390625 67.28125 
L 67.390625 56.78125 
Q 61.921875 61.421875 55.765625 63.765625 
Q 49.609375 66.109375 42.828125 66.109375 
Q 29.4375 66.109375 22.71875 58.640625 
Q 16.015625 51.171875 16.015625 36.375 
Q 16.015625 21.625 22.71875 14.15625 
Q 29.4375 6.6875 42.828125 6.6875 
Q 48.046875 6.6875 52.140625 7.59375 
Q 56.25 8.5 59.515625 10.40625 
" id="BitstreamVeraSans-Roman-47"/>
      <path d="M 45.40625 27.984375 
Q 45.40625 37.75 41.375 43.109375 
Q 37.359375 48.484375 30.078125 48.484375 
Q 22.859375 48.484375 18.828125 43.109375 
Q 14.796875 37.75 14.796875 27.984375 
Q 14.796875 18.265625 18.828125 12.890625 
Q 22.859375 7.515625 30.078125 7.515625 
Q 37.359375 7.515625 41.375 12.890625 
Q 45.40625 18.265625 45.40625 27.984375 
M 54.390625 6.78125 
Q 54.390625 -7.171875 48.1875 -13.984375 
Q 42 -20.796875 29.203125 -20.796875 
Q 24.46875 -20.796875 20.265625 -20.09375 
Q 16.0625 -19.390625 12.109375 -17.921875 
L 12.109375 -9.1875 
Q 16.0625 -11.328125 19.921875 -12.34375 
Q 23.78125 -13.375 27.78125 -13.375 
Q 36.625 -13.375 41.015625 -8.765625 
Q 45.40625 -4.15625 45.40625 5.171875 
L 45.40625 9.625 
Q 42.625 4.78125 38.28125 2.390625 
Q 33.9375 0 27.875 0 
Q 17.828125 0 11.671875 7.65625 
Q 5.515625 15.328125 5.515625 27.984375 
Q 5.515625 40.671875 11.671875 48.328125 
Q 17.828125 56 27.875 56 
Q 33.9375 56 38.28125 53.609375 
Q 42.625 51.21875 45.40625 46.390625 
L 45.40625 54.6875 
L 54.390625 54.6875 
z
" id="BitstreamVeraSans-Roman-67"/>
      <path d="M 53.515625 70.515625 
L 53.515625 60.890625 
Q 47.90625 63.578125 42.921875 64.890625 
Q 37.9375 66.21875 33.296875 66.21875 
Q 25.25 66.21875 20.875 63.09375 
Q 16.5 59.96875 16.5 54.203125 
Q 16.5 49.359375 19.40625 46.890625 
Q 22.3125 44.4375 30.421875 42.921875 
L 36.375 41.703125 
Q 47.40625 39.59375 52.65625 34.296875 
Q 57.90625 29 57.90625 20.125 
Q 57.90625 9.515625 50.796875 4.046875 
Q 43.703125 -1.421875 29.984375 -1.421875 
Q 24.8125 -1.421875 18.96875 -0.25 
Q 13.140625 0.921875 6.890625 3.21875 
L 6.890625 13.375 
Q 12.890625 10.015625 18.65625 8.296875 
Q 24.421875 6.59375 29.984375 6.59375 
Q 38.421875 6.59375 43.015625 9.90625 
Q 47.609375 13.234375 47.609375 19.390625 
Q 47.609375 24.75 44.3125 27.78125 
Q 41.015625 30.8125 33.5 32.328125 
L 27.484375 33.5 
Q 16.453125 35.6875 11.515625 40.375 
Q 6.59375 45.0625 6.59375 53.421875 
Q 6.59375 63.09375 13.40625 68.65625 
Q 20.21875 74.21875 32.171875 74.21875 
Q 37.3125 74.21875 42.625 73.28125 
Q 47.953125 72.359375 53.515625 70.515625 
" id="BitstreamVeraSans-Roman-53"/>
     </defs>
     <g style="fill:#262626;" transform="translate(37.218703125 372.178117187)rotate(-90.0)scale(0.14300000000000002 -0.14300000000000002)">
      <use xlink:href="#BitstreamVeraSans-Roman-41"/>
      <use x="68.408203125" xlink:href="#BitstreamVeraSans-Roman-6e"/>
      <use x="131.787109375" xlink:href="#BitstreamVeraSans-Roman-6e"/>
      <use x="195.166015625" xlink:href="#BitstreamVeraSans-Roman-75"/>
      <use x="258.544921875" xlink:href="#BitstreamVeraSans-Roman-61"/>
      <use x="319.82421875" xlink:href="#BitstreamVeraSans-Roman-6c"/>
      <use x="347.607421875" xlink:href="#BitstreamVeraSans-Roman-20"/>
      <use x="379.39453125" xlink:href="#BitstreamVeraSans-Roman-53"/>
      <use x="442.87109375" xlink:href="#BitstreamVeraSans-Roman-61"/>
      <use x="504.150390625" xlink:href="#BitstreamVeraSans-Roman-76"/>
      <use x="563.330078125" xlink:href="#BitstreamVeraSans-Roman-69"/>
      <use x="591.11328125" xlink:href="#BitstreamVeraSans-Roman-6e"/>
      <use x="654.4921875" xlink:href="#BitstreamVeraSans-Roman-67"/>
      <use x="717.96875" xlink:href="#BitstreamVeraSans-Roman-73"/>
      <use x="770.068359375" xlink:href="#BitstreamVeraSans-Roman-20"/>
      <use x="801.85546875" xlink:href="#BitstreamVeraSans-Roman-66"/>
      <use x="837.060546875" xlink:href="#BitstreamVeraSans-Roman-72"/>
      <use x="878.142578125" xlink:href="#BitstreamVeraSans-Roman-6f"/>
      <use x="939.32421875" xlink:href="#BitstreamVeraSans-Roman-6d"/>
      <use x="1036.736328125" xlink:href="#BitstreamVeraSans-Roman-20"/>
      <use x="1068.5234375" xlink:href="#BitstreamVeraSans-Roman-56"/>
      <use x="1136.931640625" xlink:href="#BitstreamVeraSans-Roman-32"/>
      <use x="1200.5546875" xlink:href="#BitstreamVeraSans-Roman-47"/>
     </g>
    </g>
   </g>
   <g id="PolyCollection_1">
    <defs>
     <path d="M 136.63966 -130.657821 
L 136.36034 -130.657821 
L 136.268897 -133.450073 
L 136.135963 -136.242326 
L 135.953237 -139.034578 
L 135.715232 -141.826831 
L 135.420281 -144.619083 
L 135.070003 -147.411336 
L 134.666686 -150.203588 
L 134.208826 -152.995841 
L 133.686211 -155.788093 
L 133.076886 -158.580346 
L 132.34865 -161.372598 
L 131.466709 -164.164851 
L 130.406965 -166.957103 
L 129.171593 -169.749356 
L 127.801327 -172.541608 
L 126.378453 -175.333861 
L 125.016657 -178.126113 
L 123.83828 -180.918366 
L 122.94467 -183.710618 
L 122.389029 -186.502871 
L 122.161562 -189.295123 
L 122.193092 -192.087376 
L 122.376843 -194.879628 
L 122.601165 -197.671881 
L 122.781681 -200.464133 
L 122.881598 -203.256386 
L 122.913778 -206.048638 
L 122.925613 -208.840891 
L 122.974352 -211.633143 
L 123.103542 -214.425396 
L 123.32929 -217.217648 
L 123.639552 -220.009901 
L 124.003518 -222.802153 
L 124.384375 -225.594406 
L 124.749017 -228.386658 
L 125.071619 -231.178911 
L 125.332285 -233.971163 
L 125.51449 -236.763416 
L 125.604757 -239.555668 
L 125.595608 -242.347921 
L 125.490059 -245.140173 
L 125.304631 -247.932426 
L 125.068542 -250.724678 
L 124.818744 -253.516931 
L 124.592572 -256.309183 
L 124.420723 -259.101436 
L 124.322833 -261.893688 
L 124.306538 -264.685941 
L 124.369357 -267.478193 
L 124.501925 -270.270446 
L 124.691109 -273.062698 
L 124.922258 -275.854951 
L 125.180618 -278.647203 
L 125.452411 -281.439456 
L 125.726049 -284.231709 
L 125.993544 -287.023961 
L 126.251769 -289.816214 
L 126.502975 -292.608466 
L 126.754109 -295.400719 
L 127.014801 -298.192971 
L 127.294396 -300.985224 
L 127.598781 -303.777476 
L 127.927956 -306.569729 
L 128.275156 -309.361981 
L 128.627918 -312.154234 
L 128.970836 -314.946486 
L 129.28915 -317.738739 
L 129.571996 -320.530991 
L 129.814259 -323.323244 
L 130.016533 -326.115496 
L 130.183479 -328.907749 
L 130.321478 -331.700001 
L 130.436709 -334.492254 
L 130.534435 -337.284506 
L 130.619581 -340.076759 
L 130.698033 -342.869011 
L 130.777744 -345.661264 
L 130.868929 -348.453516 
L 130.983204 -351.245769 
L 131.132065 -354.038021 
L 131.32532 -356.830274 
L 131.569944 -359.622526 
L 131.869374 -362.414779 
L 132.223032 -365.207031 
L 132.625869 -367.999284 
L 133.068015 -370.791536 
L 133.534917 -373.583789 
L 134.008354 -376.376041 
L 134.46844 -379.168294 
L 134.89626 -381.960546 
L 135.276489 -384.752799 
L 135.599271 -387.545051 
L 135.860932 -390.337304 
L 136.06348 -393.129556 
L 136.213214 -395.921809 
L 136.31894 -398.714061 
L 136.390245 -401.506314 
L 136.436177 -404.298566 
L 136.46443 -407.090819 
L 136.53557 -407.090819 
L 136.53557 -407.090819 
L 136.563823 -404.298566 
L 136.609755 -401.506314 
L 136.68106 -398.714061 
L 136.786786 -395.921809 
L 136.93652 -393.129556 
L 137.139068 -390.337304 
L 137.400729 -387.545051 
L 137.723511 -384.752799 
L 138.10374 -381.960546 
L 138.53156 -379.168294 
L 138.991646 -376.376041 
L 139.465083 -373.583789 
L 139.931985 -370.791536 
L 140.374131 -367.999284 
L 140.776968 -365.207031 
L 141.130626 -362.414779 
L 141.430056 -359.622526 
L 141.67468 -356.830274 
L 141.867935 -354.038021 
L 142.016796 -351.245769 
L 142.131071 -348.453516 
L 142.222256 -345.661264 
L 142.301967 -342.869011 
L 142.380419 -340.076759 
L 142.465565 -337.284506 
L 142.563291 -334.492254 
L 142.678522 -331.700001 
L 142.816521 -328.907749 
L 142.983467 -326.115496 
L 143.185741 -323.323244 
L 143.428004 -320.530991 
L 143.71085 -317.738739 
L 144.029164 -314.946486 
L 144.372082 -312.154234 
L 144.724844 -309.361981 
L 145.072044 -306.569729 
L 145.401219 -303.777476 
L 145.705604 -300.985224 
L 145.985199 -298.192971 
L 146.245891 -295.400719 
L 146.497025 -292.608466 
L 146.748231 -289.816214 
L 147.006456 -287.023961 
L 147.273951 -284.231709 
L 147.547589 -281.439456 
L 147.819382 -278.647203 
L 148.077742 -275.854951 
L 148.308891 -273.062698 
L 148.498075 -270.270446 
L 148.630643 -267.478193 
L 148.693462 -264.685941 
L 148.677167 -261.893688 
L 148.579277 -259.101436 
L 148.407428 -256.309183 
L 148.181256 -253.516931 
L 147.931458 -250.724678 
L 147.695369 -247.932426 
L 147.509941 -245.140173 
L 147.404392 -242.347921 
L 147.395243 -239.555668 
L 147.48551 -236.763416 
L 147.667715 -233.971163 
L 147.928381 -231.178911 
L 148.250983 -228.386658 
L 148.615625 -225.594406 
L 148.996482 -222.802153 
L 149.360448 -220.009901 
L 149.67071 -217.217648 
L 149.896458 -214.425396 
L 150.025648 -211.633143 
L 150.074387 -208.840891 
L 150.086222 -206.048638 
L 150.118402 -203.256386 
L 150.218319 -200.464133 
L 150.398835 -197.671881 
L 150.623157 -194.879628 
L 150.806908 -192.087376 
L 150.838438 -189.295123 
L 150.610971 -186.502871 
L 150.05533 -183.710618 
L 149.16172 -180.918366 
L 147.983343 -178.126113 
L 146.621547 -175.333861 
L 145.198673 -172.541608 
L 143.828407 -169.749356 
L 142.593035 -166.957103 
L 141.533291 -164.164851 
L 140.65135 -161.372598 
L 139.923114 -158.580346 
L 139.313789 -155.788093 
L 138.791174 -152.995841 
L 138.333314 -150.203588 
L 137.929997 -147.411336 
L 137.579719 -144.619083 
L 137.284768 -141.826831 
L 137.046763 -139.034578 
L 136.864037 -136.242326 
L 136.731103 -133.450073 
L 136.63966 -130.657821 
z
" id="m29e8a25614" style="stroke:#5c5c5c;stroke-width:2.275;"/>
    </defs>
    <g clip-path="url(#pa752113993)">
     <use style="fill:#cb6d67;stroke:#5c5c5c;stroke-width:2.275;" x="0.0" xlink:href="#m29e8a25614" y="576.0"/>
    </g>
   </g>
   <g id="PolyCollection_2">
    <defs>
     <path d="M 229.584768 -102.61123 
L 229.415232 -102.61123 
L 229.359027 -105.928049 
L 229.276652 -109.244868 
L 229.162166 -112.561687 
L 229.010708 -115.878506 
L 228.818788 -119.195325 
L 228.5836 -122.512144 
L 228.301098 -125.828963 
L 227.96315 -129.145782 
L 227.554742 -132.462601 
L 227.052865 -135.77942 
L 226.428719 -139.096239 
L 225.654203 -142.413059 
L 224.712171 -145.729878 
L 223.608038 -149.046697 
L 222.378852 -152.363516 
L 221.095595 -155.680335 
L 219.85584 -158.997154 
L 218.766794 -162.313973 
L 217.922382 -165.630792 
L 217.380879 -168.947611 
L 217.150432 -172.26443 
L 217.187821 -175.581249 
L 217.411595 -178.898069 
L 217.725636 -182.214888 
L 218.045368 -185.531707 
L 218.317925 -188.848526 
L 218.529967 -192.165345 
L 218.701652 -195.482164 
L 218.870447 -198.798983 
L 219.071865 -202.115802 
L 219.324492 -205.432621 
L 219.624029 -208.74944 
L 219.946808 -212.066259 
L 220.259462 -215.383078 
L 220.529645 -218.699898 
L 220.733428 -222.016717 
L 220.857588 -225.333536 
L 220.897819 -228.650355 
L 220.855603 -231.967174 
L 220.736278 -235.283993 
L 220.549175 -238.600812 
L 220.308756 -241.917631 
L 220.03478 -245.23445 
L 219.750124 -248.551269 
L 219.476662 -251.868088 
L 219.231146 -255.184907 
L 219.023404 -258.501727 
L 218.85788 -261.818546 
L 218.737598 -265.135365 
L 218.668094 -268.452184 
L 218.658877 -271.769003 
L 218.721388 -275.085822 
L 218.864408 -278.402641 
L 219.089242 -281.71946 
L 219.387027 -285.036279 
L 219.739383 -288.353098 
L 220.122065 -291.669917 
L 220.510083 -294.986736 
L 220.882497 -298.303556 
L 221.225549 -301.620375 
L 221.53367 -304.937194 
L 221.808606 -308.254013 
L 222.057296 -311.570832 
L 222.289203 -314.887651 
L 222.513651 -318.20447 
L 222.737635 -321.521289 
L 222.964482 -324.838108 
L 223.193619 -328.154927 
L 223.421484 -331.471746 
L 223.643246 -334.788565 
L 223.854693 -338.105385 
L 224.053509 -341.422204 
L 224.23948 -344.739023 
L 224.413698 -348.055842 
L 224.577404 -351.372661 
L 224.731303 -354.68948 
L 224.875855 -358.006299 
L 225.012382 -361.323118 
L 225.144276 -364.639937 
L 225.277518 -367.956756 
L 225.420101 -371.273575 
L 225.580617 -374.590394 
L 225.766645 -377.907214 
L 225.983528 -381.224033 
L 226.233739 -384.540852 
L 226.51667 -387.857671 
L 226.828516 -391.17449 
L 227.162174 -394.491309 
L 227.507361 -397.808128 
L 227.851278 -401.124947 
L 228.179995 -404.441766 
L 228.480394 -407.758585 
L 228.742151 -411.075404 
L 228.959188 -414.392223 
L 229.130176 -417.709043 
L 229.258046 -421.025862 
L 229.348756 -424.342681 
L 229.409771 -427.6595 
L 229.448676 -430.976319 
L 229.551324 -430.976319 
L 229.551324 -430.976319 
L 229.590229 -427.6595 
L 229.651244 -424.342681 
L 229.741954 -421.025862 
L 229.869824 -417.709043 
L 230.040812 -414.392223 
L 230.257849 -411.075404 
L 230.519606 -407.758585 
L 230.820005 -404.441766 
L 231.148722 -401.124947 
L 231.492639 -397.808128 
L 231.837826 -394.491309 
L 232.171484 -391.17449 
L 232.48333 -387.857671 
L 232.766261 -384.540852 
L 233.016472 -381.224033 
L 233.233355 -377.907214 
L 233.419383 -374.590394 
L 233.579899 -371.273575 
L 233.722482 -367.956756 
L 233.855724 -364.639937 
L 233.987618 -361.323118 
L 234.124145 -358.006299 
L 234.268697 -354.68948 
L 234.422596 -351.372661 
L 234.586302 -348.055842 
L 234.76052 -344.739023 
L 234.946491 -341.422204 
L 235.145307 -338.105385 
L 235.356754 -334.788565 
L 235.578516 -331.471746 
L 235.806381 -328.154927 
L 236.035518 -324.838108 
L 236.262365 -321.521289 
L 236.486349 -318.20447 
L 236.710797 -314.887651 
L 236.942704 -311.570832 
L 237.191394 -308.254013 
L 237.46633 -304.937194 
L 237.774451 -301.620375 
L 238.117503 -298.303556 
L 238.489917 -294.986736 
L 238.877935 -291.669917 
L 239.260617 -288.353098 
L 239.612973 -285.036279 
L 239.910758 -281.71946 
L 240.135592 -278.402641 
L 240.278612 -275.085822 
L 240.341123 -271.769003 
L 240.331906 -268.452184 
L 240.262402 -265.135365 
L 240.14212 -261.818546 
L 239.976596 -258.501727 
L 239.768854 -255.184907 
L 239.523338 -251.868088 
L 239.249876 -248.551269 
L 238.96522 -245.23445 
L 238.691244 -241.917631 
L 238.450825 -238.600812 
L 238.263722 -235.283993 
L 238.144397 -231.967174 
L 238.102181 -228.650355 
L 238.142412 -225.333536 
L 238.266572 -222.016717 
L 238.470355 -218.699898 
L 238.740538 -215.383078 
L 239.053192 -212.066259 
L 239.375971 -208.74944 
L 239.675508 -205.432621 
L 239.928135 -202.115802 
L 240.129553 -198.798983 
L 240.298348 -195.482164 
L 240.470033 -192.165345 
L 240.682075 -188.848526 
L 240.954632 -185.531707 
L 241.274364 -182.214888 
L 241.588405 -178.898069 
L 241.812179 -175.581249 
L 241.849568 -172.26443 
L 241.619121 -168.947611 
L 241.077618 -165.630792 
L 240.233206 -162.313973 
L 239.14416 -158.997154 
L 237.904405 -155.680335 
L 236.621148 -152.363516 
L 235.391962 -149.046697 
L 234.287829 -145.729878 
L 233.345797 -142.413059 
L 232.571281 -139.096239 
L 231.947135 -135.77942 
L 231.445258 -132.462601 
L 231.03685 -129.145782 
L 230.698902 -125.828963 
L 230.4164 -122.512144 
L 230.181212 -119.195325 
L 229.989292 -115.878506 
L 229.837834 -112.561687 
L 229.723348 -109.244868 
L 229.640973 -105.928049 
L 229.584768 -102.61123 
z
" id="m03ef251380" style="stroke:#5c5c5c;stroke-width:2.275;"/>
    </defs>
    <g clip-path="url(#pa752113993)">
     <use style="fill:#c5cb67;stroke:#5c5c5c;stroke-width:2.275;" x="0.0" xlink:href="#m03ef251380" y="576.0"/>
    </g>
   </g>
   <g id="PolyCollection_3">
    <defs>
     <path d="M 322.511493 -201.192855 
L 322.488507 -201.192855 
L 322.477485 -203.010014 
L 322.460582 -204.827174 
L 322.438283 -206.644333 
L 322.413482 -208.461493 
L 322.391143 -210.278652 
L 322.376353 -212.095811 
L 322.371366 -213.912971 
L 322.373149 -215.73013 
L 322.372839 -217.54729 
L 322.357483 -219.364449 
L 322.313268 -221.181608 
L 322.229183 -222.998768 
L 322.100432 -224.815927 
L 321.930995 -226.633087 
L 321.73413 -228.450246 
L 321.529309 -230.267405 
L 321.33548 -232.084565 
L 321.162973 -233.901724 
L 321.007169 -235.718884 
L 320.844327 -237.536043 
L 320.626308 -239.353202 
L 320.271494 -241.170362 
L 319.656185 -242.987521 
L 318.619816 -244.804681 
L 316.999365 -246.62184 
L 314.694992 -248.438999 
L 311.74168 -250.256159 
L 308.340764 -252.073318 
L 304.819533 -253.890478 
L 301.539025 -255.707637 
L 298.812536 -257.524796 
L 296.875745 -259.341956 
L 295.879218 -261.159115 
L 295.841953 -262.976275 
L 296.561755 -264.793434 
L 297.563162 -266.610593 
L 298.17485 -268.427753 
L 297.750851 -270.244912 
L 295.955914 -272.062072 
L 292.982359 -273.879231 
L 289.563813 -275.69639 
L 286.717684 -277.51355 
L 285.3 -279.330709 
L 285.615995 -281.147869 
L 287.336582 -282.965028 
L 289.763247 -284.782187 
L 292.22571 -286.599347 
L 294.330388 -288.416506 
L 295.954463 -290.233666 
L 297.104139 -292.050825 
L 297.812211 -293.867984 
L 298.133586 -295.685144 
L 298.175689 -297.502303 
L 298.095472 -299.319463 
L 298.064084 -301.136622 
L 298.234985 -302.953781 
L 298.724455 -304.770941 
L 299.587148 -306.5881 
L 300.787192 -308.40526 
L 302.194478 -310.222419 
L 303.625403 -312.039579 
L 304.904395 -313.856738 
L 305.901544 -315.673897 
L 306.532495 -317.491057 
L 306.75466 -319.308216 
L 306.599285 -321.125376 
L 306.227662 -322.942535 
L 305.945248 -324.759694 
L 306.11662 -326.576854 
L 307.002723 -328.394013 
L 308.61965 -330.211173 
L 310.717843 -332.028332 
L 312.897288 -333.845491 
L 314.781403 -335.662651 
L 316.146952 -337.47981 
L 316.957564 -339.29697 
L 317.319003 -341.114129 
L 317.408341 -342.931288 
L 317.416034 -344.748448 
L 317.508219 -346.565607 
L 317.798847 -348.382767 
L 318.327174 -350.199926 
L 319.050565 -352.017085 
L 319.864379 -353.834245 
L 320.645078 -355.651404 
L 321.2954 -357.468564 
L 321.769299 -359.285723 
L 322.069978 -361.102882 
L 322.231293 -362.920042 
L 322.297723 -364.737201 
L 322.311461 -366.554361 
L 322.306459 -368.37152 
L 322.305796 -370.188679 
L 322.320536 -372.005839 
L 322.350701 -373.822998 
L 322.389082 -375.640158 
L 322.426618 -377.457317 
L 322.456812 -379.274476 
L 322.477397 -381.091636 
L 322.522603 -381.091636 
L 322.522603 -381.091636 
L 322.543188 -379.274476 
L 322.573382 -377.457317 
L 322.610918 -375.640158 
L 322.649299 -373.822998 
L 322.679464 -372.005839 
L 322.694204 -370.188679 
L 322.693541 -368.37152 
L 322.688539 -366.554361 
L 322.702277 -364.737201 
L 322.768707 -362.920042 
L 322.930022 -361.102882 
L 323.230701 -359.285723 
L 323.7046 -357.468564 
L 324.354922 -355.651404 
L 325.135621 -353.834245 
L 325.949435 -352.017085 
L 326.672826 -350.199926 
L 327.201153 -348.382767 
L 327.491781 -346.565607 
L 327.583966 -344.748448 
L 327.591659 -342.931288 
L 327.680997 -341.114129 
L 328.042436 -339.29697 
L 328.853048 -337.47981 
L 330.218597 -335.662651 
L 332.102712 -333.845491 
L 334.282157 -332.028332 
L 336.38035 -330.211173 
L 337.997277 -328.394013 
L 338.88338 -326.576854 
L 339.054752 -324.759694 
L 338.772338 -322.942535 
L 338.400715 -321.125376 
L 338.24534 -319.308216 
L 338.467505 -317.491057 
L 339.098456 -315.673897 
L 340.095605 -313.856738 
L 341.374597 -312.039579 
L 342.805522 -310.222419 
L 344.212808 -308.40526 
L 345.412852 -306.5881 
L 346.275545 -304.770941 
L 346.765015 -302.953781 
L 346.935916 -301.136622 
L 346.904528 -299.319463 
L 346.824311 -297.502303 
L 346.866414 -295.685144 
L 347.187789 -293.867984 
L 347.895861 -292.050825 
L 349.045537 -290.233666 
L 350.669612 -288.416506 
L 352.77429 -286.599347 
L 355.236753 -284.782187 
L 357.663418 -282.965028 
L 359.384005 -281.147869 
L 359.7 -279.330709 
L 358.282316 -277.51355 
L 355.436187 -275.69639 
L 352.017641 -273.879231 
L 349.044086 -272.062072 
L 347.249149 -270.244912 
L 346.82515 -268.427753 
L 347.436838 -266.610593 
L 348.438245 -264.793434 
L 349.158047 -262.976275 
L 349.120782 -261.159115 
L 348.124255 -259.341956 
L 346.187464 -257.524796 
L 343.460975 -255.707637 
L 340.180467 -253.890478 
L 336.659236 -252.073318 
L 333.25832 -250.256159 
L 330.305008 -248.438999 
L 328.000635 -246.62184 
L 326.380184 -244.804681 
L 325.343815 -242.987521 
L 324.728506 -241.170362 
L 324.373692 -239.353202 
L 324.155673 -237.536043 
L 323.992831 -235.718884 
L 323.837027 -233.901724 
L 323.66452 -232.084565 
L 323.470691 -230.267405 
L 323.26587 -228.450246 
L 323.069005 -226.633087 
L 322.899568 -224.815927 
L 322.770817 -222.998768 
L 322.686732 -221.181608 
L 322.642517 -219.364449 
L 322.627161 -217.54729 
L 322.626851 -215.73013 
L 322.628634 -213.912971 
L 322.623647 -212.095811 
L 322.608857 -210.278652 
L 322.586518 -208.461493 
L 322.561717 -206.644333 
L 322.539418 -204.827174 
L 322.522515 -203.010014 
L 322.511493 -201.192855 
z
" id="mda130f58a2" style="stroke:#5c5c5c;stroke-width:2.275;"/>
    </defs>
    <g clip-path="url(#pa752113993)">
     <use style="fill:#67cb6d;stroke:#5c5c5c;stroke-width:2.275;" x="0.0" xlink:href="#mda130f58a2" y="576.0"/>
    </g>
   </g>
   <g id="PolyCollection_4">
    <defs>
     <path d="M 415.507561 -193.643334 
L 415.492439 -193.643334 
L 415.486332 -195.557972 
L 415.477705 -197.472611 
L 415.467148 -199.387249 
L 415.456186 -201.301887 
L 415.446868 -203.216525 
L 415.440833 -205.131163 
L 415.43822 -207.045801 
L 415.437064 -208.960439 
L 415.433523 -210.875078 
L 415.422663 -212.789716 
L 415.398927 -214.704354 
L 415.355429 -216.618992 
L 415.282036 -218.53363 
L 415.163557 -220.448268 
L 414.98035 -222.362906 
L 414.713004 -224.277545 
L 414.350355 -226.192183 
L 413.897025 -228.106821 
L 413.37577 -230.021459 
L 412.82218 -231.936097 
L 412.273474 -233.850735 
L 411.755608 -235.765373 
L 411.272338 -237.680012 
L 410.797961 -239.59465 
L 410.274738 -241.509288 
L 409.616527 -243.423926 
L 408.719732 -245.338564 
L 407.481099 -247.253202 
L 405.820763 -249.167841 
L 403.70835 -251.082479 
L 401.187573 -252.997117 
L 398.390196 -254.911755 
L 395.528376 -256.826393 
L 392.860598 -258.741031 
L 390.638693 -260.655669 
L 389.052707 -262.570308 
L 388.189086 -264.484946 
L 388.008312 -266.399584 
L 388.341763 -268.314222 
L 388.911792 -270.22886 
L 389.386878 -272.143498 
L 389.476886 -274.058136 
L 389.044212 -275.972775 
L 388.175075 -277.887413 
L 387.157239 -279.802051 
L 386.3594 -281.716689 
L 386.07208 -283.631327 
L 386.397533 -285.545965 
L 387.242003 -287.460603 
L 388.395512 -289.375242 
L 389.636316 -291.28988 
L 390.800759 -293.204518 
L 391.799964 -295.119156 
L 392.603739 -297.033794 
L 393.222452 -298.948432 
L 393.701482 -300.86307 
L 394.120404 -302.777709 
L 394.579814 -304.692347 
L 395.168607 -306.606985 
L 395.923839 -308.521623 
L 396.806469 -310.436261 
L 397.70915 -312.350899 
L 398.493605 -314.265537 
L 399.040737 -316.180176 
L 399.295075 -318.094814 
L 399.291232 -320.009452 
L 399.154509 -321.92409 
L 399.070636 -323.838728 
L 399.227945 -325.753366 
L 399.750793 -327.668005 
L 400.654307 -329.582643 
L 401.84384 -331.497281 
L 403.158158 -333.411919 
L 404.431002 -335.326557 
L 405.540073 -337.241195 
L 406.42786 -339.155833 
L 407.099325 -341.070472 
L 407.609942 -342.98511 
L 408.050591 -344.899748 
L 408.525943 -346.814386 
L 409.123418 -348.729024 
L 409.880895 -350.643662 
L 410.769993 -352.5583 
L 411.706498 -354.472939 
L 412.583248 -356.387577 
L 413.30775 -358.302215 
L 413.827649 -360.216853 
L 414.138339 -362.131491 
L 414.276982 -364.046129 
L 414.30889 -365.960767 
L 414.309174 -367.875406 
L 414.341908 -369.790044 
L 414.442425 -371.704682 
L 414.610413 -373.61932 
L 414.817479 -375.533958 
L 415.024712 -377.448596 
L 415.20034 -379.363234 
L 415.329165 -381.277873 
L 415.411993 -383.192511 
L 415.588007 -383.192511 
L 415.588007 -383.192511 
L 415.670835 -381.277873 
L 415.79966 -379.363234 
L 415.975288 -377.448596 
L 416.182521 -375.533958 
L 416.389587 -373.61932 
L 416.557575 -371.704682 
L 416.658092 -369.790044 
L 416.690826 -367.875406 
L 416.69111 -365.960767 
L 416.723018 -364.046129 
L 416.861661 -362.131491 
L 417.172351 -360.216853 
L 417.69225 -358.302215 
L 418.416752 -356.387577 
L 419.293502 -354.472939 
L 420.230007 -352.5583 
L 421.119105 -350.643662 
L 421.876582 -348.729024 
L 422.474057 -346.814386 
L 422.949409 -344.899748 
L 423.390058 -342.98511 
L 423.900675 -341.070472 
L 424.57214 -339.155833 
L 425.459927 -337.241195 
L 426.568998 -335.326557 
L 427.841842 -333.411919 
L 429.15616 -331.497281 
L 430.345693 -329.582643 
L 431.249207 -327.668005 
L 431.772055 -325.753366 
L 431.929364 -323.838728 
L 431.845491 -321.92409 
L 431.708768 -320.009452 
L 431.704925 -318.094814 
L 431.959263 -316.180176 
L 432.506395 -314.265537 
L 433.29085 -312.350899 
L 434.193531 -310.436261 
L 435.076161 -308.521623 
L 435.831393 -306.606985 
L 436.420186 -304.692347 
L 436.879596 -302.777709 
L 437.298518 -300.86307 
L 437.777548 -298.948432 
L 438.396261 -297.033794 
L 439.200036 -295.119156 
L 440.199241 -293.204518 
L 441.363684 -291.28988 
L 442.604488 -289.375242 
L 443.757997 -287.460603 
L 444.602467 -285.545965 
L 444.92792 -283.631327 
L 444.6406 -281.716689 
L 443.842761 -279.802051 
L 442.824925 -277.887413 
L 441.955788 -275.972775 
L 441.523114 -274.058136 
L 441.613122 -272.143498 
L 442.088208 -270.22886 
L 442.658237 -268.314222 
L 442.991688 -266.399584 
L 442.810914 -264.484946 
L 441.947293 -262.570308 
L 440.361307 -260.655669 
L 438.139402 -258.741031 
L 435.471624 -256.826393 
L 432.609804 -254.911755 
L 429.812427 -252.997117 
L 427.29165 -251.082479 
L 425.179237 -249.167841 
L 423.518901 -247.253202 
L 422.280268 -245.338564 
L 421.383473 -243.423926 
L 420.725262 -241.509288 
L 420.202039 -239.59465 
L 419.727662 -237.680012 
L 419.244392 -235.765373 
L 418.726526 -233.850735 
L 418.17782 -231.936097 
L 417.62423 -230.021459 
L 417.102975 -228.106821 
L 416.649645 -226.192183 
L 416.286996 -224.277545 
L 416.01965 -222.362906 
L 415.836443 -220.448268 
L 415.717964 -218.53363 
L 415.644571 -216.618992 
L 415.601073 -214.704354 
L 415.577337 -212.789716 
L 415.566477 -210.875078 
L 415.562936 -208.960439 
L 415.56178 -207.045801 
L 415.559167 -205.131163 
L 415.553132 -203.216525 
L 415.543814 -201.301887 
L 415.532852 -199.387249 
L 415.522295 -197.472611 
L 415.513668 -195.557972 
L 415.507561 -193.643334 
z
" id="m0b49e64d28" style="stroke:#5c5c5c;stroke-width:2.275;"/>
    </defs>
    <g clip-path="url(#pa752113993)">
     <use style="fill:#67c5cb;stroke:#5c5c5c;stroke-width:2.275;" x="0.0" xlink:href="#m0b49e64d28" y="576.0"/>
    </g>
   </g>
   <g id="PolyCollection_5">
    <defs>
     <path d="M 508.605295 -201.398392 
L 508.394705 -201.398392 
L 508.313755 -203.282433 
L 508.189938 -205.166474 
L 508.013694 -207.050515 
L 507.780538 -208.934556 
L 507.494349 -210.818597 
L 507.169044 -212.702638 
L 506.827291 -214.586679 
L 506.495683 -216.47072 
L 506.197063 -218.354761 
L 505.941719 -220.238802 
L 505.719642 -222.122843 
L 505.495777 -224.006884 
L 505.209554 -225.890925 
L 504.779473 -227.774966 
L 504.113075 -229.659007 
L 503.1221 -231.543048 
L 501.74165 -233.427089 
L 499.950717 -235.31113 
L 497.789796 -237.195171 
L 495.370146 -239.079213 
L 492.869149 -240.963254 
L 490.50808 -242.847295 
L 488.512949 -244.731336 
L 487.065571 -246.615377 
L 486.258286 -248.499418 
L 486.068316 -250.383459 
L 486.363443 -252.2675 
L 486.939773 -254.151541 
L 487.579325 -256.035582 
L 488.106742 -257.919623 
L 488.425482 -259.803664 
L 488.523968 -261.687705 
L 488.455573 -263.571746 
L 488.30584 -265.455787 
L 488.161632 -267.339828 
L 488.091064 -269.223869 
L 488.134949 -271.10791 
L 488.305207 -272.991951 
L 488.585716 -274.875992 
L 488.934859 -276.760033 
L 489.292739 -278.644074 
L 489.59598 -280.528115 
L 489.798492 -282.412156 
L 489.8904 -284.296197 
L 489.904745 -286.180238 
L 489.905653 -288.064279 
L 489.961346 -289.94832 
L 490.114541 -291.832361 
L 490.365144 -293.716402 
L 490.673517 -295.600443 
L 490.981033 -297.484484 
L 491.235842 -299.368525 
L 491.410884 -301.252566 
L 491.507969 -303.136607 
L 491.550377 -305.020648 
L 491.571123 -306.904689 
L 491.602735 -308.78873 
L 491.670205 -310.672771 
L 491.785901 -312.556812 
L 491.945963 -314.440853 
L 492.130162 -316.324894 
L 492.307993 -318.208935 
L 492.451246 -320.092976 
L 492.548911 -321.977017 
L 492.617405 -323.861058 
L 492.700151 -325.745099 
L 492.855293 -327.62914 
L 493.13604 -329.513181 
L 493.571727 -331.397222 
L 494.157454 -333.281264 
L 494.856431 -335.165305 
L 495.613866 -337.049346 
L 496.376724 -338.933387 
L 497.111714 -340.817428 
L 497.814868 -342.701469 
L 498.509507 -344.58551 
L 499.233797 -346.469551 
L 500.022852 -348.353592 
L 500.892116 -350.237633 
L 501.827972 -352.121674 
L 502.788563 -354.005715 
L 503.714007 -355.889756 
L 504.54213 -357.773797 
L 505.224527 -359.657838 
L 505.73831 -361.541879 
L 506.09065 -363.42592 
L 506.315362 -365.309961 
L 506.462824 -367.194002 
L 506.586252 -369.078043 
L 506.728368 -370.962084 
L 506.912377 -372.846125 
L 507.139683 -374.730166 
L 507.394292 -376.614207 
L 507.651453 -378.498248 
L 507.886928 -380.382289 
L 508.083687 -382.26633 
L 508.234556 -384.150371 
L 508.341174 -386.034412 
L 508.410849 -387.918453 
L 508.589151 -387.918453 
L 508.589151 -387.918453 
L 508.658826 -386.034412 
L 508.765444 -384.150371 
L 508.916313 -382.26633 
L 509.113072 -380.382289 
L 509.348547 -378.498248 
L 509.605708 -376.614207 
L 509.860317 -374.730166 
L 510.087623 -372.846125 
L 510.271632 -370.962084 
L 510.413748 -369.078043 
L 510.537176 -367.194002 
L 510.684638 -365.309961 
L 510.90935 -363.42592 
L 511.26169 -361.541879 
L 511.775473 -359.657838 
L 512.45787 -357.773797 
L 513.285993 -355.889756 
L 514.211437 -354.005715 
L 515.172028 -352.121674 
L 516.107884 -350.237633 
L 516.977148 -348.353592 
L 517.766203 -346.469551 
L 518.490493 -344.58551 
L 519.185132 -342.701469 
L 519.888286 -340.817428 
L 520.623276 -338.933387 
L 521.386134 -337.049346 
L 522.143569 -335.165305 
L 522.842546 -333.281264 
L 523.428273 -331.397222 
L 523.86396 -329.513181 
L 524.144707 -327.62914 
L 524.299849 -325.745099 
L 524.382595 -323.861058 
L 524.451089 -321.977017 
L 524.548754 -320.092976 
L 524.692007 -318.208935 
L 524.869838 -316.324894 
L 525.054037 -314.440853 
L 525.214099 -312.556812 
L 525.329795 -310.672771 
L 525.397265 -308.78873 
L 525.428877 -306.904689 
L 525.449623 -305.020648 
L 525.492031 -303.136607 
L 525.589116 -301.252566 
L 525.764158 -299.368525 
L 526.018967 -297.484484 
L 526.326483 -295.600443 
L 526.634856 -293.716402 
L 526.885459 -291.832361 
L 527.038654 -289.94832 
L 527.094347 -288.064279 
L 527.095255 -286.180238 
L 527.1096 -284.296197 
L 527.201508 -282.412156 
L 527.40402 -280.528115 
L 527.707261 -278.644074 
L 528.065141 -276.760033 
L 528.414284 -274.875992 
L 528.694793 -272.991951 
L 528.865051 -271.10791 
L 528.908936 -269.223869 
L 528.838368 -267.339828 
L 528.69416 -265.455787 
L 528.544427 -263.571746 
L 528.476032 -261.687705 
L 528.574518 -259.803664 
L 528.893258 -257.919623 
L 529.420675 -256.035582 
L 530.060227 -254.151541 
L 530.636557 -252.2675 
L 530.931684 -250.383459 
L 530.741714 -248.499418 
L 529.934429 -246.615377 
L 528.487051 -244.731336 
L 526.49192 -242.847295 
L 524.130851 -240.963254 
L 521.629854 -239.079213 
L 519.210204 -237.195171 
L 517.049283 -235.31113 
L 515.25835 -233.427089 
L 513.8779 -231.543048 
L 512.886925 -229.659007 
L 512.220527 -227.774966 
L 511.790446 -225.890925 
L 511.504223 -224.006884 
L 511.280358 -222.122843 
L 511.058281 -220.238802 
L 510.802937 -218.354761 
L 510.504317 -216.47072 
L 510.172709 -214.586679 
L 509.830956 -212.702638 
L 509.505651 -210.818597 
L 509.219462 -208.934556 
L 508.986306 -207.050515 
L 508.810062 -205.166474 
L 508.686245 -203.282433 
L 508.605295 -201.398392 
z
" id="ma796433b59" style="stroke:#5c5c5c;stroke-width:2.275;"/>
    </defs>
    <g clip-path="url(#pa752113993)">
     <use style="fill:#6d67cb;stroke:#5c5c5c;stroke-width:2.275;" x="0.0" xlink:href="#ma796433b59" y="576.0"/>
    </g>
   </g>
   <g id="PolyCollection_6">
    <defs>
     <path d="M 601.506933 -188.917683 
L 601.493067 -188.917683 
L 601.487798 -190.929274 
L 601.479809 -192.940864 
L 601.468329 -194.952454 
L 601.452395 -196.964045 
L 601.430496 -198.975635 
L 601.399964 -200.987226 
L 601.356247 -202.998816 
L 601.292372 -205.010407 
L 601.199028 -207.021997 
L 601.065748 -209.033588 
L 600.883325 -211.045178 
L 600.647087 -213.056768 
L 600.359865 -215.068359 
L 600.033048 -217.079949 
L 599.684356 -219.09154 
L 599.332076 -221.10313 
L 598.986913 -223.114721 
L 598.64349 -225.126311 
L 598.273523 -227.137901 
L 597.822152 -229.149492 
L 597.208877 -231.161082 
L 596.33503 -233.172673 
L 595.09994 -235.184263 
L 593.426376 -237.195854 
L 591.291921 -239.207444 
L 588.758077 -241.219034 
L 585.985519 -243.230625 
L 583.224835 -245.242215 
L 580.777869 -247.253806 
L 578.934263 -249.265396 
L 577.897828 -251.276987 
L 577.724584 -253.288577 
L 578.295419 -255.300168 
L 579.338998 -257.311758 
L 580.50439 -259.323348 
L 581.462176 -261.334939 
L 581.996949 -263.346529 
L 582.054107 -265.35812 
L 581.723686 -267.36971 
L 581.175037 -269.381301 
L 580.579977 -271.392891 
L 580.062835 -273.404481 
L 579.693242 -275.416072 
L 579.508087 -277.427662 
L 579.533974 -279.439253 
L 579.789798 -281.450843 
L 580.271079 -283.462434 
L 580.934216 -285.474024 
L 581.69752 -287.485614 
L 582.460858 -289.497205 
L 583.131749 -291.508795 
L 583.644238 -293.520386 
L 583.966442 -295.531976 
L 584.101949 -297.543567 
L 584.090409 -299.555157 
L 584.00528 -301.566748 
L 583.941393 -303.578338 
L 583.988979 -305.589928 
L 584.201517 -307.601519 
L 584.572529 -309.613109 
L 585.034362 -311.6247 
L 585.481292 -313.63629 
L 585.807849 -315.647881 
L 585.947564 -317.659471 
L 585.898498 -319.671061 
L 585.727157 -321.682652 
L 585.549263 -323.694242 
L 585.493247 -325.705833 
L 585.658962 -327.717423 
L 586.086973 -329.729014 
L 586.750126 -331.740604 
L 587.569686 -333.752194 
L 588.447715 -335.763785 
L 589.301344 -337.775375 
L 590.085817 -339.786966 
L 590.799903 -341.798556 
L 591.475253 -343.810147 
L 592.156685 -345.821737 
L 592.881872 -347.833328 
L 593.667198 -349.844918 
L 594.503031 -351.856508 
L 595.357941 -353.868099 
L 596.188749 -355.879689 
L 596.952406 -357.89128 
L 597.61647 -359.90287 
L 598.166246 -361.914461 
L 598.607523 -363.926051 
L 598.964134 -365.937641 
L 599.270303 -367.949232 
L 599.559541 -369.960822 
L 599.853905 -371.972413 
L 600.158068 -373.984003 
L 600.460634 -375.995594 
L 600.741562 -378.007184 
L 600.981611 -380.018774 
L 601.169412 -382.030365 
L 601.303791 -384.041955 
L 601.391791 -386.053546 
L 601.444601 -388.065136 
L 601.555399 -388.065136 
L 601.555399 -388.065136 
L 601.608209 -386.053546 
L 601.696209 -384.041955 
L 601.830588 -382.030365 
L 602.018389 -380.018774 
L 602.258438 -378.007184 
L 602.539366 -375.995594 
L 602.841932 -373.984003 
L 603.146095 -371.972413 
L 603.440459 -369.960822 
L 603.729697 -367.949232 
L 604.035866 -365.937641 
L 604.392477 -363.926051 
L 604.833754 -361.914461 
L 605.38353 -359.90287 
L 606.047594 -357.89128 
L 606.811251 -355.879689 
L 607.642059 -353.868099 
L 608.496969 -351.856508 
L 609.332802 -349.844918 
L 610.118128 -347.833328 
L 610.843315 -345.821737 
L 611.524747 -343.810147 
L 612.200097 -341.798556 
L 612.914183 -339.786966 
L 613.698656 -337.775375 
L 614.552285 -335.763785 
L 615.430314 -333.752194 
L 616.249874 -331.740604 
L 616.913027 -329.729014 
L 617.341038 -327.717423 
L 617.506753 -325.705833 
L 617.450737 -323.694242 
L 617.272843 -321.682652 
L 617.101502 -319.671061 
L 617.052436 -317.659471 
L 617.192151 -315.647881 
L 617.518708 -313.63629 
L 617.965638 -311.6247 
L 618.427471 -309.613109 
L 618.798483 -307.601519 
L 619.011021 -305.589928 
L 619.058607 -303.578338 
L 618.99472 -301.566748 
L 618.909591 -299.555157 
L 618.898051 -297.543567 
L 619.033558 -295.531976 
L 619.355762 -293.520386 
L 619.868251 -291.508795 
L 620.539142 -289.497205 
L 621.30248 -287.485614 
L 622.065784 -285.474024 
L 622.728921 -283.462434 
L 623.210202 -281.450843 
L 623.466026 -279.439253 
L 623.491913 -277.427662 
L 623.306758 -275.416072 
L 622.937165 -273.404481 
L 622.420023 -271.392891 
L 621.824963 -269.381301 
L 621.276314 -267.36971 
L 620.945893 -265.35812 
L 621.003051 -263.346529 
L 621.537824 -261.334939 
L 622.49561 -259.323348 
L 623.661002 -257.311758 
L 624.704581 -255.300168 
L 625.275416 -253.288577 
L 625.102172 -251.276987 
L 624.065737 -249.265396 
L 622.222131 -247.253806 
L 619.775165 -245.242215 
L 617.014481 -243.230625 
L 614.241923 -241.219034 
L 611.708079 -239.207444 
L 609.573624 -237.195854 
L 607.90006 -235.184263 
L 606.66497 -233.172673 
L 605.791123 -231.161082 
L 605.177848 -229.149492 
L 604.726477 -227.137901 
L 604.35651 -225.126311 
L 604.013087 -223.114721 
L 603.667924 -221.10313 
L 603.315644 -219.09154 
L 602.966952 -217.079949 
L 602.640135 -215.068359 
L 602.352913 -213.056768 
L 602.116675 -211.045178 
L 601.934252 -209.033588 
L 601.800972 -207.021997 
L 601.707628 -205.010407 
L 601.643753 -202.998816 
L 601.600036 -200.987226 
L 601.569504 -198.975635 
L 601.547605 -196.964045 
L 601.531671 -194.952454 
L 601.520191 -192.940864 
L 601.512202 -190.929274 
L 601.506933 -188.917683 
z
" id="med33b6e5cd" style="stroke:#5c5c5c;stroke-width:2.275;"/>
    </defs>
    <g clip-path="url(#pa752113993)">
     <use style="fill:#cb67c5;stroke:#5c5c5c;stroke-width:2.275;" x="0.0" xlink:href="#med33b6e5cd" y="576.0"/>
    </g>
   </g>
   <g id="line2d_34">
    <path clip-path="url(#pa752113993)" d="M 136.5 421.797272 
L 136.5 192.454089 
" style="fill:none;stroke:#5c5c5c;stroke-linecap:round;stroke-width:2.275;"/>
   </g>
   <g id="line2d_35">
    <path clip-path="url(#pa752113993)" d="M 136.5 366.925846 
L 136.5 280.612334 
" style="fill:none;stroke:#5c5c5c;stroke-linecap:round;stroke-width:6.824999999999999;"/>
   </g>
   <g id="line2d_36">
    <path clip-path="url(#pa752113993)" d="M 229.5 445.418985 
L 229.5 172.993466 
" style="fill:none;stroke:#5c5c5c;stroke-linecap:round;stroke-width:2.275;"/>
   </g>
   <g id="line2d_37">
    <path clip-path="url(#pa752113993)" d="M 229.5 381.840031 
L 229.5 276.579007 
" style="fill:none;stroke:#5c5c5c;stroke-linecap:round;stroke-width:6.824999999999999;"/>
   </g>
   <g id="line2d_38">
    <path clip-path="url(#pa752113993)" d="M 322.5 349.852405 
L 322.5 219.127795 
" style="fill:none;stroke:#5c5c5c;stroke-linecap:round;stroke-width:2.275;"/>
   </g>
   <g id="line2d_39">
    <path clip-path="url(#pa752113993)" d="M 322.5 305.108024 
L 322.5 268.5425 
" style="fill:none;stroke:#5c5c5c;stroke-linecap:round;stroke-width:6.824999999999999;"/>
   </g>
   <g id="line2d_40">
    <path clip-path="url(#pa752113993)" d="M 415.5 356.138563 
L 415.5 204.717116 
" style="fill:none;stroke:#5c5c5c;stroke-linecap:round;stroke-width:2.275;"/>
   </g>
   <g id="line2d_41">
    <path clip-path="url(#pa752113993)" d="M 415.5 306.222563 
L 415.5 264.336735 
" style="fill:none;stroke:#5c5c5c;stroke-linecap:round;stroke-width:6.824999999999999;"/>
   </g>
   <g id="line2d_42">
    <path clip-path="url(#pa752113993)" d="M 508.5 360.044525 
L 508.5 202.63863 
" style="fill:none;stroke:#5c5c5c;stroke-linecap:round;stroke-width:2.275;"/>
   </g>
   <g id="line2d_43">
    <path clip-path="url(#pa752113993)" d="M 508.5 314.572648 
L 508.5 260.558432 
" style="fill:none;stroke:#5c5c5c;stroke-linecap:round;stroke-width:6.824999999999999;"/>
   </g>
   <g id="line2d_44">
    <path clip-path="url(#pa752113993)" d="M 601.5 372.830191 
L 601.5 202.18699 
" style="fill:none;stroke:#5c5c5c;stroke-linecap:round;stroke-width:2.275;"/>
   </g>
   <g id="line2d_45">
    <path clip-path="url(#pa752113993)" d="M 601.5 318.628772 
L 601.5 260.79724 
" style="fill:none;stroke:#5c5c5c;stroke-linecap:round;stroke-width:6.824999999999999;"/>
   </g>
   <g id="patch_3">
    <path d="M 90 57.6 
L 648 57.6 
" style="fill:none;"/>
   </g>
   <g id="patch_4">
    <path d="M 90 504 
L 90 57.6 
" style="fill:none;"/>
   </g>
   <g id="patch_5">
    <path d="M 648 504 
L 648 57.6 
" style="fill:none;"/>
   </g>
   <g id="patch_6">
    <path d="M 90 504 
L 648 504 
" style="fill:none;"/>
   </g>
   <g id="PathCollection_1">
    <defs>
     <path d="M 0 2.275 
C 0.603337 2.275 1.182044 2.035292 1.608668 1.608668 
C 2.035292 1.182044 2.275 0.603337 2.275 0 
C 2.275 -0.603337 2.035292 -1.182044 1.608668 -1.608668 
C 1.182044 -2.035292 0.603337 -2.275 0 -2.275 
C -0.603337 -2.275 -1.182044 -2.035292 -1.608668 -1.608668 
C -2.035292 -1.182044 -2.275 -0.603337 -2.275 0 
C -2.275 0.603337 -2.035292 1.182044 -1.608668 1.608668 
C -1.182044 2.035292 -0.603337 2.275 0 2.275 
z
" id="m34eca999e2" style="stroke:#5c5c5c;stroke-width:0.39;"/>
    </defs>
    <g clip-path="url(#pa752113993)">
     <use style="fill:#ffffff;stroke:#5c5c5c;stroke-width:0.39;" x="136.5" xlink:href="#m34eca999e2" y="328.019946265"/>
    </g>
   </g>
   <g id="PathCollection_2">
    <g clip-path="url(#pa752113993)">
     <use style="fill:#ffffff;stroke:#5c5c5c;stroke-width:0.39;" x="229.5" xlink:href="#m34eca999e2" y="325.614514409"/>
    </g>
   </g>
   <g id="PathCollection_3">
    <g clip-path="url(#pa752113993)">
     <use style="fill:#ffffff;stroke:#5c5c5c;stroke-width:0.39;" x="322.5" xlink:href="#m34eca999e2" y="289.02903675"/>
    </g>
   </g>
   <g id="PathCollection_4">
    <g clip-path="url(#pa752113993)">
     <use style="fill:#ffffff;stroke:#5c5c5c;stroke-width:0.39;" x="415.5" xlink:href="#m34eca999e2" y="288.122115295"/>
    </g>
   </g>
   <g id="PathCollection_5">
    <g clip-path="url(#pa752113993)">
     <use style="fill:#ffffff;stroke:#5c5c5c;stroke-width:0.39;" x="508.5" xlink:href="#m34eca999e2" y="287.133408458"/>
    </g>
   </g>
   <g id="PathCollection_6">
    <g clip-path="url(#pa752113993)">
     <use style="fill:#ffffff;stroke:#5c5c5c;stroke-width:0.39;" x="601.5" xlink:href="#m34eca999e2" y="290.664113375"/>
    </g>
   </g>
   <g id="text_15">
    <!-- Price taker scenario -->
    <defs>
     <path d="M 19.671875 64.796875 
L 19.671875 37.40625 
L 32.078125 37.40625 
Q 38.96875 37.40625 42.71875 40.96875 
Q 46.484375 44.53125 46.484375 51.125 
Q 46.484375 57.671875 42.71875 61.234375 
Q 38.96875 64.796875 32.078125 64.796875 
z
M 9.8125 72.90625 
L 32.078125 72.90625 
Q 44.34375 72.90625 50.609375 67.359375 
Q 56.890625 61.8125 56.890625 51.125 
Q 56.890625 40.328125 50.609375 34.8125 
Q 44.34375 29.296875 32.078125 29.296875 
L 19.671875 29.296875 
L 19.671875 0 
L 9.8125 0 
z
" id="BitstreamVeraSans-Roman-50"/>
    </defs>
    <g style="fill:#262626;" transform="translate(291.50090625 52.6)scale(0.15600000000000003 -0.15600000000000003)">
     <use xlink:href="#BitstreamVeraSans-Roman-50"/>
     <use x="60.287109375" xlink:href="#BitstreamVeraSans-Roman-72"/>
     <use x="101.400390625" xlink:href="#BitstreamVeraSans-Roman-69"/>
     <use x="129.18359375" xlink:href="#BitstreamVeraSans-Roman-63"/>
     <use x="184.1640625" xlink:href="#BitstreamVeraSans-Roman-65"/>
     <use x="245.6875" xlink:href="#BitstreamVeraSans-Roman-20"/>
     <use x="277.474609375" xlink:href="#BitstreamVeraSans-Roman-74"/>
     <use x="316.68359375" xlink:href="#BitstreamVeraSans-Roman-61"/>
     <use x="377.962890625" xlink:href="#BitstreamVeraSans-Roman-6b"/>
     <use x="435.826171875" xlink:href="#BitstreamVeraSans-Roman-65"/>
     <use x="497.349609375" xlink:href="#BitstreamVeraSans-Roman-72"/>
     <use x="538.462890625" xlink:href="#BitstreamVeraSans-Roman-20"/>
     <use x="570.25" xlink:href="#BitstreamVeraSans-Roman-73"/>
     <use x="622.349609375" xlink:href="#BitstreamVeraSans-Roman-63"/>
     <use x="677.330078125" xlink:href="#BitstreamVeraSans-Roman-65"/>
     <use x="738.853515625" xlink:href="#BitstreamVeraSans-Roman-6e"/>
     <use x="802.232421875" xlink:href="#BitstreamVeraSans-Roman-61"/>
     <use x="863.51171875" xlink:href="#BitstreamVeraSans-Roman-72"/>
     <use x="904.625" xlink:href="#BitstreamVeraSans-Roman-69"/>
     <use x="932.408203125" xlink:href="#BitstreamVeraSans-Roman-6f"/>
    </g>
   </g>
  </g>
 </g>
 <defs>
  <clipPath id="pa752113993">
   <rect height="446.4" width="558.0" x="90.0" y="57.6"/>
  </clipPath>
 </defs>
</svg>
