<?xml version="1.0" encoding="UTF-8" standalone="no"?>
<!-- Created with matplotlib (http://matplotlib.org/) -->

<svg
   xmlns:dc="http://purl.org/dc/elements/1.1/"
   xmlns:cc="http://creativecommons.org/ns#"
   xmlns:rdf="http://www.w3.org/1999/02/22-rdf-syntax-ns#"
   xmlns:svg="http://www.w3.org/2000/svg"
   xmlns="http://www.w3.org/2000/svg"
   xmlns:xlink="http://www.w3.org/1999/xlink"
   xmlns:sodipodi="http://sodipodi.sourceforge.net/DTD/sodipodi-0.dtd"
   xmlns:inkscape="http://www.inkscape.org/namespaces/inkscape"
   height="345pt"
   version="1.1"
   viewBox="0 0 460 345"
   width="460pt"
   id="svg551"
   sodipodi:docname="nyc2014.svg"
   inkscape:version="0.92.2 (5c3e80d, 2017-08-06)">
  <metadata
     id="metadata555">
    <rdf:RDF>
      <cc:Work
         rdf:about="">
        <dc:format>image/svg+xml</dc:format>
        <dc:type
           rdf:resource="http://purl.org/dc/dcmitype/StillImage" />
        <dc:title></dc:title>
      </cc:Work>
    </rdf:RDF>
  </metadata>
  <sodipodi:namedview
     pagecolor="#ffffff"
     bordercolor="#666666"
     borderopacity="1"
     objecttolerance="10"
     gridtolerance="10"
     guidetolerance="10"
     inkscape:pageopacity="0"
     inkscape:pageshadow="2"
     inkscape:window-width="3840"
     inkscape:window-height="1973"
     id="namedview553"
     showgrid="false"
     inkscape:zoom="3.3688149"
     inkscape:cx="158.65834"
     inkscape:cy="229.05825"
     inkscape:window-x="-18"
     inkscape:window-y="-18"
     inkscape:window-maximized="1"
     inkscape:current-layer="matplotlib.axis_1" />
  <defs
     id="defs4">
    <style
       type="text/css"
       id="style2">
*{stroke-linecap:butt;stroke-linejoin:round;}
  </style>
  </defs>
  <defs
     id="defs549">
    <clipPath
       id="p6addc8cfe1">
      <rect
         height="266.112"
         width="357.12"
         x="57.6"
         y="41.472"
         id="rect546" />
    </clipPath>
  </defs>
  <g
     id="g5371">
    <g
       id="figure_1">
      <g
         id="patch_1">
        <path
           id="path6"
           style="fill:#ffffff;"
           d="M 0 345.6  L 460.8 345.6  L 460.8 0  L 0 0  z " />
      </g>
      <g
         id="axes_1">
        <g
           id="patch_2">
          <path
             id="path9"
             style="fill:#eaeaf2;"
             d="M 57.6 307.584  L 414.72 307.584  L 414.72 41.472  L 57.6 41.472  z " />
        </g>
        <g
           id="matplotlib.axis_1"
           transform="translate(0,-1.5)"
           style="stroke-linecap:butt;stroke-linejoin:round">
          <g
             id="xtick_1"
             style="stroke-linecap:butt;stroke-linejoin:round">
            <g
               id="line2d_1"
               style="stroke-linecap:butt;stroke-linejoin:round" />
            <g
               id="text_1"
               style="stroke-linecap:butt;stroke-linejoin:round">
              <!-- −1000 -->
              <defs
                 id="defs16">
                <path
                   id="ArialMT-2212"
                   d="M 52.828125,31.203125 H 5.5625 v 8.203125 h 47.265625 z"
                   inkscape:connector-curvature="0"
                   style="stroke-linecap:butt;stroke-linejoin:round" />
                <path
                   id="ArialMT-31"
                   d="m 37.25,0 h -8.78125 v 56 q -3.171875,-3.015625 -8.328125,-6.046875 -5.15625,-3.03125 -9.25,-4.546875 v 8.5 q 7.375,3.46875 12.890625,8.390625 5.515625,4.9375 7.8125,9.578125 H 37.25 Z"
                   inkscape:connector-curvature="0"
                   style="stroke-linecap:butt;stroke-linejoin:round" />
                <path
                   id="ArialMT-30"
                   d="m 4.15625,35.296875 q 0,12.703125 2.609375,20.4375 2.609375,7.75 7.75,11.9375 5.15625,4.203125 12.96875,4.203125 5.765625,0 10.109375,-2.328125 4.34375,-2.3125 7.171875,-6.6875 Q 47.609375,58.5 49.21875,52.21875 q 1.609375,-6.265625 1.609375,-16.921875 0,-12.59375 -2.59375,-20.328125 Q 45.65625,7.234375 40.5,3 35.359375,-1.21875 27.484375,-1.21875 q -10.34375,0 -16.25,7.421875 -7.078125,8.9375 -7.078125,29.09375 z m 9.03125,0 q 0,-17.625 4.125,-23.46875 Q 21.4375,6 27.484375,6 q 6.0625,0 10.1875,5.859375 4.125,5.859375 4.125,23.4375 0,17.6875 -4.125,23.484375 -4.125,5.8125 -10.28125,5.8125 -6.046875,0 -9.671875,-5.125 Q 13.1875,52.9375 13.1875,35.296875 Z"
                   inkscape:connector-curvature="0"
                   style="stroke-linecap:butt;stroke-linejoin:round" />
              </defs>
              <g
                 id="g28"
                 transform="matrix(0.13,0,0,-0.13,42.77553,325.98916)"
                 style="fill:#262626;stroke-linecap:butt;stroke-linejoin:round">
                <use
                   id="use18"
                   xlink:href="#ArialMT-2212"
                   style="stroke-linecap:butt;stroke-linejoin:round"
                   x="0"
                   y="0"
                   width="100%"
                   height="100%" />
                <use
                   id="use20"
                   xlink:href="#ArialMT-31"
                   x="58.398438"
                   style="stroke-linecap:butt;stroke-linejoin:round"
                   y="0"
                   width="100%"
                   height="100%" />
                <use
                   id="use22"
                   xlink:href="#ArialMT-30"
                   x="114.01367"
                   style="stroke-linecap:butt;stroke-linejoin:round"
                   y="0"
                   width="100%"
                   height="100%" />
                <use
                   id="use24"
                   xlink:href="#ArialMT-30"
                   x="169.62891"
                   style="stroke-linecap:butt;stroke-linejoin:round"
                   y="0"
                   width="100%"
                   height="100%" />
                <use
                   id="use26"
                   xlink:href="#ArialMT-30"
                   x="225.24414"
                   style="stroke-linecap:butt;stroke-linejoin:round"
                   y="0"
                   width="100%"
                   height="100%" />
              </g>
            </g>
          </g>
          <g
             id="xtick_2"
             style="stroke-linecap:butt;stroke-linejoin:round">
            <g
               id="line2d_2"
               style="stroke-linecap:butt;stroke-linejoin:round" />
            <g
               id="text_2"
               style="stroke-linecap:butt;stroke-linejoin:round">
              <!-- −800 -->
              <defs
                 id="defs34">
                <path
                   id="ArialMT-38"
                   d="m 17.671875,38.8125 q -5.46875,2.015625 -8.109375,5.71875 -2.625,3.71875 -2.625,8.890625 0,7.8125 5.609375,13.125 5.625,5.328125 14.9375,5.328125 9.375,0 15.09375,-5.453125 5.71875,-5.4375 5.71875,-13.25 0,-4.984375 -2.625,-8.671875 Q 43.0625,40.828125 37.75,38.8125 q 6.59375,-2.140625 10.03125,-6.9375 3.4375,-4.78125 3.4375,-11.421875 0,-9.171875 -6.5,-15.421875 -6.484375,-6.25 -17.078125,-6.25 -10.59375,0 -17.09375,6.265625 -6.5,6.28125 -6.5,15.65625 0,6.984375 3.546875,11.6875 3.546875,4.71875 10.078125,6.421875 z m -1.75,14.90625 q 0,-5.078125 3.265625,-8.3125 3.28125,-3.21875 8.5,-3.21875 5.078125,0 8.328125,3.1875 3.25,3.203125 3.25,7.84375 0,4.84375 -3.359375,8.140625 -3.34375,3.296875 -8.3125,3.296875 -5.03125,0 -8.359375,-3.234375 -3.3125,-3.21875 -3.3125,-7.703125 z M 13.09375,20.65625 q 0,-3.765625 1.78125,-7.28125 Q 16.65625,9.859375 20.171875,7.921875 23.6875,6 27.734375,6 34.03125,6 38.125,10.046875 q 4.109375,4.0625 4.109375,10.3125 0,6.34375 -4.21875,10.5 -4.21875,4.15625 -10.578125,4.15625 -6.203125,0 -10.28125,-4.109375 -4.0625,-4.09375 -4.0625,-10.25 z"
                   inkscape:connector-curvature="0"
                   style="stroke-linecap:butt;stroke-linejoin:round" />
              </defs>
              <g
                 id="g44"
                 transform="matrix(0.13,0,0,-0.13,112.04323,325.98916)"
                 style="fill:#262626;stroke-linecap:butt;stroke-linejoin:round">
                <use
                   id="use36"
                   xlink:href="#ArialMT-2212"
                   style="stroke-linecap:butt;stroke-linejoin:round"
                   x="0"
                   y="0"
                   width="100%"
                   height="100%" />
                <use
                   id="use38"
                   xlink:href="#ArialMT-38"
                   x="58.398438"
                   style="stroke-linecap:butt;stroke-linejoin:round"
                   y="0"
                   width="100%"
                   height="100%" />
                <use
                   id="use40"
                   xlink:href="#ArialMT-30"
                   x="114.01367"
                   style="stroke-linecap:butt;stroke-linejoin:round"
                   y="0"
                   width="100%"
                   height="100%" />
                <use
                   id="use42"
                   xlink:href="#ArialMT-30"
                   x="169.62891"
                   style="stroke-linecap:butt;stroke-linejoin:round"
                   y="0"
                   width="100%"
                   height="100%" />
              </g>
            </g>
          </g>
          <g
             id="xtick_3"
             style="stroke-linecap:butt;stroke-linejoin:round">
            <g
               id="line2d_3"
               style="stroke-linecap:butt;stroke-linejoin:round" />
            <g
               id="text_3"
               style="stroke-linecap:butt;stroke-linejoin:round">
              <!-- −600 -->
              <defs
                 id="defs50">
                <path
                   id="ArialMT-36"
                   d="M 49.75,54.046875 41.015625,53.375 q -1.171875,5.171875 -3.3125,7.515625 -3.578125,3.765625 -8.796875,3.765625 -4.203125,0 -7.375,-2.34375 Q 17.390625,59.28125 14.984375,53.46875 12.59375,47.65625 12.5,36.921875 15.671875,41.75 20.265625,44.09375 q 4.59375,2.34375 9.625,2.34375 8.78125,0 14.953125,-6.46875 Q 51.03125,33.5 51.03125,23.25 51.03125,16.5 48.125,10.71875 45.21875,4.9375 40.140625,1.859375 35.0625,-1.21875 28.609375,-1.21875 17.625,-1.21875 10.6875,6.859375 3.765625,14.9375 3.765625,33.5 q 0,20.75 7.65625,30.171875 6.6875,8.203125 18.015625,8.203125 8.453125,0 13.84375,-4.734375 Q 48.6875,62.40625 49.75,54.046875 Z M 13.875,23.1875 q 0,-4.53125 1.921875,-8.6875 Q 17.71875,10.359375 21.1875,8.171875 24.65625,6 28.46875,6 q 5.5625,0 9.5625,4.484375 4.015625,4.5 4.015625,12.21875 0,7.421875 -3.96875,11.6875 -3.953125,4.28125 -9.953125,4.28125 -5.953125,0 -10.109375,-4.28125 Q 13.875,30.125 13.875,23.1875 Z"
                   inkscape:connector-curvature="0"
                   style="stroke-linecap:butt;stroke-linejoin:round" />
              </defs>
              <g
                 id="g60"
                 transform="matrix(0.13,0,0,-0.13,177.69633,325.98916)"
                 style="fill:#262626;stroke-linecap:butt;stroke-linejoin:round">
                <use
                   id="use52"
                   xlink:href="#ArialMT-2212"
                   style="stroke-linecap:butt;stroke-linejoin:round"
                   x="0"
                   y="0"
                   width="100%"
                   height="100%" />
                <use
                   id="use54"
                   xlink:href="#ArialMT-36"
                   x="58.398438"
                   style="stroke-linecap:butt;stroke-linejoin:round"
                   y="0"
                   width="100%"
                   height="100%" />
                <use
                   id="use56"
                   xlink:href="#ArialMT-30"
                   x="114.01367"
                   style="stroke-linecap:butt;stroke-linejoin:round"
                   y="0"
                   width="100%"
                   height="100%" />
                <use
                   id="use58"
                   xlink:href="#ArialMT-30"
                   x="169.62891"
                   style="stroke-linecap:butt;stroke-linejoin:round"
                   y="0"
                   width="100%"
                   height="100%" />
              </g>
            </g>
          </g>
          <g
             id="xtick_4"
             style="stroke-linecap:butt;stroke-linejoin:round">
            <g
               id="line2d_4"
               style="stroke-linecap:butt;stroke-linejoin:round" />
            <g
               id="text_4"
               style="stroke-linecap:butt;stroke-linejoin:round">
              <!-- −400 -->
              <defs
                 id="defs66">
                <path
                   id="ArialMT-34"
                   d="m 32.328125,0 v 17.140625 h -31.0625 v 8.0625 l 32.671875,46.375 h 7.171875 v -46.375 h 9.671875 v -8.0625 H 41.109375 V 0 Z m 0,25.203125 V 57.46875 L 9.90625,25.203125 Z"
                   inkscape:connector-curvature="0"
                   style="stroke-linecap:butt;stroke-linejoin:round" />
              </defs>
              <g
                 id="g76"
                 transform="matrix(0.13,0,0,-0.13,243.34942,325.98916)"
                 style="fill:#262626;stroke-linecap:butt;stroke-linejoin:round">
                <use
                   id="use68"
                   xlink:href="#ArialMT-2212"
                   style="stroke-linecap:butt;stroke-linejoin:round"
                   x="0"
                   y="0"
                   width="100%"
                   height="100%" />
                <use
                   id="use70"
                   xlink:href="#ArialMT-34"
                   x="58.398438"
                   style="stroke-linecap:butt;stroke-linejoin:round"
                   y="0"
                   width="100%"
                   height="100%" />
                <use
                   id="use72"
                   xlink:href="#ArialMT-30"
                   x="114.01367"
                   style="stroke-linecap:butt;stroke-linejoin:round"
                   y="0"
                   width="100%"
                   height="100%" />
                <use
                   id="use74"
                   xlink:href="#ArialMT-30"
                   x="169.62891"
                   style="stroke-linecap:butt;stroke-linejoin:round"
                   y="0"
                   width="100%"
                   height="100%" />
              </g>
            </g>
          </g>
          <g
             id="xtick_5"
             style="stroke-linecap:butt;stroke-linejoin:round">
            <g
               id="line2d_5"
               style="stroke-linecap:butt;stroke-linejoin:round" />
            <g
               id="text_5"
               style="stroke-linecap:butt;stroke-linejoin:round">
              <!-- −200 -->
              <defs
                 id="defs82">
                <path
                   id="ArialMT-32"
                   d="M 50.34375,8.453125 V 0 H 3.03125 Q 2.9375,3.171875 4.046875,6.109375 5.859375,10.9375 9.828125,15.625 13.8125,20.3125 21.34375,26.46875 q 11.671875,9.5625 15.765625,15.15625 4.109375,5.59375 4.109375,10.578125 0,5.21875 -3.75,8.796875 -3.734375,3.59375 -9.734375,3.59375 -6.34375,0 -10.15625,-3.8125 Q 13.765625,56.984375 13.71875,50.25 L 4.6875,51.171875 q 0.921875,10.109375 6.96875,15.40625 6.0625,5.296875 16.28125,5.296875 10.296875,0 16.296875,-5.71875 Q 50.25,60.453125 50.25,52 50.25,47.703125 48.484375,43.546875 46.734375,39.40625 42.65625,34.8125 38.578125,30.21875 29.109375,22.21875 21.1875,15.578125 18.9375,13.203125 q -2.234375,-2.359375 -3.703125,-4.75 z"
                   inkscape:connector-curvature="0"
                   style="stroke-linecap:butt;stroke-linejoin:round" />
              </defs>
              <g
                 id="g92"
                 transform="matrix(0.13,0,0,-0.13,309.00251,325.98916)"
                 style="fill:#262626;stroke-linecap:butt;stroke-linejoin:round">
                <use
                   id="use84"
                   xlink:href="#ArialMT-2212"
                   style="stroke-linecap:butt;stroke-linejoin:round"
                   x="0"
                   y="0"
                   width="100%"
                   height="100%" />
                <use
                   id="use86"
                   xlink:href="#ArialMT-32"
                   x="58.398438"
                   style="stroke-linecap:butt;stroke-linejoin:round"
                   y="0"
                   width="100%"
                   height="100%" />
                <use
                   id="use88"
                   xlink:href="#ArialMT-30"
                   x="114.01367"
                   style="stroke-linecap:butt;stroke-linejoin:round"
                   y="0"
                   width="100%"
                   height="100%" />
                <use
                   id="use90"
                   xlink:href="#ArialMT-30"
                   x="169.62891"
                   style="stroke-linecap:butt;stroke-linejoin:round"
                   y="0"
                   width="100%"
                   height="100%" />
              </g>
            </g>
          </g>
          <g
             id="xtick_6"
             style="stroke-linecap:butt;stroke-linejoin:round">
            <g
               id="line2d_6"
               style="stroke-linecap:butt;stroke-linejoin:round" />
            <g
               id="text_6"
               style="stroke-linecap:butt;stroke-linejoin:round">
              <!-- 0 -->
              <g
                 id="g99"
                 transform="matrix(0.13,0,0,-0.13,385.68123,325.98916)"
                 style="fill:#262626;stroke-linecap:butt;stroke-linejoin:round">
                <use
                   id="use97"
                   xlink:href="#ArialMT-30"
                   style="stroke-linecap:butt;stroke-linejoin:round"
                   x="0"
                   y="0"
                   width="100%"
                   height="100%" />
              </g>
            </g>
          </g>
          <text
             xml:space="preserve"
             style="font-style:normal;font-weight:normal;font-size:30px;line-height:1.25;font-family:sans-serif;letter-spacing:0px;word-spacing:0px;fill:#000000;fill-opacity:1;stroke:none;stroke-width:0.75;stroke-linecap:butt;stroke-linejoin:round"
             x="152.78941"
             y="343.14954"
             id="text390"><tspan
               sodipodi:role="line"
               id="tspan388"
               style="font-size:14.00000023px;stroke-width:0.75;stroke-linecap:butt;stroke-linejoin:round;-inkscape-font-specification:'sans-serif Italic';font-family:sans-serif;font-weight:normal;font-style:italic;font-stretch:normal;font-variant:normal"
               x="152.78941"
               y="343.14954">Annual Savings from V2G($)</tspan></text>
        </g>
        <g
           id="matplotlib.axis_2">
          <g
             id="ytick_1">
            <g
               id="line2d_7" />
            <g
               id="text_8">
              <!-- 0 -->
              <g
                 id="g202"
                 transform="translate(41.270781 312.236578)scale(0.13 -0.13)"
                 style="fill:#262626;">
                <use
                   id="use200"
                   xlink:href="#ArialMT-30" />
              </g>
            </g>
          </g>
          <g
             id="ytick_2">
            <g
               id="line2d_8" />
            <g
               id="text_9">
              <!-- 100 -->
              <g
                 id="g213"
                 transform="translate(26.812344 263.870166)scale(0.13 -0.13)"
                 style="fill:#262626;">
                <use
                   id="use207"
                   xlink:href="#ArialMT-31" />
                <use
                   id="use209"
                   xlink:href="#ArialMT-30"
                   x="55.615234" />
                <use
                   id="use211"
                   xlink:href="#ArialMT-30"
                   x="111.230469" />
              </g>
            </g>
          </g>
          <g
             id="ytick_3">
            <g
               id="line2d_9" />
            <g
               id="text_10">
              <!-- 200 -->
              <g
                 id="g224"
                 transform="translate(26.812344 215.503754)scale(0.13 -0.13)"
                 style="fill:#262626;">
                <use
                   id="use218"
                   xlink:href="#ArialMT-32" />
                <use
                   id="use220"
                   xlink:href="#ArialMT-30"
                   x="55.615234" />
                <use
                   id="use222"
                   xlink:href="#ArialMT-30"
                   x="111.230469" />
              </g>
            </g>
          </g>
          <g
             id="ytick_4">
            <g
               id="line2d_10" />
            <g
               id="text_11">
              <!-- 300 -->
              <defs
                 id="defs230">
                <path
                   id="ArialMT-33"
                   d="M 4.203125 18.890625  L 12.984375 20.0625  Q 14.5 12.59375 18.140625 9.296875  Q 21.78125 6 27 6  Q 33.203125 6 37.46875 10.296875  Q 41.75 14.59375 41.75 20.953125  Q 41.75 27 37.796875 30.921875  Q 33.84375 34.859375 27.734375 34.859375  Q 25.25 34.859375 21.53125 33.890625  L 22.515625 41.609375  Q 23.390625 41.5 23.921875 41.5  Q 29.546875 41.5 34.03125 44.421875  Q 38.53125 47.359375 38.53125 53.46875  Q 38.53125 58.296875 35.25 61.46875  Q 31.984375 64.65625 26.8125 64.65625  Q 21.6875 64.65625 18.265625 61.421875  Q 14.84375 58.203125 13.875 51.765625  L 5.078125 53.328125  Q 6.6875 62.15625 12.390625 67.015625  Q 18.109375 71.875 26.609375 71.875  Q 32.46875 71.875 37.390625 69.359375  Q 42.328125 66.84375 44.9375 62.5  Q 47.5625 58.15625 47.5625 53.265625  Q 47.5625 48.640625 45.0625 44.828125  Q 42.578125 41.015625 37.703125 38.765625  Q 44.046875 37.3125 47.5625 32.6875  Q 51.078125 28.078125 51.078125 21.140625  Q 51.078125 11.765625 44.234375 5.25  Q 37.40625 -1.265625 26.953125 -1.265625  Q 17.53125 -1.265625 11.296875 4.34375  Q 5.078125 9.96875 4.203125 18.890625  z " />
              </defs>
              <g
                 id="g238"
                 transform="translate(26.812344 167.137341)scale(0.13 -0.13)"
                 style="fill:#262626;">
                <use
                   id="use232"
                   xlink:href="#ArialMT-33" />
                <use
                   id="use234"
                   xlink:href="#ArialMT-30"
                   x="55.615234" />
                <use
                   id="use236"
                   xlink:href="#ArialMT-30"
                   x="111.230469" />
              </g>
            </g>
          </g>
          <g
             id="ytick_5">
            <g
               id="line2d_11" />
            <g
               id="text_12">
              <!-- 400 -->
              <g
                 id="g249"
                 transform="translate(26.812344 118.770929)scale(0.13 -0.13)"
                 style="fill:#262626;">
                <use
                   id="use243"
                   xlink:href="#ArialMT-34" />
                <use
                   id="use245"
                   xlink:href="#ArialMT-30"
                   x="55.615234" />
                <use
                   id="use247"
                   xlink:href="#ArialMT-30"
                   x="111.230469" />
              </g>
            </g>
          </g>
          <g
             id="ytick_6">
            <g
               id="line2d_12" />
            <g
               id="text_13">
              <!-- 500 -->
              <defs
                 id="defs255">
                <path
                   id="ArialMT-35"
                   d="M 4.15625 18.75  L 13.375 19.53125  Q 14.40625 12.796875 18.140625 9.390625  Q 21.875 6 27.15625 6  Q 33.5 6 37.890625 10.78125  Q 42.28125 15.578125 42.28125 23.484375  Q 42.28125 31 38.0625 35.34375  Q 33.84375 39.703125 27 39.703125  Q 22.75 39.703125 19.328125 37.765625  Q 15.921875 35.84375 13.96875 32.765625  L 5.71875 33.84375  L 12.640625 70.609375  L 48.25 70.609375  L 48.25 62.203125  L 19.671875 62.203125  L 15.828125 42.96875  Q 22.265625 47.46875 29.34375 47.46875  Q 38.71875 47.46875 45.15625 40.96875  Q 51.609375 34.46875 51.609375 24.265625  Q 51.609375 14.546875 45.953125 7.46875  Q 39.0625 -1.21875 27.15625 -1.21875  Q 17.390625 -1.21875 11.203125 4.25  Q 5.03125 9.71875 4.15625 18.75  z " />
              </defs>
              <g
                 id="g263"
                 transform="translate(26.812344 70.404517)scale(0.13 -0.13)"
                 style="fill:#262626;">
                <use
                   id="use257"
                   xlink:href="#ArialMT-35" />
                <use
                   id="use259"
                   xlink:href="#ArialMT-30"
                   x="55.615234" />
                <use
                   id="use261"
                   xlink:href="#ArialMT-30"
                   x="111.230469" />
              </g>
            </g>
          </g>
          <g
             id="text_14">
            <!-- $Number\ of\ EV\ Users\ $ -->
            <defs
               id="defs271">
              <path
                 id="DejaVuSans-Oblique-4e"
                 d="M 16.890625 72.90625  L 30.171875 72.90625  L 50.296875 10.40625  L 62.5 72.90625  L 72.125 72.90625  L 57.90625 0  L 44.578125 0  L 24.515625 62.890625  L 12.3125 0  L 2.6875 0  z " />
              <path
                 id="DejaVuSans-Oblique-62"
                 d="M 49.515625 33.40625  Q 49.515625 40.484375 46.265625 44.484375  Q 43.015625 48.484375 37.3125 48.484375  Q 33.15625 48.484375 29.515625 46.453125  Q 25.875 44.4375 23.1875 40.578125  Q 20.359375 36.53125 18.71875 31.171875  Q 17.09375 25.828125 17.09375 20.515625  Q 17.09375 13.765625 20.28125 9.9375  Q 23.484375 6.109375 29.109375 6.109375  Q 33.34375 6.109375 36.953125 8.078125  Q 40.578125 10.0625 43.3125 13.921875  Q 46.09375 17.921875 47.796875 23.234375  Q 49.515625 28.5625 49.515625 33.40625  z M 21.578125 46.390625  Q 24.90625 50.875 29.90625 53.4375  Q 34.90625 56 40.375 56  Q 48.78125 56 53.734375 50.328125  Q 58.6875 44.671875 58.6875 35.015625  Q 58.6875 27.09375 55.78125 19.671875  Q 52.875 12.25 47.515625 6.5  Q 44 2.6875 39.40625 0.625  Q 34.8125 -1.421875 29.78125 -1.421875  Q 24.46875 -1.421875 20.5625 1.015625  Q 16.65625 3.46875 14.203125 8.296875  L 12.59375 0  L 3.609375 0  L 18.40625 75.984375  L 27.390625 75.984375  z " />
              <path
                 id="DejaVuSans-Oblique-45"
                 d="M 16.890625 72.90625  L 62.984375 72.90625  L 61.375 64.59375  L 25.09375 64.59375  L 20.90625 43.015625  L 55.71875 43.015625  L 54.109375 34.71875  L 19.28125 34.71875  L 14.203125 8.296875  L 51.3125 8.296875  L 49.703125 0  L 2.6875 0  z " />
              <path
                 id="DejaVuSans-Oblique-55"
                 d="M 15.484375 72.90625  L 25.390625 72.90625  L 16.796875 28.609375  Q 16.265625 25.640625 16.046875 23.703125  Q 15.828125 21.78125 15.828125 20.3125  Q 15.828125 13.578125 19.578125 10.078125  Q 23.34375 6.59375 30.609375 6.59375  Q 40.046875 6.59375 45.28125 11.765625  Q 50.53125 16.9375 52.78125 28.609375  L 61.375 72.90625  L 71.296875 72.90625  L 62.5 27.390625  Q 59.625 12.640625 51.5625 5.609375  Q 43.5 -1.421875 29.5 -1.421875  Q 18.5625 -1.421875 12.1875 4.078125  Q 5.8125 9.578125 5.8125 19  Q 5.8125 20.703125 6.046875 22.828125  Q 6.296875 24.953125 6.78125 27.390625  z " />
            </defs>
            <g
               id="g303"
               transform="translate(19.970219 248.888)rotate(-90)scale(0.143 -0.143)"
               style="fill:#262626;">
              <use
                 id="use273"
                 xlink:href="#DejaVuSans-Oblique-4e"
                 transform="translate(0 0.015625)" />
              <path
                 style="stroke-linecap:butt;stroke-linejoin:round"
                 inkscape:connector-curvature="0"
                 d="m 81.492188,21.703125 6.40625,33 h 9.03125 L 90.523438,22.03125 q -0.484375,-2.390625 -0.703125,-4.09375 -0.21875,-1.703125 -0.21875,-2.828125 0,-4.15625 2.53125,-6.4375 2.546875,-2.265625 7.1875,-2.265625 7.218747,0 12.484377,4.875 5.28125,4.890625 6.89062,13.15625 l 6.01563,30.265625 h 8.98437 l -10.59375,-54.6875 h -8.98437 l 1.79687,8.59375 q -3.79687,-4.78125 -9.04687,-7.40625 -5.25,-2.609375 -11.156252,-2.609375 -7.1875,0 -11.1875,3.9375 -4,3.9375 -4,10.96875 0,1.453125 0.234375,3.65625 0.25,2.203125 0.734375,4.546875 z"
                 id="use275" />
              <path
                 style="stroke-linecap:butt;stroke-linejoin:round"
                 inkscape:connector-curvature="0"
                 d="M 227.98047,33.03125 221.58984,0.015625 h -8.98437 l 6.29687,32.71875 q 0.39063,2.09375 0.57813,3.609375 0.20312,1.515625 0.20312,2.59375 0,4.390625 -2.45312,6.828125 -2.4375,2.4375 -6.82813,2.4375 -6.54687,0 -11.67187,-4.90625 -5.125,-4.90625 -6.64063,-12.765625 l -6,-30.515625 h -8.98437 l 6.39062,32.71875 q 0.39063,1.796875 0.57813,3.328125 0.20312,1.546875 0.20312,2.765625 0,4.453125 -2.4375,6.90625 -2.4375,2.46875 -6.73437,2.46875 -6.64063,0 -11.78125,-4.90625 -5.125,-4.90625 -6.64063,-12.765625 l -6,-30.515625 h -8.98437 l 10.6875,54.6875 h 8.98437 l -1.70312,-8.5 Q 163.32422,51 168.23047,53.5 q 4.92187,2.515625 10.53125,2.515625 5.95312,0 9.78125,-3.125 3.84375,-3.125 4.625,-8.6875 4.09375,5.765625 9.48437,8.78125 5.40625,3.03125 11.40625,3.03125 7.03125,0 10.85938,-4.046875 3.84375,-4.046875 3.84375,-11.46875 0,-1.609375 -0.20313,-3.546875 -0.1875,-1.921875 -0.57812,-3.921875 z"
                 id="use277" />
              <use
                 id="use279"
                 xlink:href="#DejaVuSans-Oblique-62"
                 transform="translate(235.595703 0.015625)" />
              <path
                 style="stroke-linecap:butt;stroke-linejoin:round"
                 inkscape:connector-curvature="0"
                 d="m 347.16602,32.25 q 0.15625,0.78125 0.21875,1.609375 0.0781,0.828125 0.0781,1.65625 0,5.953125 -3.5,9.421875 -3.48438,3.46875 -9.48438,3.46875 -6.6875,0 -11.82812,-4.234375 -5.125,-4.21875 -7.75,-11.984375 z m 7.8125,-7.03125 h -41.79688 q -0.29687,-1.859375 -0.39062,-2.9375 -0.0937,-1.078125 -0.0937,-1.859375 0,-6.78125 4.17187,-10.5 4.17188,-3.703125 11.79688,-3.703125 5.85937,0 11.07812,1.3125 5.23438,1.328125 9.71875,3.859375 L 347.75977,2.5 q -4.84375,-1.953125 -10,-2.921875 -5.14063,-0.984375 -10.46875,-0.984375 -11.375,0 -17.5,5.4375 -6.125,5.453125 -6.125,15.46875 0,8.546875 3.04687,15.890625 3.04688,7.34375 8.96875,13.109375 3.79688,3.609375 9.04688,5.5625 5.25,1.953125 11.15625,1.953125 9.28125,0 14.76562,-5.5625 5.5,-5.5625 5.5,-14.9375 0,-2.25 -0.29687,-4.8125 -0.28125,-2.5625 -0.875,-5.484375 z"
                 id="use281" />
              <path
                 style="stroke-linecap:butt;stroke-linejoin:round"
                 inkscape:connector-curvature="0"
                 d="m 405.17383,46.40625 q -1.35938,0.734375 -3.125,1.125 -1.75,0.390625 -3.75,0.390625 -7.1875,0 -12.5625,-5.453125 -5.35938,-5.4375 -7.125,-14.578125 l -5.51563,-27.875 h -8.98437 l 10.6875,54.6875 h 8.98437 l -1.70312,-8.5 q 3.5625,4.734375 8.51562,7.265625 4.96875,2.546875 10.57813,2.546875 1.46875,0 2.875,-0.171875 1.42187,-0.15625 2.84375,-0.546875 z"
                 id="use283" />
              <path
                 style="stroke-linecap:butt;stroke-linejoin:round"
                 inkscape:connector-curvature="0"
                 d="m 459.56999,-1.40625 q -9.625,0 -15.21875,5.9375 -5.57813,5.9375 -5.57813,16.1875 0,5.953125 1.92188,12.125 1.9375,6.1875 5.01562,10.390625 4.82813,6.53125 10.78125,9.65625 5.95313,3.125 13.48438,3.125 9.32812,0 15.0625,-5.8125 5.73437,-5.796875 5.73437,-15.171875 0,-6.5 -1.90625,-12.953125 -1.90625,-6.4375 -4.98437,-10.6875 -4.78125,-6.546875 -10.73438,-9.671875 -5.95312,-3.125 -13.57812,-3.125 z m -11.46875,22.421875 q 0,-7.421875 3.09375,-11.109375 3.10937,-3.6875 9.40625,-3.6875 9.03125,0 14.95312,7.875 5.9375,7.890625 5.9375,20 0,7.078125 -3.17187,10.6875 -3.17188,3.625 -9.32813,3.625 -5.07812,0 -9.03125,-2.375 -3.95312,-2.359375 -7.07812,-7.203125 -2.29688,-3.609375 -3.54688,-8.25 -1.23437,-4.640625 -1.23437,-9.5625 z"
                 id="use285" />
              <path
                 style="stroke-linecap:butt;stroke-linejoin:round"
                 inkscape:connector-curvature="0"
                 d="m 543.15788,76 -1.40625,-7.484375 h -8.59375 q -4.89063,0 -7.10938,-1.921875 -2.21875,-1.921875 -3.29687,-7.0625 l -0.96875,-4.828125 h 14.79687 L 535.25163,47.71875 H 520.45475 L 511.18913,0.015625 h -9.04688 l 9.32813,47.703125 h -8.59375 l 1.28125,6.984375 h 8.59375 l 0.71875,3.8125 Q 515.32975,68.1875 519.986,72.09375 524.65788,76 534.6735,76 Z"
                 id="use287" />
              <use
                 id="use289"
                 xlink:href="#DejaVuSans-Oblique-45"
                 transform="translate(563.03646 0.015625)" />
              <path
                 style="stroke-linecap:butt;stroke-linejoin:round"
                 inkscape:connector-curvature="0"
                 d="m 646.82943,0.015625 -12.79688,72.90625 h 9.67188 L 654.29818,10.21875 689.70443,72.921875 H 700.4388 L 658.29818,0.015625 Z"
                 id="use291" />
              <use
                 id="use293"
                 xlink:href="#DejaVuSans-Oblique-55"
                 transform="translate(727.098635 0.015625)" />
              <path
                 style="stroke-linecap:butt;stroke-linejoin:round"
                 inkscape:connector-curvature="0"
                 d="m 850.292,53.09375 -1.70313,-8.5 q -3.5625,1.953125 -7.53125,2.921875 Q 837.1045,48.5 832.917,48.5 q -7.09375,0 -11.17188,-2.421875 -4.0625,-2.40625 -4.0625,-6.5625 0,-4.828125 9.46875,-7.421875 0.73438,-0.1875 1.07813,-0.296875 l 2.875,-0.875 q 8.98437,-2.484375 11.98437,-5.21875 3,-2.734375 3,-7.46875 0,-8.703125 -6.90625,-14.171875 -6.90625,-5.46875 -18.09375,-5.46875 -4.34375,0 -9.125,0.84375 -4.78125,0.828125 -10.54687,2.578125 l 1.75,9.28125 Q 808.1045,8.75 812.88575,7.4375 q 4.79687,-1.3125 9.1875,-1.3125 6.59375,0 10.71875,2.828125 4.125,2.828125 4.125,7.171875 0,4.6875 -10.84375,7.578125 l -0.92188,0.234375 -3.07812,0.78125 q -6.84375,1.8125 -10.01563,4.765625 -3.17187,2.953125 -3.17187,7.546875 0,8.734375 6.5625,13.859375 6.57812,5.125 17.85937,5.125 4.4375,0 8.65625,-0.734375 4.23438,-0.71875 8.32813,-2.1875 z"
                 id="use295" />
              <path
                 style="stroke-linecap:butt;stroke-linejoin:round"
                 inkscape:connector-curvature="0"
                 d="m 900.48535,32.25 q 0.15625,0.78125 0.21875,1.609375 0.0781,0.828125 0.0781,1.65625 0,5.953125 -3.5,9.421875 -3.48437,3.46875 -9.48437,3.46875 -6.6875,0 -11.82813,-4.234375 -5.125,-4.21875 -7.75,-11.984375 z m 7.8125,-7.03125 h -41.79687 q -0.29688,-1.859375 -0.39063,-2.9375 -0.0937,-1.078125 -0.0937,-1.859375 0,-6.78125 4.17188,-10.5 4.17187,-3.703125 11.79687,-3.703125 5.85938,0 11.07813,1.3125 5.23437,1.328125 9.71875,3.859375 L 901.0791,2.5 q -4.84375,-1.953125 -10,-2.921875 -5.14062,-0.984375 -10.46875,-0.984375 -11.375,0 -17.5,5.4375 -6.125,5.453125 -6.125,15.46875 0,8.546875 3.04688,15.890625 3.04687,7.34375 8.96875,13.109375 3.79687,3.609375 9.04687,5.5625 5.25,1.953125 11.15625,1.953125 9.28125,0 14.76563,-5.5625 5.5,-5.5625 5.5,-14.9375 0,-2.25 -0.29688,-4.8125 -0.28125,-2.5625 -0.875,-5.484375 z"
                 id="use297" />
              <path
                 style="stroke-linecap:butt;stroke-linejoin:round"
                 inkscape:connector-curvature="0"
                 d="m 958.49317,46.40625 q -1.35938,0.734375 -3.125,1.125 -1.75,0.390625 -3.75,0.390625 -7.1875,0 -12.5625,-5.453125 -5.35938,-5.4375 -7.125,-14.578125 l -5.51563,-27.875 h -8.98437 l 10.6875,54.6875 h 8.98437 l -1.70312,-8.5 q 3.5625,4.734375 8.51562,7.265625 4.96875,2.546875 10.57813,2.546875 1.46875,0 2.875,-0.171875 1.42187,-0.15625 2.84375,-0.546875 z"
                 id="use299" />
              <path
                 style="stroke-linecap:butt;stroke-linejoin:round"
                 inkscape:connector-curvature="0"
                 d="m 1005.0283,53.09375 -1.7031,-8.5 q -3.5625,1.953125 -7.53125,2.921875 Q 991.84082,48.5 987.65332,48.5 q -7.09375,0 -11.17187,-2.421875 -4.0625,-2.40625 -4.0625,-6.5625 0,-4.828125 9.46875,-7.421875 0.73437,-0.1875 1.07812,-0.296875 l 2.875,-0.875 q 8.98438,-2.484375 11.98438,-5.21875 3,-2.734375 3,-7.46875 0,-8.703125 -6.90625,-14.171875 -6.90625,-5.46875 -18.09375,-5.46875 -4.34375,0 -9.125,0.84375 -4.78125,0.828125 -10.54688,2.578125 l 1.75,9.28125 Q 962.84082,8.75 967.62207,7.4375 q 4.79688,-1.3125 9.1875,-1.3125 6.59375,0 10.71875,2.828125 4.125,2.828125 4.125,7.171875 0,4.6875 -10.84375,7.578125 l -0.92187,0.234375 -3.07813,0.78125 q -6.84375,1.8125 -10.01562,4.765625 -3.17188,2.953125 -3.17188,7.546875 0,8.734375 6.5625,13.859375 6.57813,5.125 17.85938,5.125 4.4375,0 8.65625,-0.734375 4.2344,-0.71875 8.3281,-2.1875 z"
                 id="use301" />
            </g>
          </g>
        </g>
        <g
           id="patch_3">
          <path
             id="path307"
             style="fill:#191970;opacity:0.5;"
             d="M 73.832727 307.584  L 90.919809 307.584  L 90.919809 274.69484  L 73.832727 274.69484  z "
             clip-path="url(#p6addc8cfe1)" />
        </g>
        <g
           id="patch_4">
          <path
             id="path310"
             style="fill:#191970;opacity:0.5;"
             d="M 90.919809 307.584  L 108.00689 307.584  L 108.00689 54.144  L 90.919809 54.144  z "
             clip-path="url(#p6addc8cfe1)" />
        </g>
        <g
           id="patch_5">
          <path
             id="path313"
             style="fill:#191970;opacity:0.5;"
             d="M 108.00689 307.584  L 125.093971 307.584  L 125.093971 95.25545  L 108.00689 95.25545  z "
             clip-path="url(#p6addc8cfe1)" />
        </g>
        <g
           id="patch_6">
          <path
             id="path316"
             style="fill:#191970;opacity:0.5;"
             d="M 125.093971 307.584  L 142.181053 307.584  L 142.181053 147.491176  L 125.093971 147.491176  z "
             clip-path="url(#p6addc8cfe1)" />
        </g>
        <g
           id="patch_7">
          <path
             id="path319"
             style="fill:#191970;opacity:0.5;"
             d="M 142.181053 307.584  L 159.268134 307.584  L 159.268134 147.97484  L 142.181053 147.97484  z "
             clip-path="url(#p6addc8cfe1)" />
        </g>
        <g
           id="patch_8">
          <path
             id="path322"
             style="fill:#191970;opacity:0.5;"
             d="M 159.268134 307.584  L 176.355215 307.584  L 176.355215 207.465527  L 159.268134 207.465527  z "
             clip-path="url(#p6addc8cfe1)" />
        </g>
        <g
           id="patch_9">
          <path
             id="path325"
             style="fill:#191970;opacity:0.5;"
             d="M 176.355215 307.584  L 193.442297 307.584  L 193.442297 226.328427  L 176.355215 226.328427  z "
             clip-path="url(#p6addc8cfe1)" />
        </g>
        <g
           id="patch_10">
          <path
             id="path328"
             style="fill:#191970;opacity:0.5;"
             d="M 193.442297 307.584  L 210.529378 307.584  L 210.529378 243.740336  L 193.442297 243.740336  z "
             clip-path="url(#p6addc8cfe1)" />
        </g>
        <g
           id="patch_11">
          <path
             id="path331"
             style="fill:#191970;opacity:0.5;"
             d="M 210.529378 307.584  L 227.616459 307.584  L 227.616459 263.086901  L 210.529378 263.086901  z "
             clip-path="url(#p6addc8cfe1)" />
        </g>
        <g
           id="patch_12">
          <path
             id="path334"
             style="fill:#191970;opacity:0.5;"
             d="M 227.616459 307.584  L 244.703541 307.584  L 244.703541 279.531481  L 227.616459 279.531481  z "
             clip-path="url(#p6addc8cfe1)" />
        </g>
        <g
           id="patch_13">
          <path
             id="path337"
             style="fill:#191970;opacity:0.5;"
             d="M 244.703541 307.584  L 261.790622 307.584  L 261.790622 280.015145  L 244.703541 280.015145  z "
             clip-path="url(#p6addc8cfe1)" />
        </g>
        <g
           id="patch_14">
          <path
             id="path340"
             style="fill:#191970;opacity:0.5;"
             d="M 261.790622 307.584  L 278.877703 307.584  L 278.877703 280.498809  L 261.790622 280.498809  z "
             clip-path="url(#p6addc8cfe1)" />
        </g>
        <g
           id="patch_15">
          <path
             id="path343"
             style="fill:#191970;opacity:0.5;"
             d="M 278.877703 307.584  L 295.964785 307.584  L 295.964785 293.55774  L 278.877703 293.55774  z "
             clip-path="url(#p6addc8cfe1)" />
        </g>
        <g
           id="patch_16">
          <path
             id="path346"
             style="fill:#191970;opacity:0.5;"
             d="M 295.964785 307.584  L 313.051866 307.584  L 313.051866 299.845374  L 295.964785 299.845374  z "
             clip-path="url(#p6addc8cfe1)" />
        </g>
        <g
           id="patch_17">
          <path
             id="path349"
             style="fill:#191970;opacity:0.5;"
             d="M 313.051866 307.584  L 330.138947 307.584  L 330.138947 296.943389  L 313.051866 296.943389  z "
             clip-path="url(#p6addc8cfe1)" />
        </g>
        <g
           id="patch_18">
          <path
             id="path352"
             style="fill:#191970;opacity:0.5;"
             d="M 330.138947 307.584  L 347.226029 307.584  L 347.226029 297.910718  L 330.138947 297.910718  z "
             clip-path="url(#p6addc8cfe1)" />
        </g>
        <g
           id="patch_19">
          <path
             id="path355"
             style="fill:#191970;opacity:0.5;"
             d="M 347.226029 307.584  L 364.31311 307.584  L 364.31311 304.682015  L 347.226029 304.682015  z "
             clip-path="url(#p6addc8cfe1)" />
        </g>
        <g
           id="patch_20">
          <path
             id="path358"
             style="fill:#191970;opacity:0.5;"
             d="M 364.31311 307.584  L 381.400191 307.584  L 381.400191 305.649344  L 364.31311 305.649344  z "
             clip-path="url(#p6addc8cfe1)" />
        </g>
        <g
           id="patch_21">
          <path
             id="path361"
             style="fill:#191970;opacity:0.5;"
             d="M 381.400191 307.584  L 398.487273 307.584  L 398.487273 307.584  L 381.400191 307.584  z "
             clip-path="url(#p6addc8cfe1)" />
        </g>
        <g
           id="line2d_13">
          <path
             id="path364"
             style="fill:none;stroke:#ffa500;stroke-linecap:round;"
             d="M 90.83697 307.584  L 90.83697 41.472  "
             clip-path="url(#p6addc8cfe1)" />
        </g>
        <g
           id="line2d_14">
          <path
             id="path367"
             style="fill:none;stroke:#ffa500;stroke-linecap:round;"
             d="M 299.01591 307.584  L 299.01591 41.472  "
             clip-path="url(#p6addc8cfe1)" />
        </g>
        <g
           id="patch_22">
          <path
             id="path370"
             style="fill:none;"
             d="M 57.6 307.584  L 57.6 41.472  " />
        </g>
        <g
           id="patch_23">
          <path
             id="path373"
             style="fill:none;"
             d="M 414.72 307.584  L 414.72 41.472  " />
        </g>
        <g
           id="patch_24">
          <path
             id="path376"
             style="fill:none;"
             d="M 57.6 307.584  L 414.72 307.584  " />
        </g>
        <g
           id="patch_25">
          <path
             id="path379"
             style="fill:none;"
             d="M 57.6 41.472  L 414.72 41.472  " />
        </g>
        <g
           id="text_15">
          <!-- With Nykvist battery capital cost -->
          <defs
             id="defs400">
            <path
               id="ArialMT-57"
               d="M 20.21875 0  L 1.21875 71.578125  L 10.9375 71.578125  L 21.828125 24.65625  Q 23.578125 17.28125 24.859375 10.015625  Q 27.59375 21.484375 28.078125 23.25  L 41.703125 71.578125  L 53.125 71.578125  L 63.375 35.359375  Q 67.234375 21.875 68.953125 10.015625  Q 70.3125 16.796875 72.515625 25.59375  L 83.734375 71.578125  L 93.265625 71.578125  L 73.640625 0  L 64.5 0  L 49.421875 54.546875  Q 47.515625 61.375 47.171875 62.9375  Q 46.046875 58.015625 45.0625 54.546875  L 29.890625 0  z " />
            <path
               id="ArialMT-69"
               d="M 6.640625 61.46875  L 6.640625 71.578125  L 15.4375 71.578125  L 15.4375 61.46875  z M 6.640625 0  L 6.640625 51.859375  L 15.4375 51.859375  L 15.4375 0  z " />
            <path
               id="ArialMT-74"
               d="M 25.78125 7.859375  L 27.046875 0.09375  Q 23.34375 -0.6875 20.40625 -0.6875  Q 15.625 -0.6875 12.984375 0.828125  Q 10.359375 2.34375 9.28125 4.8125  Q 8.203125 7.28125 8.203125 15.1875  L 8.203125 45.015625  L 1.765625 45.015625  L 1.765625 51.859375  L 8.203125 51.859375  L 8.203125 64.703125  L 16.9375 69.96875  L 16.9375 51.859375  L 25.78125 51.859375  L 25.78125 45.015625  L 16.9375 45.015625  L 16.9375 14.703125  Q 16.9375 10.9375 17.40625 9.859375  Q 17.875 8.796875 18.921875 8.15625  Q 19.96875 7.515625 21.921875 7.515625  Q 23.390625 7.515625 25.78125 7.859375  z " />
            <path
               id="ArialMT-68"
               d="M 6.59375 0  L 6.59375 71.578125  L 15.375 71.578125  L 15.375 45.90625  Q 21.53125 53.03125 30.90625 53.03125  Q 36.671875 53.03125 40.921875 50.75  Q 45.171875 48.484375 47 44.484375  Q 48.828125 40.484375 48.828125 32.859375  L 48.828125 0  L 40.046875 0  L 40.046875 32.859375  Q 40.046875 39.453125 37.1875 42.453125  Q 34.328125 45.453125 29.109375 45.453125  Q 25.203125 45.453125 21.75 43.421875  Q 18.3125 41.40625 16.84375 37.9375  Q 15.375 34.46875 15.375 28.375  L 15.375 0  z " />
            <path
               id="ArialMT-20" />
            <path
               id="ArialMT-4e"
               d="M 7.625 0  L 7.625 71.578125  L 17.328125 71.578125  L 54.9375 15.375  L 54.9375 71.578125  L 64.015625 71.578125  L 64.015625 0  L 54.296875 0  L 16.703125 56.25  L 16.703125 0  z " />
            <path
               id="ArialMT-79"
               d="M 6.203125 -19.96875  L 5.21875 -11.71875  Q 8.109375 -12.5 10.25 -12.5  Q 13.1875 -12.5 14.9375 -11.515625  Q 16.703125 -10.546875 17.828125 -8.796875  Q 18.65625 -7.46875 20.515625 -2.25  Q 20.75 -1.515625 21.296875 -0.09375  L 1.609375 51.859375  L 11.078125 51.859375  L 21.875 21.828125  Q 23.96875 16.109375 25.640625 9.8125  Q 27.15625 15.875 29.25 21.625  L 40.328125 51.859375  L 49.125 51.859375  L 29.390625 -0.875  Q 26.21875 -9.421875 24.46875 -12.640625  Q 22.125 -17 19.09375 -19.015625  Q 16.0625 -21.046875 11.859375 -21.046875  Q 9.328125 -21.046875 6.203125 -19.96875  z " />
            <path
               id="ArialMT-6b"
               d="M 6.640625 0  L 6.640625 71.578125  L 15.4375 71.578125  L 15.4375 30.765625  L 36.234375 51.859375  L 47.609375 51.859375  L 27.78125 32.625  L 49.609375 0  L 38.765625 0  L 21.625 26.515625  L 15.4375 20.5625  L 15.4375 0  z " />
            <path
               id="ArialMT-76"
               d="M 21 0  L 1.265625 51.859375  L 10.546875 51.859375  L 21.6875 20.796875  Q 23.484375 15.765625 25 10.359375  Q 26.171875 14.453125 28.265625 20.21875  L 39.796875 51.859375  L 48.828125 51.859375  L 29.203125 0  z " />
            <path
               id="ArialMT-73"
               d="M 3.078125 15.484375  L 11.765625 16.84375  Q 12.5 11.625 15.84375 8.84375  Q 19.1875 6.0625 25.203125 6.0625  Q 31.25 6.0625 34.171875 8.515625  Q 37.109375 10.984375 37.109375 14.3125  Q 37.109375 17.28125 34.515625 19  Q 32.71875 20.171875 25.53125 21.96875  Q 15.875 24.421875 12.140625 26.203125  Q 8.40625 27.984375 6.46875 31.125  Q 4.546875 34.28125 4.546875 38.09375  Q 4.546875 41.546875 6.125 44.5  Q 7.71875 47.46875 10.453125 49.421875  Q 12.5 50.921875 16.03125 51.96875  Q 19.578125 53.03125 23.640625 53.03125  Q 29.734375 53.03125 34.34375 51.265625  Q 38.96875 49.515625 41.15625 46.5  Q 43.359375 43.5 44.1875 38.484375  L 35.59375 37.3125  Q 35.015625 41.3125 32.203125 43.546875  Q 29.390625 45.796875 24.265625 45.796875  Q 18.21875 45.796875 15.625 43.796875  Q 13.03125 41.796875 13.03125 39.109375  Q 13.03125 37.40625 14.109375 36.03125  Q 15.1875 34.625 17.484375 33.6875  Q 18.796875 33.203125 25.25 31.453125  Q 34.578125 28.953125 38.25 27.359375  Q 41.9375 25.78125 44.03125 22.75  Q 46.140625 19.734375 46.140625 15.234375  Q 46.140625 10.84375 43.578125 6.953125  Q 41.015625 3.078125 36.171875 0.953125  Q 31.34375 -1.171875 25.25 -1.171875  Q 15.140625 -1.171875 9.84375 3.03125  Q 4.546875 7.234375 3.078125 15.484375  z " />
            <path
               id="ArialMT-62"
               d="M 14.703125 0  L 6.546875 0  L 6.546875 71.578125  L 15.328125 71.578125  L 15.328125 46.046875  Q 20.90625 53.03125 29.546875 53.03125  Q 34.328125 53.03125 38.59375 51.09375  Q 42.875 49.171875 45.625 45.671875  Q 48.390625 42.1875 49.953125 37.25  Q 51.515625 32.328125 51.515625 26.703125  Q 51.515625 13.375 44.921875 6.09375  Q 38.328125 -1.171875 29.109375 -1.171875  Q 19.921875 -1.171875 14.703125 6.5  z M 14.59375 26.3125  Q 14.59375 17 17.140625 12.84375  Q 21.296875 6.0625 28.375 6.0625  Q 34.125 6.0625 38.328125 11.0625  Q 42.53125 16.0625 42.53125 25.984375  Q 42.53125 36.140625 38.5 40.96875  Q 34.46875 45.796875 28.765625 45.796875  Q 23 45.796875 18.796875 40.796875  Q 14.59375 35.796875 14.59375 26.3125  z " />
            <path
               id="ArialMT-61"
               d="M 40.4375 6.390625  Q 35.546875 2.25 31.03125 0.53125  Q 26.515625 -1.171875 21.34375 -1.171875  Q 12.796875 -1.171875 8.203125 3  Q 3.609375 7.171875 3.609375 13.671875  Q 3.609375 17.484375 5.34375 20.625  Q 7.078125 23.78125 9.890625 25.6875  Q 12.703125 27.59375 16.21875 28.5625  Q 18.796875 29.25 24.03125 29.890625  Q 34.671875 31.15625 39.703125 32.90625  Q 39.75 34.71875 39.75 35.203125  Q 39.75 40.578125 37.25 42.78125  Q 33.890625 45.75 27.25 45.75  Q 21.046875 45.75 18.09375 43.578125  Q 15.140625 41.40625 13.71875 35.890625  L 5.125 37.0625  Q 6.296875 42.578125 8.984375 45.96875  Q 11.671875 49.359375 16.75 51.1875  Q 21.828125 53.03125 28.515625 53.03125  Q 35.15625 53.03125 39.296875 51.46875  Q 43.453125 49.90625 45.40625 47.53125  Q 47.359375 45.171875 48.140625 41.546875  Q 48.578125 39.3125 48.578125 33.453125  L 48.578125 21.734375  Q 48.578125 9.46875 49.140625 6.21875  Q 49.703125 2.984375 51.375 0  L 42.1875 0  Q 40.828125 2.734375 40.4375 6.390625  z M 39.703125 26.03125  Q 34.90625 24.078125 25.34375 22.703125  Q 19.921875 21.921875 17.671875 20.9375  Q 15.4375 19.96875 14.203125 18.09375  Q 12.984375 16.21875 12.984375 13.921875  Q 12.984375 10.40625 15.640625 8.0625  Q 18.3125 5.71875 23.4375 5.71875  Q 28.515625 5.71875 32.46875 7.9375  Q 36.421875 10.15625 38.28125 14.015625  Q 39.703125 17 39.703125 22.796875  z " />
            <path
               id="ArialMT-65"
               d="M 42.09375 16.703125  L 51.171875 15.578125  Q 49.03125 7.625 43.21875 3.21875  Q 37.40625 -1.171875 28.375 -1.171875  Q 17 -1.171875 10.328125 5.828125  Q 3.65625 12.84375 3.65625 25.484375  Q 3.65625 38.578125 10.390625 45.796875  Q 17.140625 53.03125 27.875 53.03125  Q 38.28125 53.03125 44.875 45.953125  Q 51.46875 38.875 51.46875 26.03125  Q 51.46875 25.25 51.421875 23.6875  L 12.75 23.6875  Q 13.234375 15.140625 17.578125 10.59375  Q 21.921875 6.0625 28.421875 6.0625  Q 33.25 6.0625 36.671875 8.59375  Q 40.09375 11.140625 42.09375 16.703125  z M 13.234375 30.90625  L 42.1875 30.90625  Q 41.609375 37.453125 38.875 40.71875  Q 34.671875 45.796875 27.984375 45.796875  Q 21.921875 45.796875 17.796875 41.75  Q 13.671875 37.703125 13.234375 30.90625  z " />
            <path
               id="ArialMT-72"
               d="M 6.5 0  L 6.5 51.859375  L 14.40625 51.859375  L 14.40625 44  Q 17.4375 49.515625 20 51.265625  Q 22.5625 53.03125 25.640625 53.03125  Q 30.078125 53.03125 34.671875 50.203125  L 31.640625 42.046875  Q 28.421875 43.953125 25.203125 43.953125  Q 22.3125 43.953125 20.015625 42.21875  Q 17.71875 40.484375 16.75 37.40625  Q 15.28125 32.71875 15.28125 27.15625  L 15.28125 0  z " />
            <path
               id="ArialMT-63"
               d="M 40.4375 19  L 49.078125 17.875  Q 47.65625 8.9375 41.8125 3.875  Q 35.984375 -1.171875 27.484375 -1.171875  Q 16.84375 -1.171875 10.375 5.78125  Q 3.90625 12.75 3.90625 25.734375  Q 3.90625 34.125 6.6875 40.421875  Q 9.46875 46.734375 15.15625 49.875  Q 20.84375 53.03125 27.546875 53.03125  Q 35.984375 53.03125 41.359375 48.75  Q 46.734375 44.484375 48.25 36.625  L 39.703125 35.296875  Q 38.484375 40.53125 35.375 43.15625  Q 32.28125 45.796875 27.875 45.796875  Q 21.234375 45.796875 17.078125 41.03125  Q 12.9375 36.28125 12.9375 25.984375  Q 12.9375 15.53125 16.9375 10.796875  Q 20.953125 6.0625 27.390625 6.0625  Q 32.5625 6.0625 36.03125 9.234375  Q 39.5 12.40625 40.4375 19  z " />
            <path
               id="ArialMT-70"
               d="M 6.59375 -19.875  L 6.59375 51.859375  L 14.59375 51.859375  L 14.59375 45.125  Q 17.4375 49.078125 21 51.046875  Q 24.5625 53.03125 29.640625 53.03125  Q 36.28125 53.03125 41.359375 49.609375  Q 46.4375 46.1875 49.015625 39.953125  Q 51.609375 33.734375 51.609375 26.3125  Q 51.609375 18.359375 48.75 11.984375  Q 45.90625 5.609375 40.453125 2.21875  Q 35.015625 -1.171875 29 -1.171875  Q 24.609375 -1.171875 21.109375 0.6875  Q 17.625 2.546875 15.375 5.375  L 15.375 -19.875  z M 14.546875 25.640625  Q 14.546875 15.625 18.59375 10.84375  Q 22.65625 6.0625 28.421875 6.0625  Q 34.28125 6.0625 38.453125 11.015625  Q 42.625 15.96875 42.625 26.375  Q 42.625 36.28125 38.546875 41.203125  Q 34.46875 46.140625 28.8125 46.140625  Q 23.1875 46.140625 18.859375 40.890625  Q 14.546875 35.640625 14.546875 25.640625  z " />
            <path
               id="ArialMT-6c"
               d="M 6.390625 0  L 6.390625 71.578125  L 15.1875 71.578125  L 15.1875 0  z " />
            <path
               id="ArialMT-6f"
               d="M 3.328125 25.921875  Q 3.328125 40.328125 11.328125 47.265625  Q 18.015625 53.03125 27.640625 53.03125  Q 38.328125 53.03125 45.109375 46.015625  Q 51.90625 39.015625 51.90625 26.65625  Q 51.90625 16.65625 48.90625 10.90625  Q 45.90625 5.171875 40.15625 2  Q 34.421875 -1.171875 27.640625 -1.171875  Q 16.75 -1.171875 10.03125 5.8125  Q 3.328125 12.796875 3.328125 25.921875  z M 12.359375 25.921875  Q 12.359375 15.96875 16.703125 11.015625  Q 21.046875 6.0625 27.640625 6.0625  Q 34.1875 6.0625 38.53125 11.03125  Q 42.875 16.015625 42.875 26.21875  Q 42.875 35.84375 38.5 40.796875  Q 34.125 45.75 27.640625 45.75  Q 21.046875 45.75 16.703125 40.8125  Q 12.359375 35.890625 12.359375 25.921875  z " />
          </defs>
        </g>
      </g>
    </g>
    <text
       xml:space="preserve"
       style="font-style:normal;font-weight:normal;font-size:30px;line-height:1.25;font-family:sans-serif;letter-spacing:0px;word-spacing:0px;fill:#000000;fill-opacity:1;stroke:none;stroke-width:0.75;stroke-linecap:butt;stroke-linejoin:round"
       x="158.9375"
       y="25.525639"
       id="text369"><tspan
         sodipodi:role="line"
         id="tspan367"
         style="font-size:16px;stroke-width:0.75;stroke-linecap:butt;stroke-linejoin:round"
         x="158.9375"
         y="25.525639">Pricetaker Scenario</tspan></text>
  </g>
</svg>
