<?xml version="1.0" encoding="UTF-8" standalone="no"?>
<!-- Created with matplotlib (http://matplotlib.org/) -->

<svg
   xmlns:dc="http://purl.org/dc/elements/1.1/"
   xmlns:cc="http://creativecommons.org/ns#"
   xmlns:rdf="http://www.w3.org/1999/02/22-rdf-syntax-ns#"
   xmlns:svg="http://www.w3.org/2000/svg"
   xmlns="http://www.w3.org/2000/svg"
   xmlns:xlink="http://www.w3.org/1999/xlink"
   xmlns:sodipodi="http://sodipodi.sourceforge.net/DTD/sodipodi-0.dtd"
   xmlns:inkscape="http://www.inkscape.org/namespaces/inkscape"
   height="345pt"
   version="1.1"
   viewBox="0 0 460 345"
   width="460pt"
   id="svg551"
   sodipodi:docname="Save0.svg"
   inkscape:version="0.92.1 r15371">
  <metadata
     id="metadata555">
    <rdf:RDF>
      <cc:Work
         rdf:about="">
        <dc:format>image/svg+xml</dc:format>
        <dc:type
           rdf:resource="http://purl.org/dc/dcmitype/StillImage" />
      </cc:Work>
    </rdf:RDF>
  </metadata>
  <sodipodi:namedview
     pagecolor="#ffffff"
     bordercolor="#666666"
     borderopacity="1"
     objecttolerance="10"
     gridtolerance="10"
     guidetolerance="10"
     inkscape:pageopacity="0"
     inkscape:pageshadow="2"
     inkscape:window-width="1920"
     inkscape:window-height="1001"
     id="namedview553"
     showgrid="false"
     inkscape:zoom="0.78239463"
     inkscape:cx="48.403955"
     inkscape:cy="230"
     inkscape:window-x="-9"
     inkscape:window-y="-9"
     inkscape:window-maximized="1"
     inkscape:current-layer="svg551" />
  <defs
     id="defs4">
    <style
       type="text/css"
       id="style2">
*{stroke-linecap:butt;stroke-linejoin:round;}
  </style>
  </defs>
  <defs
     id="defs549">
    <clipPath
       id="p6addc8cfe1">
      <rect
         height="266.112"
         width="357.12"
         x="57.6"
         y="41.472"
         id="rect546" />
    </clipPath>
  </defs>
  <g
     id="g5371">
    <g
       id="figure_1">
      <g
         id="patch_1">
        <path
           id="path6"
           style="fill:#ffffff;"
           d="M 0 345.6  L 460.8 345.6  L 460.8 0  L 0 0  z " />
      </g>
      <g
         id="axes_1">
        <g
           id="patch_2">
          <path
             id="path9"
             style="fill:#eaeaf2;"
             d="M 57.6 307.584  L 414.72 307.584  L 414.72 41.472  L 57.6 41.472  z " />
        </g>
        <g
           id="matplotlib.axis_1">
          <g
             id="xtick_1">
            <g
               id="line2d_1" />
            <g
               id="text_1">
              <!-- −1000 -->
              <defs
                 id="defs16">
                <path
                   id="ArialMT-2212"
                   d="M 52.828125 31.203125  L 5.5625 31.203125  L 5.5625 39.40625  L 52.828125 39.40625  z " />
                <path
                   id="ArialMT-31"
                   d="M 37.25 0  L 28.46875 0  L 28.46875 56  Q 25.296875 52.984375 20.140625 49.953125  Q 14.984375 46.921875 10.890625 45.40625  L 10.890625 53.90625  Q 18.265625 57.375 23.78125 62.296875  Q 29.296875 67.234375 31.59375 71.875  L 37.25 71.875  z " />
                <path
                   id="ArialMT-30"
                   d="M 4.15625 35.296875  Q 4.15625 48 6.765625 55.734375  Q 9.375 63.484375 14.515625 67.671875  Q 19.671875 71.875 27.484375 71.875  Q 33.25 71.875 37.59375 69.546875  Q 41.9375 67.234375 44.765625 62.859375  Q 47.609375 58.5 49.21875 52.21875  Q 50.828125 45.953125 50.828125 35.296875  Q 50.828125 22.703125 48.234375 14.96875  Q 45.65625 7.234375 40.5 3  Q 35.359375 -1.21875 27.484375 -1.21875  Q 17.140625 -1.21875 11.234375 6.203125  Q 4.15625 15.140625 4.15625 35.296875  z M 13.1875 35.296875  Q 13.1875 17.671875 17.3125 11.828125  Q 21.4375 6 27.484375 6  Q 33.546875 6 37.671875 11.859375  Q 41.796875 17.71875 41.796875 35.296875  Q 41.796875 52.984375 37.671875 58.78125  Q 33.546875 64.59375 27.390625 64.59375  Q 21.34375 64.59375 17.71875 59.46875  Q 13.1875 52.9375 13.1875 35.296875  z " />
              </defs>
              <g
                 id="g28"
                 transform="translate(42.77553 325.989156)scale(0.13 -0.13)"
                 style="fill:#262626;">
                <use
                   id="use18"
                   xlink:href="#ArialMT-2212" />
                <use
                   id="use20"
                   xlink:href="#ArialMT-31"
                   x="58.398438" />
                <use
                   id="use22"
                   xlink:href="#ArialMT-30"
                   x="114.013672" />
                <use
                   id="use24"
                   xlink:href="#ArialMT-30"
                   x="169.628906" />
                <use
                   id="use26"
                   xlink:href="#ArialMT-30"
                   x="225.244141" />
              </g>
            </g>
          </g>
          <g
             id="xtick_2">
            <g
               id="line2d_2" />
            <g
               id="text_2">
              <!-- −800 -->
              <defs
                 id="defs34">
                <path
                   id="ArialMT-38"
                   d="M 17.671875 38.8125  Q 12.203125 40.828125 9.5625 44.53125  Q 6.9375 48.25 6.9375 53.421875  Q 6.9375 61.234375 12.546875 66.546875  Q 18.171875 71.875 27.484375 71.875  Q 36.859375 71.875 42.578125 66.421875  Q 48.296875 60.984375 48.296875 53.171875  Q 48.296875 48.1875 45.671875 44.5  Q 43.0625 40.828125 37.75 38.8125  Q 44.34375 36.671875 47.78125 31.875  Q 51.21875 27.09375 51.21875 20.453125  Q 51.21875 11.28125 44.71875 5.03125  Q 38.234375 -1.21875 27.640625 -1.21875  Q 17.046875 -1.21875 10.546875 5.046875  Q 4.046875 11.328125 4.046875 20.703125  Q 4.046875 27.6875 7.59375 32.390625  Q 11.140625 37.109375 17.671875 38.8125  z M 15.921875 53.71875  Q 15.921875 48.640625 19.1875 45.40625  Q 22.46875 42.1875 27.6875 42.1875  Q 32.765625 42.1875 36.015625 45.375  Q 39.265625 48.578125 39.265625 53.21875  Q 39.265625 58.0625 35.90625 61.359375  Q 32.5625 64.65625 27.59375 64.65625  Q 22.5625 64.65625 19.234375 61.421875  Q 15.921875 58.203125 15.921875 53.71875  z M 13.09375 20.65625  Q 13.09375 16.890625 14.875 13.375  Q 16.65625 9.859375 20.171875 7.921875  Q 23.6875 6 27.734375 6  Q 34.03125 6 38.125 10.046875  Q 42.234375 14.109375 42.234375 20.359375  Q 42.234375 26.703125 38.015625 30.859375  Q 33.796875 35.015625 27.4375 35.015625  Q 21.234375 35.015625 17.15625 30.90625  Q 13.09375 26.8125 13.09375 20.65625  z " />
              </defs>
              <g
                 id="g44"
                 transform="translate(112.043233 325.989156)scale(0.13 -0.13)"
                 style="fill:#262626;">
                <use
                   id="use36"
                   xlink:href="#ArialMT-2212" />
                <use
                   id="use38"
                   xlink:href="#ArialMT-38"
                   x="58.398438" />
                <use
                   id="use40"
                   xlink:href="#ArialMT-30"
                   x="114.013672" />
                <use
                   id="use42"
                   xlink:href="#ArialMT-30"
                   x="169.628906" />
              </g>
            </g>
          </g>
          <g
             id="xtick_3">
            <g
               id="line2d_3" />
            <g
               id="text_3">
              <!-- −600 -->
              <defs
                 id="defs50">
                <path
                   id="ArialMT-36"
                   d="M 49.75 54.046875  L 41.015625 53.375  Q 39.84375 58.546875 37.703125 60.890625  Q 34.125 64.65625 28.90625 64.65625  Q 24.703125 64.65625 21.53125 62.3125  Q 17.390625 59.28125 14.984375 53.46875  Q 12.59375 47.65625 12.5 36.921875  Q 15.671875 41.75 20.265625 44.09375  Q 24.859375 46.4375 29.890625 46.4375  Q 38.671875 46.4375 44.84375 39.96875  Q 51.03125 33.5 51.03125 23.25  Q 51.03125 16.5 48.125 10.71875  Q 45.21875 4.9375 40.140625 1.859375  Q 35.0625 -1.21875 28.609375 -1.21875  Q 17.625 -1.21875 10.6875 6.859375  Q 3.765625 14.9375 3.765625 33.5  Q 3.765625 54.25 11.421875 63.671875  Q 18.109375 71.875 29.4375 71.875  Q 37.890625 71.875 43.28125 67.140625  Q 48.6875 62.40625 49.75 54.046875  z M 13.875 23.1875  Q 13.875 18.65625 15.796875 14.5  Q 17.71875 10.359375 21.1875 8.171875  Q 24.65625 6 28.46875 6  Q 34.03125 6 38.03125 10.484375  Q 42.046875 14.984375 42.046875 22.703125  Q 42.046875 30.125 38.078125 34.390625  Q 34.125 38.671875 28.125 38.671875  Q 22.171875 38.671875 18.015625 34.390625  Q 13.875 30.125 13.875 23.1875  z " />
              </defs>
              <g
                 id="g60"
                 transform="translate(177.696326 325.989156)scale(0.13 -0.13)"
                 style="fill:#262626;">
                <use
                   id="use52"
                   xlink:href="#ArialMT-2212" />
                <use
                   id="use54"
                   xlink:href="#ArialMT-36"
                   x="58.398438" />
                <use
                   id="use56"
                   xlink:href="#ArialMT-30"
                   x="114.013672" />
                <use
                   id="use58"
                   xlink:href="#ArialMT-30"
                   x="169.628906" />
              </g>
            </g>
          </g>
          <g
             id="xtick_4">
            <g
               id="line2d_4" />
            <g
               id="text_4">
              <!-- −400 -->
              <defs
                 id="defs66">
                <path
                   id="ArialMT-34"
                   d="M 32.328125 0  L 32.328125 17.140625  L 1.265625 17.140625  L 1.265625 25.203125  L 33.9375 71.578125  L 41.109375 71.578125  L 41.109375 25.203125  L 50.78125 25.203125  L 50.78125 17.140625  L 41.109375 17.140625  L 41.109375 0  z M 32.328125 25.203125  L 32.328125 57.46875  L 9.90625 25.203125  z " />
              </defs>
              <g
                 id="g76"
                 transform="translate(243.349419 325.989156)scale(0.13 -0.13)"
                 style="fill:#262626;">
                <use
                   id="use68"
                   xlink:href="#ArialMT-2212" />
                <use
                   id="use70"
                   xlink:href="#ArialMT-34"
                   x="58.398438" />
                <use
                   id="use72"
                   xlink:href="#ArialMT-30"
                   x="114.013672" />
                <use
                   id="use74"
                   xlink:href="#ArialMT-30"
                   x="169.628906" />
              </g>
            </g>
          </g>
          <g
             id="xtick_5">
            <g
               id="line2d_5" />
            <g
               id="text_5">
              <!-- −200 -->
              <defs
                 id="defs82">
                <path
                   id="ArialMT-32"
                   d="M 50.34375 8.453125  L 50.34375 0  L 3.03125 0  Q 2.9375 3.171875 4.046875 6.109375  Q 5.859375 10.9375 9.828125 15.625  Q 13.8125 20.3125 21.34375 26.46875  Q 33.015625 36.03125 37.109375 41.625  Q 41.21875 47.21875 41.21875 52.203125  Q 41.21875 57.421875 37.46875 61  Q 33.734375 64.59375 27.734375 64.59375  Q 21.390625 64.59375 17.578125 60.78125  Q 13.765625 56.984375 13.71875 50.25  L 4.6875 51.171875  Q 5.609375 61.28125 11.65625 66.578125  Q 17.71875 71.875 27.9375 71.875  Q 38.234375 71.875 44.234375 66.15625  Q 50.25 60.453125 50.25 52  Q 50.25 47.703125 48.484375 43.546875  Q 46.734375 39.40625 42.65625 34.8125  Q 38.578125 30.21875 29.109375 22.21875  Q 21.1875 15.578125 18.9375 13.203125  Q 16.703125 10.84375 15.234375 8.453125  z " />
              </defs>
              <g
                 id="g92"
                 transform="translate(309.002512 325.989156)scale(0.13 -0.13)"
                 style="fill:#262626;">
                <use
                   id="use84"
                   xlink:href="#ArialMT-2212" />
                <use
                   id="use86"
                   xlink:href="#ArialMT-32"
                   x="58.398438" />
                <use
                   id="use88"
                   xlink:href="#ArialMT-30"
                   x="114.013672" />
                <use
                   id="use90"
                   xlink:href="#ArialMT-30"
                   x="169.628906" />
              </g>
            </g>
          </g>
          <g
             id="xtick_6">
            <g
               id="line2d_6" />
            <g
               id="text_6">
              <!-- 0 -->
              <g
                 id="g99"
                 transform="translate(385.68123 325.989156)scale(0.13 -0.13)"
                 style="fill:#262626;">
                <use
                   id="use97"
                   xlink:href="#ArialMT-30" />
              </g>
            </g>
          </g>
          <g
             id="text_7">
            <!-- $Savings\ from\ V2G\ over\ normal\ commute (\$) $ -->
            <defs
               id="defs125">
              <path
                 id="DejaVuSans-Oblique-53"
                 d="M 60.296875 70.515625  L 58.40625 60.890625  Q 53.46875 63.53125 48.609375 64.875  Q 43.75 66.21875 39.203125 66.21875  Q 30.375 66.21875 25.140625 62.359375  Q 19.921875 58.5 19.921875 52.09375  Q 19.921875 48.578125 21.84375 46.703125  Q 23.78125 44.828125 31.78125 42.671875  L 37.703125 41.21875  Q 47.703125 38.625 51.609375 34.640625  Q 55.515625 30.671875 55.515625 23.484375  Q 55.515625 12.453125 46.84375 5.515625  Q 38.1875 -1.421875 24.03125 -1.421875  Q 18.21875 -1.421875 12.359375 -0.265625  Q 6.5 0.875 0.59375 3.21875  L 2.59375 13.375  Q 8.015625 10.015625 13.453125 8.296875  Q 18.890625 6.59375 24.3125 6.59375  Q 33.546875 6.59375 39.109375 10.6875  Q 44.671875 14.796875 44.671875 21.390625  Q 44.671875 25.78125 42.453125 28.046875  Q 40.234375 30.328125 32.90625 32.171875  L 27 33.6875  Q 16.890625 36.328125 13.203125 39.765625  Q 9.515625 43.21875 9.515625 49.421875  Q 9.515625 60.296875 17.890625 67.25  Q 26.265625 74.21875 39.703125 74.21875  Q 44.921875 74.21875 50.046875 73.28125  Q 55.171875 72.359375 60.296875 70.515625  z " />
              <path
                 id="DejaVuSans-Oblique-61"
                 d="M 53.71875 31.203125  L 47.609375 0  L 38.625 0  L 40.28125 8.296875  Q 36.328125 3.421875 31.265625 1  Q 26.21875 -1.421875 20.015625 -1.421875  Q 13.03125 -1.421875 8.5625 2.84375  Q 4.109375 7.125 4.109375 13.8125  Q 4.109375 23.390625 11.75 28.953125  Q 19.390625 34.515625 32.8125 34.515625  L 45.3125 34.515625  L 45.796875 36.921875  Q 45.90625 37.3125 45.953125 37.765625  Q 46 38.234375 46 39.203125  Q 46 43.5625 42.453125 45.96875  Q 38.921875 48.390625 32.515625 48.390625  Q 28.125 48.390625 23.5 47.265625  Q 18.890625 46.140625 14.015625 43.890625  L 15.578125 52.203125  Q 20.65625 54.109375 25.515625 55.046875  Q 30.375 56 34.90625 56  Q 44.578125 56 49.625 51.796875  Q 54.6875 47.609375 54.6875 39.59375  Q 54.6875 37.984375 54.4375 35.8125  Q 54.203125 33.640625 53.71875 31.203125  z M 44 27.484375  L 35.015625 27.484375  Q 23.96875 27.484375 18.671875 24.53125  Q 13.375 21.578125 13.375 15.375  Q 13.375 11.078125 16.078125 8.640625  Q 18.796875 6.203125 23.578125 6.203125  Q 30.90625 6.203125 36.375 11.453125  Q 41.84375 16.703125 43.609375 25.484375  z " />
              <path
                 id="DejaVuSans-Oblique-76"
                 d="M 7.171875 54.6875  L 16.703125 54.6875  L 24.703125 8.203125  L 50.875 54.6875  L 60.40625 54.6875  L 29.296875 0  L 17.1875 0  z " />
              <path
                 id="DejaVuSans-Oblique-69"
                 d="M 18.3125 75.984375  L 27.296875 75.984375  L 25.09375 64.59375  L 16.109375 64.59375  z M 14.203125 54.6875  L 23.1875 54.6875  L 12.5 0  L 3.515625 0  z " />
              <path
                 id="DejaVuSans-Oblique-6e"
                 d="M 55.71875 33.015625  L 49.3125 0  L 40.28125 0  L 46.6875 32.671875  Q 47.125 34.96875 47.359375 36.71875  Q 47.609375 38.484375 47.609375 39.5  Q 47.609375 43.609375 45.015625 45.890625  Q 42.4375 48.1875 37.796875 48.1875  Q 30.5625 48.1875 25.34375 43.375  Q 20.125 38.578125 18.5 30.328125  L 12.5 0  L 3.515625 0  L 14.109375 54.6875  L 23.09375 54.6875  L 21.296875 46.09375  Q 25.046875 50.828125 30.3125 53.40625  Q 35.59375 56 41.40625 56  Q 48.640625 56 52.609375 52.09375  Q 56.59375 48.1875 56.59375 41.109375  Q 56.59375 39.359375 56.375 37.359375  Q 56.15625 35.359375 55.71875 33.015625  z " />
              <path
                 id="DejaVuSans-Oblique-67"
                 d="M 59.625 54.6875  L 50.296875 6.78125  Q 47.609375 -7.125 40.015625 -13.953125  Q 32.421875 -20.796875 19.578125 -20.796875  Q 14.84375 -20.796875 10.78125 -20.09375  Q 6.734375 -19.390625 3.21875 -17.921875  L 4.890625 -9.1875  Q 8.203125 -11.328125 11.90625 -12.34375  Q 15.625 -13.375 19.828125 -13.375  Q 28.375 -13.375 33.859375 -8.703125  Q 39.359375 -4.046875 41.109375 4.6875  L 41.890625 8.796875  Q 38.140625 4.5 33.15625 2.25  Q 28.171875 0 22.40625 0  Q 14.109375 0 9.34375 5.484375  Q 4.59375 10.984375 4.59375 20.609375  Q 4.59375 28.171875 7.46875 35.421875  Q 10.359375 42.671875 15.578125 48.296875  Q 19.046875 52 23.65625 54  Q 28.265625 56 33.296875 56  Q 38.8125 56 42.90625 53.4375  Q 47.015625 50.875 49.03125 46.1875  L 50.59375 54.6875  z M 46.09375 34.625  Q 46.09375 41.265625 42.96875 44.875  Q 39.84375 48.484375 34.078125 48.484375  Q 30.515625 48.484375 27.296875 47.0625  Q 24.078125 45.65625 21.78125 43.109375  Q 18.0625 38.921875 15.984375 33.234375  Q 13.921875 27.546875 13.921875 21.484375  Q 13.921875 14.75 17.0625 11.125  Q 20.21875 7.515625 26.125 7.515625  Q 34.671875 7.515625 40.375 15.25  Q 46.09375 23 46.09375 34.625  z " />
              <path
                 id="DejaVuSans-Oblique-73"
                 d="M 50 53.078125  L 48.296875 44.578125  Q 44.734375 46.53125 40.765625 47.5  Q 36.8125 48.484375 32.625 48.484375  Q 25.53125 48.484375 21.453125 46.0625  Q 17.390625 43.65625 17.390625 39.5  Q 17.390625 34.671875 26.859375 32.078125  Q 27.59375 31.890625 27.9375 31.78125  L 30.8125 30.90625  Q 39.796875 28.421875 42.796875 25.6875  Q 45.796875 22.953125 45.796875 18.21875  Q 45.796875 9.515625 38.890625 4.046875  Q 31.984375 -1.421875 20.796875 -1.421875  Q 16.453125 -1.421875 11.671875 -0.578125  Q 6.890625 0.25 1.125 2  L 2.875 11.28125  Q 7.8125 8.734375 12.59375 7.421875  Q 17.390625 6.109375 21.78125 6.109375  Q 28.375 6.109375 32.5 8.9375  Q 36.625 11.765625 36.625 16.109375  Q 36.625 20.796875 25.78125 23.6875  L 24.859375 23.921875  L 21.78125 24.703125  Q 14.9375 26.515625 11.765625 29.46875  Q 8.59375 32.421875 8.59375 37.015625  Q 8.59375 45.75 15.15625 50.875  Q 21.734375 56 33.015625 56  Q 37.453125 56 41.671875 55.265625  Q 45.90625 54.546875 50 53.078125  z " />
              <path
                 id="DejaVuSans-Oblique-66"
                 d="M 47.796875 75.984375  L 46.390625 68.5  L 37.796875 68.5  Q 32.90625 68.5 30.6875 66.578125  Q 28.46875 64.65625 27.390625 59.515625  L 26.421875 54.6875  L 41.21875 54.6875  L 39.890625 47.703125  L 25.09375 47.703125  L 15.828125 0  L 6.78125 0  L 16.109375 47.703125  L 7.515625 47.703125  L 8.796875 54.6875  L 17.390625 54.6875  L 18.109375 58.5  Q 19.96875 68.171875 24.625 72.078125  Q 29.296875 75.984375 39.3125 75.984375  z " />
              <path
                 id="DejaVuSans-Oblique-72"
                 d="M 44.578125 46.390625  Q 43.21875 47.125 41.453125 47.515625  Q 39.703125 47.90625 37.703125 47.90625  Q 30.515625 47.90625 25.140625 42.453125  Q 19.78125 37.015625 18.015625 27.875  L 12.5 0  L 3.515625 0  L 14.203125 54.6875  L 23.1875 54.6875  L 21.484375 46.1875  Q 25.046875 50.921875 30 53.453125  Q 34.96875 56 40.578125 56  Q 42.046875 56 43.453125 55.828125  Q 44.875 55.671875 46.296875 55.28125  z " />
              <path
                 id="DejaVuSans-Oblique-6f"
                 d="M 25.390625 -1.421875  Q 15.765625 -1.421875 10.171875 4.515625  Q 4.59375 10.453125 4.59375 20.703125  Q 4.59375 26.65625 6.515625 32.828125  Q 8.453125 39.015625 11.53125 43.21875  Q 16.359375 49.75 22.3125 52.875  Q 28.265625 56 35.796875 56  Q 45.125 56 50.859375 50.1875  Q 56.59375 44.390625 56.59375 35.015625  Q 56.59375 28.515625 54.6875 22.0625  Q 52.78125 15.625 49.703125 11.375  Q 44.921875 4.828125 38.96875 1.703125  Q 33.015625 -1.421875 25.390625 -1.421875  z M 13.921875 21  Q 13.921875 13.578125 17.015625 9.890625  Q 20.125 6.203125 26.421875 6.203125  Q 35.453125 6.203125 41.375 14.078125  Q 47.3125 21.96875 47.3125 34.078125  Q 47.3125 41.15625 44.140625 44.765625  Q 40.96875 48.390625 34.8125 48.390625  Q 29.734375 48.390625 25.78125 46.015625  Q 21.828125 43.65625 18.703125 38.8125  Q 16.40625 35.203125 15.15625 30.5625  Q 13.921875 25.921875 13.921875 21  z " />
              <path
                 id="DejaVuSans-Oblique-6d"
                 d="M 89.796875 33.015625  L 83.40625 0  L 74.421875 0  L 80.71875 32.71875  Q 81.109375 34.8125 81.296875 36.328125  Q 81.5 37.84375 81.5 38.921875  Q 81.5 43.3125 79.046875 45.75  Q 76.609375 48.1875 72.21875 48.1875  Q 65.671875 48.1875 60.546875 43.28125  Q 55.421875 38.375 53.90625 30.515625  L 47.90625 0  L 38.921875 0  L 45.3125 32.71875  Q 45.703125 34.515625 45.890625 36.046875  Q 46.09375 37.59375 46.09375 38.8125  Q 46.09375 43.265625 43.65625 45.71875  Q 41.21875 48.1875 36.921875 48.1875  Q 30.28125 48.1875 25.140625 43.28125  Q 20.015625 38.375 18.5 30.515625  L 12.5 0  L 3.515625 0  L 14.203125 54.6875  L 23.1875 54.6875  L 21.484375 46.1875  Q 25.140625 50.984375 30.046875 53.484375  Q 34.96875 56 40.578125 56  Q 46.53125 56 50.359375 52.875  Q 54.203125 49.75 54.984375 44.1875  Q 59.078125 49.953125 64.46875 52.96875  Q 69.875 56 75.875 56  Q 82.90625 56 86.734375 51.953125  Q 90.578125 47.90625 90.578125 40.484375  Q 90.578125 38.875 90.375 36.9375  Q 90.1875 35.015625 89.796875 33.015625  z " />
              <path
                 id="DejaVuSans-Oblique-56"
                 d="M 20.609375 0  L 7.8125 72.90625  L 17.484375 72.90625  L 28.078125 10.203125  L 63.484375 72.90625  L 74.21875 72.90625  L 32.078125 0  z " />
              <path
                 id="DejaVuSans-32"
                 d="M 19.1875 8.296875  L 53.609375 8.296875  L 53.609375 0  L 7.328125 0  L 7.328125 8.296875  Q 12.9375 14.109375 22.625 23.890625  Q 32.328125 33.6875 34.8125 36.53125  Q 39.546875 41.84375 41.421875 45.53125  Q 43.3125 49.21875 43.3125 52.78125  Q 43.3125 58.59375 39.234375 62.25  Q 35.15625 65.921875 28.609375 65.921875  Q 23.96875 65.921875 18.8125 64.3125  Q 13.671875 62.703125 7.8125 59.421875  L 7.8125 69.390625  Q 13.765625 71.78125 18.9375 73  Q 24.125 74.21875 28.421875 74.21875  Q 39.75 74.21875 46.484375 68.546875  Q 53.21875 62.890625 53.21875 53.421875  Q 53.21875 48.921875 51.53125 44.890625  Q 49.859375 40.875 45.40625 35.40625  Q 44.1875 33.984375 37.640625 27.21875  Q 31.109375 20.453125 19.1875 8.296875  z " />
              <path
                 id="DejaVuSans-Oblique-47"
                 d="M 54.59375 10.890625  L 58.40625 29.984375  L 42.1875 29.984375  L 43.703125 38.09375  L 69.578125 38.09375  L 63.28125 6  Q 56.78125 2.4375 49.109375 0.5  Q 41.453125 -1.421875 33.6875 -1.421875  Q 19.96875 -1.421875 12.234375 6.1875  Q 4.5 13.8125 4.5 27.390625  Q 4.5 38.671875 9.203125 48.84375  Q 13.921875 59.03125 22.21875 65.828125  Q 27.4375 70.0625 33.640625 72.140625  Q 39.84375 74.21875 47.40625 74.21875  Q 54.25 74.21875 60.515625 72.484375  Q 66.796875 70.75 72.515625 67.28125  L 70.515625 56.78125  Q 66.109375 61.375 60.203125 63.796875  Q 54.296875 66.21875 47.609375 66.21875  Q 39.84375 66.21875 33.9375 63.25  Q 28.03125 60.296875 23.390625 54.109375  Q 19.4375 48.828125 17.15625 41.671875  Q 14.890625 34.515625 14.890625 27.09375  Q 14.890625 16.890625 20.109375 11.734375  Q 25.34375 6.59375 35.6875 6.59375  Q 40.875 6.59375 45.703125 7.6875  Q 50.53125 8.796875 54.59375 10.890625  z " />
              <path
                 id="DejaVuSans-Oblique-65"
                 d="M 48.09375 32.234375  Q 48.25 33.015625 48.3125 33.84375  Q 48.390625 34.671875 48.390625 35.5  Q 48.390625 41.453125 44.890625 44.921875  Q 41.40625 48.390625 35.40625 48.390625  Q 28.71875 48.390625 23.578125 44.15625  Q 18.453125 39.9375 15.828125 32.171875  z M 55.90625 25.203125  L 14.109375 25.203125  Q 13.8125 23.34375 13.71875 22.265625  Q 13.625 21.1875 13.625 20.40625  Q 13.625 13.625 17.796875 9.90625  Q 21.96875 6.203125 29.59375 6.203125  Q 35.453125 6.203125 40.671875 7.515625  Q 45.90625 8.84375 50.390625 11.375  L 48.6875 2.484375  Q 43.84375 0.53125 38.6875 -0.4375  Q 33.546875 -1.421875 28.21875 -1.421875  Q 16.84375 -1.421875 10.71875 4.015625  Q 4.59375 9.46875 4.59375 19.484375  Q 4.59375 28.03125 7.640625 35.375  Q 10.6875 42.71875 16.609375 48.484375  Q 20.40625 52.09375 25.65625 54.046875  Q 30.90625 56 36.8125 56  Q 46.09375 56 51.578125 50.4375  Q 57.078125 44.875 57.078125 35.5  Q 57.078125 33.25 56.78125 30.6875  Q 56.5 28.125 55.90625 25.203125  z " />
              <path
                 id="DejaVuSans-Oblique-6c"
                 d="M 18.3125 75.984375  L 27.296875 75.984375  L 12.5 0  L 3.515625 0  z " />
              <path
                 id="DejaVuSans-Oblique-63"
                 d="M 53.609375 52.59375  L 51.8125 43.703125  Q 48.578125 46.046875 44.9375 47.21875  Q 41.3125 48.390625 37.40625 48.390625  Q 33.109375 48.390625 29.21875 46.875  Q 25.34375 45.359375 22.703125 42.578125  Q 18.5 38.328125 16.203125 32.609375  Q 13.921875 26.90625 13.921875 20.796875  Q 13.921875 13.421875 17.609375 9.8125  Q 21.296875 6.203125 28.8125 6.203125  Q 32.515625 6.203125 36.6875 7.328125  Q 40.875 8.453125 45.40625 10.6875  L 43.703125 1.8125  Q 39.796875 0.203125 35.671875 -0.609375  Q 31.546875 -1.421875 27.203125 -1.421875  Q 16.3125 -1.421875 10.453125 4.015625  Q 4.59375 9.46875 4.59375 19.578125  Q 4.59375 28.078125 7.640625 35.234375  Q 10.6875 42.390625 16.703125 48.09375  Q 20.796875 52 26.3125 54  Q 31.84375 56 38.375 56  Q 42.1875 56 45.9375 55.140625  Q 49.703125 54.296875 53.609375 52.59375  z " />
              <path
                 id="DejaVuSans-Oblique-75"
                 d="M 6.6875 21.6875  L 13.09375 54.6875  L 22.125 54.6875  L 15.71875 22.015625  Q 15.234375 19.625 15.015625 17.921875  Q 14.796875 16.21875 14.796875 15.09375  Q 14.796875 10.9375 17.328125 8.65625  Q 19.875 6.390625 24.515625 6.390625  Q 31.734375 6.390625 37 11.265625  Q 42.28125 16.15625 43.890625 24.421875  L 49.90625 54.6875  L 58.890625 54.6875  L 48.296875 0  L 39.3125 0  L 41.109375 8.59375  Q 37.3125 3.8125 32.0625 1.1875  Q 26.8125 -1.421875 20.90625 -1.421875  Q 13.71875 -1.421875 9.71875 2.515625  Q 5.71875 6.453125 5.71875 13.484375  Q 5.71875 14.9375 5.953125 17.140625  Q 6.203125 19.34375 6.6875 21.6875  z " />
              <path
                 id="DejaVuSans-Oblique-74"
                 d="M 42.28125 54.6875  L 40.921875 47.703125  L 23 47.703125  L 17.1875 18.015625  Q 16.890625 16.359375 16.75 15.234375  Q 16.609375 14.109375 16.609375 13.484375  Q 16.609375 10.359375 18.484375 8.9375  Q 20.359375 7.515625 24.515625 7.515625  L 33.59375 7.515625  L 32.078125 0  L 23.484375 0  Q 15.484375 0 11.546875 3.125  Q 7.625 6.25 7.625 12.59375  Q 7.625 13.71875 7.765625 15.0625  Q 7.90625 16.40625 8.203125 18.015625  L 14.015625 47.703125  L 6.390625 47.703125  L 7.8125 54.6875  L 15.28125 54.6875  L 18.3125 70.21875  L 27.296875 70.21875  L 24.3125 54.6875  z " />
              <path
                 id="DejaVuSans-28"
                 d="M 31 75.875  Q 24.46875 64.65625 21.28125 53.65625  Q 18.109375 42.671875 18.109375 31.390625  Q 18.109375 20.125 21.3125 9.0625  Q 24.515625 -2 31 -13.1875  L 23.1875 -13.1875  Q 15.875 -1.703125 12.234375 9.375  Q 8.59375 20.453125 8.59375 31.390625  Q 8.59375 42.28125 12.203125 53.3125  Q 15.828125 64.359375 23.1875 75.875  z " />
              <path
                 id="DejaVuSans-24"
                 d="M 33.796875 -14.703125  L 28.90625 -14.703125  L 28.859375 0  Q 23.734375 0.09375 18.609375 1.1875  Q 13.484375 2.296875 8.296875 4.5  L 8.296875 13.28125  Q 13.28125 10.15625 18.375 8.5625  Q 23.484375 6.984375 28.90625 6.9375  L 28.90625 29.203125  Q 18.109375 30.953125 13.203125 35.15625  Q 8.296875 39.359375 8.296875 46.6875  Q 8.296875 54.640625 13.625 59.21875  Q 18.953125 63.8125 28.90625 64.5  L 28.90625 75.984375  L 33.796875 75.984375  L 33.796875 64.65625  Q 38.328125 64.453125 42.578125 63.6875  Q 46.828125 62.9375 50.875 61.625  L 50.875 53.078125  Q 46.828125 55.125 42.546875 56.25  Q 38.28125 57.375 33.796875 57.5625  L 33.796875 36.71875  Q 44.875 35.015625 50.09375 30.609375  Q 55.328125 26.21875 55.328125 18.609375  Q 55.328125 10.359375 49.78125 5.59375  Q 44.234375 0.828125 33.796875 0.09375  z M 28.90625 37.59375  L 28.90625 57.625  Q 23.25 56.984375 20.265625 54.390625  Q 17.28125 51.8125 17.28125 47.515625  Q 17.28125 43.3125 20.03125 40.96875  Q 22.796875 38.625 28.90625 37.59375  z M 33.796875 28.21875  L 33.796875 7.078125  Q 39.984375 7.90625 43.140625 10.59375  Q 46.296875 13.28125 46.296875 17.671875  Q 46.296875 21.96875 43.28125 24.5  Q 40.28125 27.046875 33.796875 28.21875  z " />
              <path
                 id="DejaVuSans-29"
                 d="M 8.015625 75.875  L 15.828125 75.875  Q 23.140625 64.359375 26.78125 53.3125  Q 30.421875 42.28125 30.421875 31.390625  Q 30.421875 20.453125 26.78125 9.375  Q 23.140625 -1.703125 15.828125 -13.1875  L 8.015625 -13.1875  Q 14.5 -2 17.703125 9.0625  Q 20.90625 20.125 20.90625 31.390625  Q 20.90625 42.671875 17.703125 53.65625  Q 14.5 64.65625 8.015625 75.875  z " />
            </defs>
            <g
               id="g195"
               transform="translate(79.575 343.440906)scale(0.143 -0.143)"
               style="fill:#262626;">
              <use
                 id="use127"
                 xlink:href="#DejaVuSans-Oblique-53"
                 transform="translate(0 0.015625)" />
              <use
                 id="use129"
                 xlink:href="#DejaVuSans-Oblique-61"
                 transform="translate(63.476562 0.015625)" />
              <use
                 id="use131"
                 xlink:href="#DejaVuSans-Oblique-76"
                 transform="translate(124.755859 0.015625)" />
              <use
                 id="use133"
                 xlink:href="#DejaVuSans-Oblique-69"
                 transform="translate(183.935547 0.015625)" />
              <use
                 id="use135"
                 xlink:href="#DejaVuSans-Oblique-6e"
                 transform="translate(211.71875 0.015625)" />
              <use
                 id="use137"
                 xlink:href="#DejaVuSans-Oblique-67"
                 transform="translate(275.097656 0.015625)" />
              <use
                 id="use139"
                 xlink:href="#DejaVuSans-Oblique-73"
                 transform="translate(338.574219 0.015625)" />
              <use
                 id="use141"
                 xlink:href="#DejaVuSans-Oblique-66"
                 transform="translate(423.144207 0.015625)" />
              <use
                 id="use143"
                 xlink:href="#DejaVuSans-Oblique-72"
                 transform="translate(458.349285 0.015625)" />
              <use
                 id="use145"
                 xlink:href="#DejaVuSans-Oblique-6f"
                 transform="translate(499.462566 0.015625)" />
              <use
                 id="use147"
                 xlink:href="#DejaVuSans-Oblique-6d"
                 transform="translate(560.644207 0.015625)" />
              <use
                 id="use149"
                 xlink:href="#DejaVuSans-Oblique-56"
                 transform="translate(690.526694 0.015625)" />
              <use
                 id="use151"
                 xlink:href="#DejaVuSans-32"
                 transform="translate(758.934897 0.015625)" />
              <use
                 id="use153"
                 xlink:href="#DejaVuSans-Oblique-47"
                 transform="translate(822.557944 0.015625)" />
              <use
                 id="use155"
                 xlink:href="#DejaVuSans-Oblique-6f"
                 transform="translate(932.518557 0.015625)" />
              <use
                 id="use157"
                 xlink:href="#DejaVuSans-Oblique-76"
                 transform="translate(993.700198 0.015625)" />
              <use
                 id="use159"
                 xlink:href="#DejaVuSans-Oblique-65"
                 transform="translate(1052.879885 0.015625)" />
              <use
                 id="use161"
                 xlink:href="#DejaVuSans-Oblique-72"
                 transform="translate(1114.403323 0.015625)" />
              <use
                 id="use163"
                 xlink:href="#DejaVuSans-Oblique-6e"
                 transform="translate(1187.986982 0.015625)" />
              <use
                 id="use165"
                 xlink:href="#DejaVuSans-Oblique-6f"
                 transform="translate(1251.365889 0.015625)" />
              <use
                 id="use167"
                 xlink:href="#DejaVuSans-Oblique-72"
                 transform="translate(1312.547529 0.015625)" />
              <use
                 id="use169"
                 xlink:href="#DejaVuSans-Oblique-6d"
                 transform="translate(1353.660811 0.015625)" />
              <use
                 id="use171"
                 xlink:href="#DejaVuSans-Oblique-61"
                 transform="translate(1451.07292 0.015625)" />
              <use
                 id="use173"
                 xlink:href="#DejaVuSans-Oblique-6c"
                 transform="translate(1512.352217 0.015625)" />
              <use
                 id="use175"
                 xlink:href="#DejaVuSans-Oblique-63"
                 transform="translate(1572.605798 0.015625)" />
              <use
                 id="use177"
                 xlink:href="#DejaVuSans-Oblique-6f"
                 transform="translate(1627.586267 0.015625)" />
              <use
                 id="use179"
                 xlink:href="#DejaVuSans-Oblique-6d"
                 transform="translate(1688.767908 0.015625)" />
              <use
                 id="use181"
                 xlink:href="#DejaVuSans-Oblique-6d"
                 transform="translate(1786.180017 0.015625)" />
              <use
                 id="use183"
                 xlink:href="#DejaVuSans-Oblique-75"
                 transform="translate(1883.592126 0.015625)" />
              <use
                 id="use185"
                 xlink:href="#DejaVuSans-Oblique-74"
                 transform="translate(1946.971033 0.015625)" />
              <use
                 id="use187"
                 xlink:href="#DejaVuSans-Oblique-65"
                 transform="translate(1986.180017 0.015625)" />
              <use
                 id="use189"
                 xlink:href="#DejaVuSans-28"
                 transform="translate(2047.703455 0.015625)" />
              <use
                 id="use191"
                 xlink:href="#DejaVuSans-24"
                 transform="translate(2086.717126 0.015625)" />
              <use
                 id="use193"
                 xlink:href="#DejaVuSans-29"
                 transform="translate(2150.340173 0.015625)" />
            </g>
          </g>
        </g>
        <g
           id="matplotlib.axis_2">
          <g
             id="ytick_1">
            <g
               id="line2d_7" />
            <g
               id="text_8">
              <!-- 0 -->
              <g
                 id="g202"
                 transform="translate(41.270781 312.236578)scale(0.13 -0.13)"
                 style="fill:#262626;">
                <use
                   id="use200"
                   xlink:href="#ArialMT-30" />
              </g>
            </g>
          </g>
          <g
             id="ytick_2">
            <g
               id="line2d_8" />
            <g
               id="text_9">
              <!-- 100 -->
              <g
                 id="g213"
                 transform="translate(26.812344 263.870166)scale(0.13 -0.13)"
                 style="fill:#262626;">
                <use
                   id="use207"
                   xlink:href="#ArialMT-31" />
                <use
                   id="use209"
                   xlink:href="#ArialMT-30"
                   x="55.615234" />
                <use
                   id="use211"
                   xlink:href="#ArialMT-30"
                   x="111.230469" />
              </g>
            </g>
          </g>
          <g
             id="ytick_3">
            <g
               id="line2d_9" />
            <g
               id="text_10">
              <!-- 200 -->
              <g
                 id="g224"
                 transform="translate(26.812344 215.503754)scale(0.13 -0.13)"
                 style="fill:#262626;">
                <use
                   id="use218"
                   xlink:href="#ArialMT-32" />
                <use
                   id="use220"
                   xlink:href="#ArialMT-30"
                   x="55.615234" />
                <use
                   id="use222"
                   xlink:href="#ArialMT-30"
                   x="111.230469" />
              </g>
            </g>
          </g>
          <g
             id="ytick_4">
            <g
               id="line2d_10" />
            <g
               id="text_11">
              <!-- 300 -->
              <defs
                 id="defs230">
                <path
                   id="ArialMT-33"
                   d="M 4.203125 18.890625  L 12.984375 20.0625  Q 14.5 12.59375 18.140625 9.296875  Q 21.78125 6 27 6  Q 33.203125 6 37.46875 10.296875  Q 41.75 14.59375 41.75 20.953125  Q 41.75 27 37.796875 30.921875  Q 33.84375 34.859375 27.734375 34.859375  Q 25.25 34.859375 21.53125 33.890625  L 22.515625 41.609375  Q 23.390625 41.5 23.921875 41.5  Q 29.546875 41.5 34.03125 44.421875  Q 38.53125 47.359375 38.53125 53.46875  Q 38.53125 58.296875 35.25 61.46875  Q 31.984375 64.65625 26.8125 64.65625  Q 21.6875 64.65625 18.265625 61.421875  Q 14.84375 58.203125 13.875 51.765625  L 5.078125 53.328125  Q 6.6875 62.15625 12.390625 67.015625  Q 18.109375 71.875 26.609375 71.875  Q 32.46875 71.875 37.390625 69.359375  Q 42.328125 66.84375 44.9375 62.5  Q 47.5625 58.15625 47.5625 53.265625  Q 47.5625 48.640625 45.0625 44.828125  Q 42.578125 41.015625 37.703125 38.765625  Q 44.046875 37.3125 47.5625 32.6875  Q 51.078125 28.078125 51.078125 21.140625  Q 51.078125 11.765625 44.234375 5.25  Q 37.40625 -1.265625 26.953125 -1.265625  Q 17.53125 -1.265625 11.296875 4.34375  Q 5.078125 9.96875 4.203125 18.890625  z " />
              </defs>
              <g
                 id="g238"
                 transform="translate(26.812344 167.137341)scale(0.13 -0.13)"
                 style="fill:#262626;">
                <use
                   id="use232"
                   xlink:href="#ArialMT-33" />
                <use
                   id="use234"
                   xlink:href="#ArialMT-30"
                   x="55.615234" />
                <use
                   id="use236"
                   xlink:href="#ArialMT-30"
                   x="111.230469" />
              </g>
            </g>
          </g>
          <g
             id="ytick_5">
            <g
               id="line2d_11" />
            <g
               id="text_12">
              <!-- 400 -->
              <g
                 id="g249"
                 transform="translate(26.812344 118.770929)scale(0.13 -0.13)"
                 style="fill:#262626;">
                <use
                   id="use243"
                   xlink:href="#ArialMT-34" />
                <use
                   id="use245"
                   xlink:href="#ArialMT-30"
                   x="55.615234" />
                <use
                   id="use247"
                   xlink:href="#ArialMT-30"
                   x="111.230469" />
              </g>
            </g>
          </g>
          <g
             id="ytick_6">
            <g
               id="line2d_12" />
            <g
               id="text_13">
              <!-- 500 -->
              <defs
                 id="defs255">
                <path
                   id="ArialMT-35"
                   d="M 4.15625 18.75  L 13.375 19.53125  Q 14.40625 12.796875 18.140625 9.390625  Q 21.875 6 27.15625 6  Q 33.5 6 37.890625 10.78125  Q 42.28125 15.578125 42.28125 23.484375  Q 42.28125 31 38.0625 35.34375  Q 33.84375 39.703125 27 39.703125  Q 22.75 39.703125 19.328125 37.765625  Q 15.921875 35.84375 13.96875 32.765625  L 5.71875 33.84375  L 12.640625 70.609375  L 48.25 70.609375  L 48.25 62.203125  L 19.671875 62.203125  L 15.828125 42.96875  Q 22.265625 47.46875 29.34375 47.46875  Q 38.71875 47.46875 45.15625 40.96875  Q 51.609375 34.46875 51.609375 24.265625  Q 51.609375 14.546875 45.953125 7.46875  Q 39.0625 -1.21875 27.15625 -1.21875  Q 17.390625 -1.21875 11.203125 4.25  Q 5.03125 9.71875 4.15625 18.75  z " />
              </defs>
              <g
                 id="g263"
                 transform="translate(26.812344 70.404517)scale(0.13 -0.13)"
                 style="fill:#262626;">
                <use
                   id="use257"
                   xlink:href="#ArialMT-35" />
                <use
                   id="use259"
                   xlink:href="#ArialMT-30"
                   x="55.615234" />
                <use
                   id="use261"
                   xlink:href="#ArialMT-30"
                   x="111.230469" />
              </g>
            </g>
          </g>
          <g
             id="text_14">
            <!-- $Number\ of\ EV\ Users\ $ -->
            <defs
               id="defs271">
              <path
                 id="DejaVuSans-Oblique-4e"
                 d="M 16.890625 72.90625  L 30.171875 72.90625  L 50.296875 10.40625  L 62.5 72.90625  L 72.125 72.90625  L 57.90625 0  L 44.578125 0  L 24.515625 62.890625  L 12.3125 0  L 2.6875 0  z " />
              <path
                 id="DejaVuSans-Oblique-62"
                 d="M 49.515625 33.40625  Q 49.515625 40.484375 46.265625 44.484375  Q 43.015625 48.484375 37.3125 48.484375  Q 33.15625 48.484375 29.515625 46.453125  Q 25.875 44.4375 23.1875 40.578125  Q 20.359375 36.53125 18.71875 31.171875  Q 17.09375 25.828125 17.09375 20.515625  Q 17.09375 13.765625 20.28125 9.9375  Q 23.484375 6.109375 29.109375 6.109375  Q 33.34375 6.109375 36.953125 8.078125  Q 40.578125 10.0625 43.3125 13.921875  Q 46.09375 17.921875 47.796875 23.234375  Q 49.515625 28.5625 49.515625 33.40625  z M 21.578125 46.390625  Q 24.90625 50.875 29.90625 53.4375  Q 34.90625 56 40.375 56  Q 48.78125 56 53.734375 50.328125  Q 58.6875 44.671875 58.6875 35.015625  Q 58.6875 27.09375 55.78125 19.671875  Q 52.875 12.25 47.515625 6.5  Q 44 2.6875 39.40625 0.625  Q 34.8125 -1.421875 29.78125 -1.421875  Q 24.46875 -1.421875 20.5625 1.015625  Q 16.65625 3.46875 14.203125 8.296875  L 12.59375 0  L 3.609375 0  L 18.40625 75.984375  L 27.390625 75.984375  z " />
              <path
                 id="DejaVuSans-Oblique-45"
                 d="M 16.890625 72.90625  L 62.984375 72.90625  L 61.375 64.59375  L 25.09375 64.59375  L 20.90625 43.015625  L 55.71875 43.015625  L 54.109375 34.71875  L 19.28125 34.71875  L 14.203125 8.296875  L 51.3125 8.296875  L 49.703125 0  L 2.6875 0  z " />
              <path
                 id="DejaVuSans-Oblique-55"
                 d="M 15.484375 72.90625  L 25.390625 72.90625  L 16.796875 28.609375  Q 16.265625 25.640625 16.046875 23.703125  Q 15.828125 21.78125 15.828125 20.3125  Q 15.828125 13.578125 19.578125 10.078125  Q 23.34375 6.59375 30.609375 6.59375  Q 40.046875 6.59375 45.28125 11.765625  Q 50.53125 16.9375 52.78125 28.609375  L 61.375 72.90625  L 71.296875 72.90625  L 62.5 27.390625  Q 59.625 12.640625 51.5625 5.609375  Q 43.5 -1.421875 29.5 -1.421875  Q 18.5625 -1.421875 12.1875 4.078125  Q 5.8125 9.578125 5.8125 19  Q 5.8125 20.703125 6.046875 22.828125  Q 6.296875 24.953125 6.78125 27.390625  z " />
            </defs>
            <g
               id="g303"
               transform="translate(19.970219 248.888)rotate(-90)scale(0.143 -0.143)"
               style="fill:#262626;">
              <use
                 id="use273"
                 xlink:href="#DejaVuSans-Oblique-4e"
                 transform="translate(0 0.015625)" />
              <use
                 id="use275"
                 xlink:href="#DejaVuSans-Oblique-75"
                 transform="translate(74.804688 0.015625)" />
              <use
                 id="use277"
                 xlink:href="#DejaVuSans-Oblique-6d"
                 transform="translate(138.183594 0.015625)" />
              <use
                 id="use279"
                 xlink:href="#DejaVuSans-Oblique-62"
                 transform="translate(235.595703 0.015625)" />
              <use
                 id="use281"
                 xlink:href="#DejaVuSans-Oblique-65"
                 transform="translate(299.072266 0.015625)" />
              <use
                 id="use283"
                 xlink:href="#DejaVuSans-Oblique-72"
                 transform="translate(360.595703 0.015625)" />
              <use
                 id="use285"
                 xlink:href="#DejaVuSans-Oblique-6f"
                 transform="translate(434.179363 0.015625)" />
              <use
                 id="use287"
                 xlink:href="#DejaVuSans-Oblique-66"
                 transform="translate(495.361003 0.015625)" />
              <use
                 id="use289"
                 xlink:href="#DejaVuSans-Oblique-45"
                 transform="translate(563.03646 0.015625)" />
              <use
                 id="use291"
                 xlink:href="#DejaVuSans-Oblique-56"
                 transform="translate(626.220054 0.015625)" />
              <use
                 id="use293"
                 xlink:href="#DejaVuSans-Oblique-55"
                 transform="translate(727.098635 0.015625)" />
              <use
                 id="use295"
                 xlink:href="#DejaVuSans-Oblique-73"
                 transform="translate(800.291995 0.015625)" />
              <use
                 id="use297"
                 xlink:href="#DejaVuSans-Oblique-65"
                 transform="translate(852.391604 0.015625)" />
              <use
                 id="use299"
                 xlink:href="#DejaVuSans-Oblique-72"
                 transform="translate(913.915042 0.015625)" />
              <use
                 id="use301"
                 xlink:href="#DejaVuSans-Oblique-73"
                 transform="translate(955.028323 0.015625)" />
            </g>
          </g>
        </g>
        <g
           id="patch_3">
          <path
             id="path307"
             style="fill:#191970;opacity:0.5;"
             d="M 73.832727 307.584  L 90.919809 307.584  L 90.919809 274.69484  L 73.832727 274.69484  z "
             clip-path="url(#p6addc8cfe1)" />
        </g>
        <g
           id="patch_4">
          <path
             id="path310"
             style="fill:#191970;opacity:0.5;"
             d="M 90.919809 307.584  L 108.00689 307.584  L 108.00689 54.144  L 90.919809 54.144  z "
             clip-path="url(#p6addc8cfe1)" />
        </g>
        <g
           id="patch_5">
          <path
             id="path313"
             style="fill:#191970;opacity:0.5;"
             d="M 108.00689 307.584  L 125.093971 307.584  L 125.093971 95.25545  L 108.00689 95.25545  z "
             clip-path="url(#p6addc8cfe1)" />
        </g>
        <g
           id="patch_6">
          <path
             id="path316"
             style="fill:#191970;opacity:0.5;"
             d="M 125.093971 307.584  L 142.181053 307.584  L 142.181053 147.491176  L 125.093971 147.491176  z "
             clip-path="url(#p6addc8cfe1)" />
        </g>
        <g
           id="patch_7">
          <path
             id="path319"
             style="fill:#191970;opacity:0.5;"
             d="M 142.181053 307.584  L 159.268134 307.584  L 159.268134 147.97484  L 142.181053 147.97484  z "
             clip-path="url(#p6addc8cfe1)" />
        </g>
        <g
           id="patch_8">
          <path
             id="path322"
             style="fill:#191970;opacity:0.5;"
             d="M 159.268134 307.584  L 176.355215 307.584  L 176.355215 207.465527  L 159.268134 207.465527  z "
             clip-path="url(#p6addc8cfe1)" />
        </g>
        <g
           id="patch_9">
          <path
             id="path325"
             style="fill:#191970;opacity:0.5;"
             d="M 176.355215 307.584  L 193.442297 307.584  L 193.442297 226.328427  L 176.355215 226.328427  z "
             clip-path="url(#p6addc8cfe1)" />
        </g>
        <g
           id="patch_10">
          <path
             id="path328"
             style="fill:#191970;opacity:0.5;"
             d="M 193.442297 307.584  L 210.529378 307.584  L 210.529378 243.740336  L 193.442297 243.740336  z "
             clip-path="url(#p6addc8cfe1)" />
        </g>
        <g
           id="patch_11">
          <path
             id="path331"
             style="fill:#191970;opacity:0.5;"
             d="M 210.529378 307.584  L 227.616459 307.584  L 227.616459 263.086901  L 210.529378 263.086901  z "
             clip-path="url(#p6addc8cfe1)" />
        </g>
        <g
           id="patch_12">
          <path
             id="path334"
             style="fill:#191970;opacity:0.5;"
             d="M 227.616459 307.584  L 244.703541 307.584  L 244.703541 279.531481  L 227.616459 279.531481  z "
             clip-path="url(#p6addc8cfe1)" />
        </g>
        <g
           id="patch_13">
          <path
             id="path337"
             style="fill:#191970;opacity:0.5;"
             d="M 244.703541 307.584  L 261.790622 307.584  L 261.790622 280.015145  L 244.703541 280.015145  z "
             clip-path="url(#p6addc8cfe1)" />
        </g>
        <g
           id="patch_14">
          <path
             id="path340"
             style="fill:#191970;opacity:0.5;"
             d="M 261.790622 307.584  L 278.877703 307.584  L 278.877703 280.498809  L 261.790622 280.498809  z "
             clip-path="url(#p6addc8cfe1)" />
        </g>
        <g
           id="patch_15">
          <path
             id="path343"
             style="fill:#191970;opacity:0.5;"
             d="M 278.877703 307.584  L 295.964785 307.584  L 295.964785 293.55774  L 278.877703 293.55774  z "
             clip-path="url(#p6addc8cfe1)" />
        </g>
        <g
           id="patch_16">
          <path
             id="path346"
             style="fill:#191970;opacity:0.5;"
             d="M 295.964785 307.584  L 313.051866 307.584  L 313.051866 299.845374  L 295.964785 299.845374  z "
             clip-path="url(#p6addc8cfe1)" />
        </g>
        <g
           id="patch_17">
          <path
             id="path349"
             style="fill:#191970;opacity:0.5;"
             d="M 313.051866 307.584  L 330.138947 307.584  L 330.138947 296.943389  L 313.051866 296.943389  z "
             clip-path="url(#p6addc8cfe1)" />
        </g>
        <g
           id="patch_18">
          <path
             id="path352"
             style="fill:#191970;opacity:0.5;"
             d="M 330.138947 307.584  L 347.226029 307.584  L 347.226029 297.910718  L 330.138947 297.910718  z "
             clip-path="url(#p6addc8cfe1)" />
        </g>
        <g
           id="patch_19">
          <path
             id="path355"
             style="fill:#191970;opacity:0.5;"
             d="M 347.226029 307.584  L 364.31311 307.584  L 364.31311 304.682015  L 347.226029 304.682015  z "
             clip-path="url(#p6addc8cfe1)" />
        </g>
        <g
           id="patch_20">
          <path
             id="path358"
             style="fill:#191970;opacity:0.5;"
             d="M 364.31311 307.584  L 381.400191 307.584  L 381.400191 305.649344  L 364.31311 305.649344  z "
             clip-path="url(#p6addc8cfe1)" />
        </g>
        <g
           id="patch_21">
          <path
             id="path361"
             style="fill:#191970;opacity:0.5;"
             d="M 381.400191 307.584  L 398.487273 307.584  L 398.487273 307.584  L 381.400191 307.584  z "
             clip-path="url(#p6addc8cfe1)" />
        </g>
        <g
           id="line2d_13">
          <path
             id="path364"
             style="fill:none;stroke:#ffa500;stroke-linecap:round;"
             d="M 90.83697 307.584  L 90.83697 41.472  "
             clip-path="url(#p6addc8cfe1)" />
        </g>
        <g
           id="line2d_14">
          <path
             id="path367"
             style="fill:none;stroke:#ffa500;stroke-linecap:round;"
             d="M 299.01591 307.584  L 299.01591 41.472  "
             clip-path="url(#p6addc8cfe1)" />
        </g>
        <g
           id="patch_22">
          <path
             id="path370"
             style="fill:none;"
             d="M 57.6 307.584  L 57.6 41.472  " />
        </g>
        <g
           id="patch_23">
          <path
             id="path373"
             style="fill:none;"
             d="M 414.72 307.584  L 414.72 41.472  " />
        </g>
        <g
           id="patch_24">
          <path
             id="path376"
             style="fill:none;"
             d="M 57.6 307.584  L 414.72 307.584  " />
        </g>
        <g
           id="patch_25">
          <path
             id="path379"
             style="fill:none;"
             d="M 57.6 41.472  L 414.72 41.472  " />
        </g>
        <g
           id="text_15">
          <!-- With Nykvist battery capital cost -->
          <defs
             id="defs400">
            <path
               id="ArialMT-57"
               d="M 20.21875 0  L 1.21875 71.578125  L 10.9375 71.578125  L 21.828125 24.65625  Q 23.578125 17.28125 24.859375 10.015625  Q 27.59375 21.484375 28.078125 23.25  L 41.703125 71.578125  L 53.125 71.578125  L 63.375 35.359375  Q 67.234375 21.875 68.953125 10.015625  Q 70.3125 16.796875 72.515625 25.59375  L 83.734375 71.578125  L 93.265625 71.578125  L 73.640625 0  L 64.5 0  L 49.421875 54.546875  Q 47.515625 61.375 47.171875 62.9375  Q 46.046875 58.015625 45.0625 54.546875  L 29.890625 0  z " />
            <path
               id="ArialMT-69"
               d="M 6.640625 61.46875  L 6.640625 71.578125  L 15.4375 71.578125  L 15.4375 61.46875  z M 6.640625 0  L 6.640625 51.859375  L 15.4375 51.859375  L 15.4375 0  z " />
            <path
               id="ArialMT-74"
               d="M 25.78125 7.859375  L 27.046875 0.09375  Q 23.34375 -0.6875 20.40625 -0.6875  Q 15.625 -0.6875 12.984375 0.828125  Q 10.359375 2.34375 9.28125 4.8125  Q 8.203125 7.28125 8.203125 15.1875  L 8.203125 45.015625  L 1.765625 45.015625  L 1.765625 51.859375  L 8.203125 51.859375  L 8.203125 64.703125  L 16.9375 69.96875  L 16.9375 51.859375  L 25.78125 51.859375  L 25.78125 45.015625  L 16.9375 45.015625  L 16.9375 14.703125  Q 16.9375 10.9375 17.40625 9.859375  Q 17.875 8.796875 18.921875 8.15625  Q 19.96875 7.515625 21.921875 7.515625  Q 23.390625 7.515625 25.78125 7.859375  z " />
            <path
               id="ArialMT-68"
               d="M 6.59375 0  L 6.59375 71.578125  L 15.375 71.578125  L 15.375 45.90625  Q 21.53125 53.03125 30.90625 53.03125  Q 36.671875 53.03125 40.921875 50.75  Q 45.171875 48.484375 47 44.484375  Q 48.828125 40.484375 48.828125 32.859375  L 48.828125 0  L 40.046875 0  L 40.046875 32.859375  Q 40.046875 39.453125 37.1875 42.453125  Q 34.328125 45.453125 29.109375 45.453125  Q 25.203125 45.453125 21.75 43.421875  Q 18.3125 41.40625 16.84375 37.9375  Q 15.375 34.46875 15.375 28.375  L 15.375 0  z " />
            <path
               id="ArialMT-20" />
            <path
               id="ArialMT-4e"
               d="M 7.625 0  L 7.625 71.578125  L 17.328125 71.578125  L 54.9375 15.375  L 54.9375 71.578125  L 64.015625 71.578125  L 64.015625 0  L 54.296875 0  L 16.703125 56.25  L 16.703125 0  z " />
            <path
               id="ArialMT-79"
               d="M 6.203125 -19.96875  L 5.21875 -11.71875  Q 8.109375 -12.5 10.25 -12.5  Q 13.1875 -12.5 14.9375 -11.515625  Q 16.703125 -10.546875 17.828125 -8.796875  Q 18.65625 -7.46875 20.515625 -2.25  Q 20.75 -1.515625 21.296875 -0.09375  L 1.609375 51.859375  L 11.078125 51.859375  L 21.875 21.828125  Q 23.96875 16.109375 25.640625 9.8125  Q 27.15625 15.875 29.25 21.625  L 40.328125 51.859375  L 49.125 51.859375  L 29.390625 -0.875  Q 26.21875 -9.421875 24.46875 -12.640625  Q 22.125 -17 19.09375 -19.015625  Q 16.0625 -21.046875 11.859375 -21.046875  Q 9.328125 -21.046875 6.203125 -19.96875  z " />
            <path
               id="ArialMT-6b"
               d="M 6.640625 0  L 6.640625 71.578125  L 15.4375 71.578125  L 15.4375 30.765625  L 36.234375 51.859375  L 47.609375 51.859375  L 27.78125 32.625  L 49.609375 0  L 38.765625 0  L 21.625 26.515625  L 15.4375 20.5625  L 15.4375 0  z " />
            <path
               id="ArialMT-76"
               d="M 21 0  L 1.265625 51.859375  L 10.546875 51.859375  L 21.6875 20.796875  Q 23.484375 15.765625 25 10.359375  Q 26.171875 14.453125 28.265625 20.21875  L 39.796875 51.859375  L 48.828125 51.859375  L 29.203125 0  z " />
            <path
               id="ArialMT-73"
               d="M 3.078125 15.484375  L 11.765625 16.84375  Q 12.5 11.625 15.84375 8.84375  Q 19.1875 6.0625 25.203125 6.0625  Q 31.25 6.0625 34.171875 8.515625  Q 37.109375 10.984375 37.109375 14.3125  Q 37.109375 17.28125 34.515625 19  Q 32.71875 20.171875 25.53125 21.96875  Q 15.875 24.421875 12.140625 26.203125  Q 8.40625 27.984375 6.46875 31.125  Q 4.546875 34.28125 4.546875 38.09375  Q 4.546875 41.546875 6.125 44.5  Q 7.71875 47.46875 10.453125 49.421875  Q 12.5 50.921875 16.03125 51.96875  Q 19.578125 53.03125 23.640625 53.03125  Q 29.734375 53.03125 34.34375 51.265625  Q 38.96875 49.515625 41.15625 46.5  Q 43.359375 43.5 44.1875 38.484375  L 35.59375 37.3125  Q 35.015625 41.3125 32.203125 43.546875  Q 29.390625 45.796875 24.265625 45.796875  Q 18.21875 45.796875 15.625 43.796875  Q 13.03125 41.796875 13.03125 39.109375  Q 13.03125 37.40625 14.109375 36.03125  Q 15.1875 34.625 17.484375 33.6875  Q 18.796875 33.203125 25.25 31.453125  Q 34.578125 28.953125 38.25 27.359375  Q 41.9375 25.78125 44.03125 22.75  Q 46.140625 19.734375 46.140625 15.234375  Q 46.140625 10.84375 43.578125 6.953125  Q 41.015625 3.078125 36.171875 0.953125  Q 31.34375 -1.171875 25.25 -1.171875  Q 15.140625 -1.171875 9.84375 3.03125  Q 4.546875 7.234375 3.078125 15.484375  z " />
            <path
               id="ArialMT-62"
               d="M 14.703125 0  L 6.546875 0  L 6.546875 71.578125  L 15.328125 71.578125  L 15.328125 46.046875  Q 20.90625 53.03125 29.546875 53.03125  Q 34.328125 53.03125 38.59375 51.09375  Q 42.875 49.171875 45.625 45.671875  Q 48.390625 42.1875 49.953125 37.25  Q 51.515625 32.328125 51.515625 26.703125  Q 51.515625 13.375 44.921875 6.09375  Q 38.328125 -1.171875 29.109375 -1.171875  Q 19.921875 -1.171875 14.703125 6.5  z M 14.59375 26.3125  Q 14.59375 17 17.140625 12.84375  Q 21.296875 6.0625 28.375 6.0625  Q 34.125 6.0625 38.328125 11.0625  Q 42.53125 16.0625 42.53125 25.984375  Q 42.53125 36.140625 38.5 40.96875  Q 34.46875 45.796875 28.765625 45.796875  Q 23 45.796875 18.796875 40.796875  Q 14.59375 35.796875 14.59375 26.3125  z " />
            <path
               id="ArialMT-61"
               d="M 40.4375 6.390625  Q 35.546875 2.25 31.03125 0.53125  Q 26.515625 -1.171875 21.34375 -1.171875  Q 12.796875 -1.171875 8.203125 3  Q 3.609375 7.171875 3.609375 13.671875  Q 3.609375 17.484375 5.34375 20.625  Q 7.078125 23.78125 9.890625 25.6875  Q 12.703125 27.59375 16.21875 28.5625  Q 18.796875 29.25 24.03125 29.890625  Q 34.671875 31.15625 39.703125 32.90625  Q 39.75 34.71875 39.75 35.203125  Q 39.75 40.578125 37.25 42.78125  Q 33.890625 45.75 27.25 45.75  Q 21.046875 45.75 18.09375 43.578125  Q 15.140625 41.40625 13.71875 35.890625  L 5.125 37.0625  Q 6.296875 42.578125 8.984375 45.96875  Q 11.671875 49.359375 16.75 51.1875  Q 21.828125 53.03125 28.515625 53.03125  Q 35.15625 53.03125 39.296875 51.46875  Q 43.453125 49.90625 45.40625 47.53125  Q 47.359375 45.171875 48.140625 41.546875  Q 48.578125 39.3125 48.578125 33.453125  L 48.578125 21.734375  Q 48.578125 9.46875 49.140625 6.21875  Q 49.703125 2.984375 51.375 0  L 42.1875 0  Q 40.828125 2.734375 40.4375 6.390625  z M 39.703125 26.03125  Q 34.90625 24.078125 25.34375 22.703125  Q 19.921875 21.921875 17.671875 20.9375  Q 15.4375 19.96875 14.203125 18.09375  Q 12.984375 16.21875 12.984375 13.921875  Q 12.984375 10.40625 15.640625 8.0625  Q 18.3125 5.71875 23.4375 5.71875  Q 28.515625 5.71875 32.46875 7.9375  Q 36.421875 10.15625 38.28125 14.015625  Q 39.703125 17 39.703125 22.796875  z " />
            <path
               id="ArialMT-65"
               d="M 42.09375 16.703125  L 51.171875 15.578125  Q 49.03125 7.625 43.21875 3.21875  Q 37.40625 -1.171875 28.375 -1.171875  Q 17 -1.171875 10.328125 5.828125  Q 3.65625 12.84375 3.65625 25.484375  Q 3.65625 38.578125 10.390625 45.796875  Q 17.140625 53.03125 27.875 53.03125  Q 38.28125 53.03125 44.875 45.953125  Q 51.46875 38.875 51.46875 26.03125  Q 51.46875 25.25 51.421875 23.6875  L 12.75 23.6875  Q 13.234375 15.140625 17.578125 10.59375  Q 21.921875 6.0625 28.421875 6.0625  Q 33.25 6.0625 36.671875 8.59375  Q 40.09375 11.140625 42.09375 16.703125  z M 13.234375 30.90625  L 42.1875 30.90625  Q 41.609375 37.453125 38.875 40.71875  Q 34.671875 45.796875 27.984375 45.796875  Q 21.921875 45.796875 17.796875 41.75  Q 13.671875 37.703125 13.234375 30.90625  z " />
            <path
               id="ArialMT-72"
               d="M 6.5 0  L 6.5 51.859375  L 14.40625 51.859375  L 14.40625 44  Q 17.4375 49.515625 20 51.265625  Q 22.5625 53.03125 25.640625 53.03125  Q 30.078125 53.03125 34.671875 50.203125  L 31.640625 42.046875  Q 28.421875 43.953125 25.203125 43.953125  Q 22.3125 43.953125 20.015625 42.21875  Q 17.71875 40.484375 16.75 37.40625  Q 15.28125 32.71875 15.28125 27.15625  L 15.28125 0  z " />
            <path
               id="ArialMT-63"
               d="M 40.4375 19  L 49.078125 17.875  Q 47.65625 8.9375 41.8125 3.875  Q 35.984375 -1.171875 27.484375 -1.171875  Q 16.84375 -1.171875 10.375 5.78125  Q 3.90625 12.75 3.90625 25.734375  Q 3.90625 34.125 6.6875 40.421875  Q 9.46875 46.734375 15.15625 49.875  Q 20.84375 53.03125 27.546875 53.03125  Q 35.984375 53.03125 41.359375 48.75  Q 46.734375 44.484375 48.25 36.625  L 39.703125 35.296875  Q 38.484375 40.53125 35.375 43.15625  Q 32.28125 45.796875 27.875 45.796875  Q 21.234375 45.796875 17.078125 41.03125  Q 12.9375 36.28125 12.9375 25.984375  Q 12.9375 15.53125 16.9375 10.796875  Q 20.953125 6.0625 27.390625 6.0625  Q 32.5625 6.0625 36.03125 9.234375  Q 39.5 12.40625 40.4375 19  z " />
            <path
               id="ArialMT-70"
               d="M 6.59375 -19.875  L 6.59375 51.859375  L 14.59375 51.859375  L 14.59375 45.125  Q 17.4375 49.078125 21 51.046875  Q 24.5625 53.03125 29.640625 53.03125  Q 36.28125 53.03125 41.359375 49.609375  Q 46.4375 46.1875 49.015625 39.953125  Q 51.609375 33.734375 51.609375 26.3125  Q 51.609375 18.359375 48.75 11.984375  Q 45.90625 5.609375 40.453125 2.21875  Q 35.015625 -1.171875 29 -1.171875  Q 24.609375 -1.171875 21.109375 0.6875  Q 17.625 2.546875 15.375 5.375  L 15.375 -19.875  z M 14.546875 25.640625  Q 14.546875 15.625 18.59375 10.84375  Q 22.65625 6.0625 28.421875 6.0625  Q 34.28125 6.0625 38.453125 11.015625  Q 42.625 15.96875 42.625 26.375  Q 42.625 36.28125 38.546875 41.203125  Q 34.46875 46.140625 28.8125 46.140625  Q 23.1875 46.140625 18.859375 40.890625  Q 14.546875 35.640625 14.546875 25.640625  z " />
            <path
               id="ArialMT-6c"
               d="M 6.390625 0  L 6.390625 71.578125  L 15.1875 71.578125  L 15.1875 0  z " />
            <path
               id="ArialMT-6f"
               d="M 3.328125 25.921875  Q 3.328125 40.328125 11.328125 47.265625  Q 18.015625 53.03125 27.640625 53.03125  Q 38.328125 53.03125 45.109375 46.015625  Q 51.90625 39.015625 51.90625 26.65625  Q 51.90625 16.65625 48.90625 10.90625  Q 45.90625 5.171875 40.15625 2  Q 34.421875 -1.171875 27.640625 -1.171875  Q 16.75 -1.171875 10.03125 5.8125  Q 3.328125 12.796875 3.328125 25.921875  z M 12.359375 25.921875  Q 12.359375 15.96875 16.703125 11.015625  Q 21.046875 6.0625 27.640625 6.0625  Q 34.1875 6.0625 38.53125 11.03125  Q 42.875 16.015625 42.875 26.21875  Q 42.875 35.84375 38.5 40.796875  Q 34.125 45.75 27.640625 45.75  Q 21.046875 45.75 16.703125 40.8125  Q 12.359375 35.890625 12.359375 25.921875  z " />
          </defs>
          <g
             id="g468"
             transform="translate(126.065437 35.472)scale(0.156 -0.156)"
             style="fill:#262626;">
            <use
               id="use402"
               xlink:href="#ArialMT-57" />
            <use
               id="use404"
               xlink:href="#ArialMT-69"
               x="94.384766" />
            <use
               id="use406"
               xlink:href="#ArialMT-74"
               x="116.601562" />
            <use
               id="use408"
               xlink:href="#ArialMT-68"
               x="144.384766" />
            <use
               id="use410"
               xlink:href="#ArialMT-20"
               x="200" />
            <use
               id="use412"
               xlink:href="#ArialMT-4e"
               x="227.783203" />
            <use
               id="use414"
               xlink:href="#ArialMT-79"
               x="300" />
            <use
               id="use416"
               xlink:href="#ArialMT-6b"
               x="350" />
            <use
               id="use418"
               xlink:href="#ArialMT-76"
               x="400" />
            <use
               id="use420"
               xlink:href="#ArialMT-69"
               x="450" />
            <use
               id="use422"
               xlink:href="#ArialMT-73"
               x="472.216797" />
            <use
               id="use424"
               xlink:href="#ArialMT-74"
               x="522.216797" />
            <use
               id="use426"
               xlink:href="#ArialMT-20"
               x="550" />
            <use
               id="use428"
               xlink:href="#ArialMT-62"
               x="577.783203" />
            <use
               id="use430"
               xlink:href="#ArialMT-61"
               x="633.398438" />
            <use
               id="use432"
               xlink:href="#ArialMT-74"
               x="689.013672" />
            <use
               id="use434"
               xlink:href="#ArialMT-74"
               x="716.796875" />
            <use
               id="use436"
               xlink:href="#ArialMT-65"
               x="744.580078" />
            <use
               id="use438"
               xlink:href="#ArialMT-72"
               x="800.195312" />
            <use
               id="use440"
               xlink:href="#ArialMT-79"
               x="833.496094" />
            <use
               id="use442"
               xlink:href="#ArialMT-20"
               x="883.496094" />
            <use
               id="use444"
               xlink:href="#ArialMT-63"
               x="911.279297" />
            <use
               id="use446"
               xlink:href="#ArialMT-61"
               x="961.279297" />
            <use
               id="use448"
               xlink:href="#ArialMT-70"
               x="1016.894531" />
            <use
               id="use450"
               xlink:href="#ArialMT-69"
               x="1072.509766" />
            <use
               id="use452"
               xlink:href="#ArialMT-74"
               x="1094.726562" />
            <use
               id="use454"
               xlink:href="#ArialMT-61"
               x="1122.509766" />
            <use
               id="use456"
               xlink:href="#ArialMT-6c"
               x="1178.125" />
            <use
               id="use458"
               xlink:href="#ArialMT-20"
               x="1200.341797" />
            <use
               id="use460"
               xlink:href="#ArialMT-63"
               x="1228.125" />
            <use
               id="use462"
               xlink:href="#ArialMT-6f"
               x="1278.125" />
            <use
               id="use464"
               xlink:href="#ArialMT-73"
               x="1333.740234" />
            <use
               id="use466"
               xlink:href="#ArialMT-74"
               x="1383.740234" />
          </g>
        </g>
        <g
           id="legend_1">
          <g
             id="patch_26">
            <path
               id="path471"
               style="fill:#191970;opacity:0.5;"
               d="M 266.711563 66.175594  L 288.711563 66.175594  L 288.711563 58.475594  L 266.711563 58.475594  z " />
          </g>
          <g
             id="text_16">
            <!-- SP = 0  -->
            <defs
               id="defs477">
              <path
                 id="ArialMT-53"
                 d="M 4.5 23  L 13.421875 23.78125  Q 14.0625 18.40625 16.375 14.96875  Q 18.703125 11.53125 23.578125 9.40625  Q 28.46875 7.28125 34.578125 7.28125  Q 39.984375 7.28125 44.140625 8.890625  Q 48.296875 10.5 50.3125 13.296875  Q 52.34375 16.109375 52.34375 19.4375  Q 52.34375 22.796875 50.390625 25.3125  Q 48.4375 27.828125 43.953125 29.546875  Q 41.0625 30.671875 31.203125 33.03125  Q 21.34375 35.40625 17.390625 37.5  Q 12.25 40.1875 9.734375 44.15625  Q 7.234375 48.140625 7.234375 53.078125  Q 7.234375 58.5 10.296875 63.203125  Q 13.375 67.921875 19.28125 70.359375  Q 25.203125 72.796875 32.421875 72.796875  Q 40.375 72.796875 46.453125 70.234375  Q 52.546875 67.671875 55.8125 62.6875  Q 59.078125 57.71875 59.328125 51.421875  L 50.25 50.734375  Q 49.515625 57.515625 45.28125 60.984375  Q 41.0625 64.453125 32.8125 64.453125  Q 24.21875 64.453125 20.28125 61.296875  Q 16.359375 58.15625 16.359375 53.71875  Q 16.359375 49.859375 19.140625 47.359375  Q 21.875 44.875 33.421875 42.265625  Q 44.96875 39.65625 49.265625 37.703125  Q 55.515625 34.8125 58.484375 30.390625  Q 61.46875 25.984375 61.46875 20.21875  Q 61.46875 14.5 58.203125 9.4375  Q 54.9375 4.390625 48.796875 1.578125  Q 42.671875 -1.21875 35.015625 -1.21875  Q 25.296875 -1.21875 18.71875 1.609375  Q 12.15625 4.4375 8.421875 10.125  Q 4.6875 15.828125 4.5 23  z " />
              <path
                 id="ArialMT-50"
                 d="M 7.71875 0  L 7.71875 71.578125  L 34.71875 71.578125  Q 41.84375 71.578125 45.609375 70.90625  Q 50.875 70.015625 54.4375 67.546875  Q 58.015625 65.09375 60.1875 60.640625  Q 62.359375 56.203125 62.359375 50.875  Q 62.359375 41.75 56.546875 35.421875  Q 50.734375 29.109375 35.546875 29.109375  L 17.1875 29.109375  L 17.1875 0  z M 17.1875 37.546875  L 35.6875 37.546875  Q 44.875 37.546875 48.734375 40.96875  Q 52.59375 44.390625 52.59375 50.59375  Q 52.59375 55.078125 50.3125 58.265625  Q 48.046875 61.46875 44.34375 62.5  Q 41.9375 63.140625 35.5 63.140625  L 17.1875 63.140625  z " />
              <path
                 id="ArialMT-3d"
                 d="M 52.828125 42.09375  L 5.5625 42.09375  L 5.5625 50.296875  L 52.828125 50.296875  z M 52.828125 20.359375  L 5.5625 20.359375  L 5.5625 28.5625  L 52.828125 28.5625  z " />
            </defs>
            <g
               id="g493"
               transform="translate(297.511563 58.994312)scale(0.11 -0.11)"
               style="fill:#262626;">
              <use
                 id="use479"
                 xlink:href="#ArialMT-53" />
              <use
                 id="use481"
                 xlink:href="#ArialMT-50"
                 x="66.699219" />
              <use
                 id="use483"
                 xlink:href="#ArialMT-20"
                 x="133.382812" />
              <use
                 id="use485"
                 xlink:href="#ArialMT-3d"
                 x="161.166016" />
              <use
                 id="use487"
                 xlink:href="#ArialMT-20"
                 x="219.564453" />
              <use
                 id="use489"
                 xlink:href="#ArialMT-30"
                 x="247.347656" />
              <use
                 id="use491"
                 xlink:href="#ArialMT-20"
                 x="302.962891" />
            </g>
            <!-- Mean cycles = 213.88 -->
            <defs
               id="defs498">
              <path
                 id="ArialMT-4d"
                 d="M 7.421875 0  L 7.421875 71.578125  L 21.6875 71.578125  L 38.625 20.90625  Q 40.96875 13.8125 42.046875 10.296875  Q 43.265625 14.203125 45.84375 21.78125  L 62.984375 71.578125  L 75.734375 71.578125  L 75.734375 0  L 66.609375 0  L 66.609375 59.90625  L 45.796875 0  L 37.25 0  L 16.546875 60.9375  L 16.546875 0  z " />
              <path
                 id="ArialMT-6e"
                 d="M 6.59375 0  L 6.59375 51.859375  L 14.5 51.859375  L 14.5 44.484375  Q 20.21875 53.03125 31 53.03125  Q 35.6875 53.03125 39.625 51.34375  Q 43.5625 49.65625 45.515625 46.921875  Q 47.46875 44.1875 48.25 40.4375  Q 48.734375 37.984375 48.734375 31.890625  L 48.734375 0  L 39.9375 0  L 39.9375 31.546875  Q 39.9375 36.921875 38.90625 39.578125  Q 37.890625 42.234375 35.28125 43.8125  Q 32.671875 45.40625 29.15625 45.40625  Q 23.53125 45.40625 19.453125 41.84375  Q 15.375 38.28125 15.375 28.328125  L 15.375 0  z " />
              <path
                 id="ArialMT-2e"
                 d="M 9.078125 0  L 9.078125 10.015625  L 19.09375 10.015625  L 19.09375 0  z " />
            </defs>
            <g
               id="g540"
               transform="translate(297.511563 70.668062)scale(0.11 -0.11)"
               style="fill:#262626;">
              <use
                 id="use500"
                 xlink:href="#ArialMT-4d" />
              <use
                 id="use502"
                 xlink:href="#ArialMT-65"
                 x="83.300781" />
              <use
                 id="use504"
                 xlink:href="#ArialMT-61"
                 x="138.916016" />
              <use
                 id="use506"
                 xlink:href="#ArialMT-6e"
                 x="194.53125" />
              <use
                 id="use508"
                 xlink:href="#ArialMT-20"
                 x="250.146484" />
              <use
                 id="use510"
                 xlink:href="#ArialMT-63"
                 x="277.929688" />
              <use
                 id="use512"
                 xlink:href="#ArialMT-79"
                 x="327.929688" />
              <use
                 id="use514"
                 xlink:href="#ArialMT-63"
                 x="377.929688" />
              <use
                 id="use516"
                 xlink:href="#ArialMT-6c"
                 x="427.929688" />
              <use
                 id="use518"
                 xlink:href="#ArialMT-65"
                 x="450.146484" />
              <use
                 id="use520"
                 xlink:href="#ArialMT-73"
                 x="505.761719" />
              <use
                 id="use522"
                 xlink:href="#ArialMT-20"
                 x="555.761719" />
              <use
                 id="use524"
                 xlink:href="#ArialMT-3d"
                 x="583.544922" />
              <use
                 id="use526"
                 xlink:href="#ArialMT-20"
                 x="641.943359" />
              <use
                 id="use528"
                 xlink:href="#ArialMT-32"
                 x="669.726562" />
              <use
                 id="use530"
                 xlink:href="#ArialMT-31"
                 x="725.341797" />
              <use
                 id="use532"
                 xlink:href="#ArialMT-33"
                 x="780.957031" />
              <use
                 id="use534"
                 xlink:href="#ArialMT-2e"
                 x="836.572266" />
              <use
                 id="use536"
                 xlink:href="#ArialMT-38"
                 x="864.355469" />
              <use
                 id="use538"
                 xlink:href="#ArialMT-38"
                 x="919.970703" />
            </g>
          </g>
        </g>
      </g>
    </g>
    <rect
       y="15.589922"
       x="90.836967"
       height="25.882078"
       width="272.24115"
       id="rect5032"
       style="opacity:1;fill:#ffffff;fill-opacity:1;stroke-width:0.75;stroke-linecap:butt;stroke-linejoin:round" />
  </g>
</svg>
