<?xml version="1.0" encoding="UTF-8" standalone="no"?>
<svg
   xmlns:dc="http://purl.org/dc/elements/1.1/"
   xmlns:cc="http://creativecommons.org/ns#"
   xmlns:rdf="http://www.w3.org/1999/02/22-rdf-syntax-ns#"
   xmlns:svg="http://www.w3.org/2000/svg"
   xmlns="http://www.w3.org/2000/svg"
   xmlns:xlink="http://www.w3.org/1999/xlink"
   xmlns:sodipodi="http://sodipodi.sourceforge.net/DTD/sodipodi-0.dtd"
   xmlns:inkscape="http://www.inkscape.org/namespaces/inkscape"
   id="svg2"
   width="288pt"
   viewBox="0 0 288 216"
   version="1.1"
   height="216pt"
   inkscape:version="0.91 r13725"
   sodipodi:docname="all_rdf (copy).svg">
  <sodipodi:namedview
     pagecolor="#ffffff"
     bordercolor="#666666"
     borderopacity="1"
     objecttolerance="10"
     gridtolerance="10"
     guidetolerance="10"
     inkscape:pageopacity="0"
     inkscape:pageshadow="2"
     inkscape:window-width="1920"
     inkscape:window-height="1056"
     id="namedview245"
     showgrid="false"
     inkscape:zoom="3.4962963"
     inkscape:cx="128.01167"
     inkscape:cy="130.09124"
     inkscape:window-x="0"
     inkscape:window-y="24"
     inkscape:window-maximized="1"
     inkscape:current-layer="figure_1" />
  <metadata
     id="metadata427">
    <rdf:RDF>
      <cc:Work
         rdf:about="">
        <dc:format>image/svg+xml</dc:format>
        <dc:type
           rdf:resource="http://purl.org/dc/dcmitype/StillImage" />
        <dc:title />
      </cc:Work>
    </rdf:RDF>
  </metadata>
  <defs
     id="defs4">
    <style
       id="style6"
       type="text/css">
*{stroke-linecap:butt;stroke-linejoin:round;}
  </style>
  </defs>
  <g
     id="figure_1">
    <g
       id="patch_1">
      <path
         id="path10"
         style="fill:#ffffff;"
         d=" M0 216 L288 216 L288 0 L0 0 z " />
    </g>
    <g
       id="axes_1">
      <g
         id="patch_2">
        <path
           id="path14"
           style="fill:#ffffff;"
           d=" M48.2922 168.312 L271.2 168.312 L271.2 16.8 L48.2922 16.8 z " />
      </g>
      <g
         id="matplotlib.axis_1">
        <g
           id="xtick_1">
          <g
             id="line2d_1">
            <path
               id="path19"
               style="fill:none;stroke:#cccccc;stroke-linecap:round;stroke-width:0.8;"
               d=" M85.4435 168.312 L85.4435 16.8"
               clip-path="url(#p7026cc9036)" />
          </g>
          <g
             id="line2d_2">
            <defs
               id="defs22">
              <path
                 style="stroke:#262626;stroke-width:0.8;"
                 id="m9ceacb34a3"
                 d=" M0 0 L0 0" />
            </defs>
            <g
               id="g25">
              <use
                 id="use27"
                 y="168.3125"
                 xlink:href="#m9ceacb34a3"
                 x="85.4434895833"
                 style="fill:#262626;stroke:#262626;stroke-width:0.8;" />
            </g>
          </g>
          <g
             id="line2d_3">
            <g
               id="g30">
              <use
                 id="use32"
                 y="16.8"
                 xlink:href="#m9ceacb34a3"
                 x="85.4434895833"
                 style="fill:#262626;stroke:#262626;stroke-width:0.8;" />
            </g>
          </g>
          <g
             id="text_1">
            <!-- 3.0 -->
            <defs
               id="defs35">
              <path
                 id="ArialMT-30"
                 d=" M4.15625 35.2969 Q4.15625 48 6.76562 55.7344 Q9.375 63.4844 14.5156 67.6719 Q19.6719 71.875 27.4844 71.875 Q33.25 71.875 37.5938 69.5469 Q41.9375 67.2344 44.7656 62.8594 Q47.6094 58.5 49.2188 52.2188 Q50.8281 45.9531 50.8281 35.2969 Q50.8281 22.7031 48.2344 14.9688 Q45.6562 7.23438 40.5 3 Q35.3594 -1.21875 27.4844 -1.21875 Q17.1406 -1.21875 11.2344 6.20312 Q4.15625 15.1406 4.15625 35.2969 M13.1875 35.2969 Q13.1875 17.6719 17.3125 11.8281 Q21.4375 6 27.4844 6 Q33.5469 6 37.6719 11.8594 Q41.7969 17.7188 41.7969 35.2969 Q41.7969 52.9844 37.6719 58.7812 Q33.5469 64.5938 27.3906 64.5938 Q21.3438 64.5938 17.7188 59.4688 Q13.1875 52.9375 13.1875 35.2969" />
              <path
                 id="ArialMT-2e"
                 d=" M9.07812 0 L9.07812 10.0156 L19.0938 10.0156 L19.0938 0 z " />
              <path
                 id="ArialMT-33"
                 d=" M4.20312 18.8906 L12.9844 20.0625 Q14.5 12.5938 18.1406 9.29688 Q21.7812 6 27 6 Q33.2031 6 37.4688 10.2969 Q41.75 14.5938 41.75 20.9531 Q41.75 27 37.7969 30.9219 Q33.8438 34.8594 27.7344 34.8594 Q25.25 34.8594 21.5312 33.8906 L22.5156 41.6094 Q23.3906 41.5 23.9219 41.5 Q29.5469 41.5 34.0312 44.4219 Q38.5312 47.3594 38.5312 53.4688 Q38.5312 58.2969 35.25 61.4688 Q31.9844 64.6562 26.8125 64.6562 Q21.6875 64.6562 18.2656 61.4219 Q14.8438 58.2031 13.875 51.7656 L5.07812 53.3281 Q6.6875 62.1562 12.3906 67.0156 Q18.1094 71.875 26.6094 71.875 Q32.4688 71.875 37.3906 69.3594 Q42.3281 66.8438 44.9375 62.5 Q47.5625 58.1562 47.5625 53.2656 Q47.5625 48.6406 45.0625 44.8281 Q42.5781 41.0156 37.7031 38.7656 Q44.0469 37.3125 47.5625 32.6875 Q51.0781 28.0781 51.0781 21.1406 Q51.0781 11.7656 44.2344 5.25 Q37.4062 -1.26562 26.9531 -1.26562 Q17.5312 -1.26562 11.2969 4.34375 Q5.07812 9.96875 4.20312 18.8906" />
            </defs>
            <g
               id="g40"
               transform="translate(80.2428645833 182.03875)scale(0.08 -0.08)"
               style="fill:#262626;">
              <use
                 id="use42"
                 xlink:href="#ArialMT-33" />
              <use
                 id="use44"
                 xlink:href="#ArialMT-2e"
                 x="55.615234375" />
              <use
                 id="use46"
                 xlink:href="#ArialMT-30"
                 x="83.3984375" />
            </g>
          </g>
        </g>
        <g
           id="xtick_2">
          <g
             id="line2d_4">
            <path
               id="path50"
               style="fill:none;stroke:#cccccc;stroke-linecap:round;stroke-width:0.8;"
               d=" M141.17 168.312 L141.17 16.8"
               clip-path="url(#p7026cc9036)" />
          </g>
          <g
             id="line2d_5">
            <g
               id="g53">
              <use
                 id="use55"
                 y="168.3125"
                 xlink:href="#m9ceacb34a3"
                 x="141.170442708"
                 style="fill:#262626;stroke:#262626;stroke-width:0.8;" />
            </g>
          </g>
          <g
             id="line2d_6">
            <g
               id="g58">
              <use
                 id="use60"
                 y="16.8"
                 xlink:href="#m9ceacb34a3"
                 x="141.170442708"
                 style="fill:#262626;stroke:#262626;stroke-width:0.8;" />
            </g>
          </g>
          <g
             id="text_2">
            <!-- 4.5 -->
            <defs
               id="defs63">
              <path
                 id="ArialMT-34"
                 d=" M32.3281 0 L32.3281 17.1406 L1.26562 17.1406 L1.26562 25.2031 L33.9375 71.5781 L41.1094 71.5781 L41.1094 25.2031 L50.7812 25.2031 L50.7812 17.1406 L41.1094 17.1406 L41.1094 0 z  M32.3281 25.2031 L32.3281 57.4688 L9.90625 25.2031 z " />
              <path
                 id="ArialMT-35"
                 d=" M4.15625 18.75 L13.375 19.5312 Q14.4062 12.7969 18.1406 9.39062 Q21.875 6 27.1562 6 Q33.5 6 37.8906 10.7812 Q42.2812 15.5781 42.2812 23.4844 Q42.2812 31 38.0625 35.3438 Q33.8438 39.7031 27 39.7031 Q22.75 39.7031 19.3281 37.7656 Q15.9219 35.8438 13.9688 32.7656 L5.71875 33.8438 L12.6406 70.6094 L48.25 70.6094 L48.25 62.2031 L19.6719 62.2031 L15.8281 42.9688 Q22.2656 47.4688 29.3438 47.4688 Q38.7188 47.4688 45.1562 40.9688 Q51.6094 34.4688 51.6094 24.2656 Q51.6094 14.5469 45.9531 7.46875 Q39.0625 -1.21875 27.1562 -1.21875 Q17.3906 -1.21875 11.2031 4.25 Q5.03125 9.71875 4.15625 18.75" />
            </defs>
            <g
               id="g67"
               transform="translate(135.821067708 182.03875)scale(0.08 -0.08)"
               style="fill:#262626;">
              <use
                 id="use69"
                 xlink:href="#ArialMT-34" />
              <use
                 id="use71"
                 xlink:href="#ArialMT-2e"
                 x="55.615234375" />
              <use
                 id="use73"
                 xlink:href="#ArialMT-35"
                 x="83.3984375" />
            </g>
          </g>
        </g>
        <g
           id="xtick_3">
          <g
             id="line2d_7">
            <path
               id="path77"
               style="fill:none;stroke:#cccccc;stroke-linecap:round;stroke-width:0.8;"
               d=" M196.897 168.312 L196.897 16.8"
               clip-path="url(#p7026cc9036)" />
          </g>
          <g
             id="line2d_8">
            <g
               id="g80">
              <use
                 id="use82"
                 y="168.3125"
                 xlink:href="#m9ceacb34a3"
                 x="196.897395833"
                 style="fill:#262626;stroke:#262626;stroke-width:0.8;" />
            </g>
          </g>
          <g
             id="line2d_9">
            <g
               id="g85">
              <use
                 id="use87"
                 y="16.8"
                 xlink:href="#m9ceacb34a3"
                 x="196.897395833"
                 style="fill:#262626;stroke:#262626;stroke-width:0.8;" />
            </g>
          </g>
          <g
             id="text_3">
            <!-- 6.0 -->
            <defs
               id="defs90">
              <path
                 id="ArialMT-36"
                 d=" M49.75 54.0469 L41.0156 53.375 Q39.8438 58.5469 37.7031 60.8906 Q34.125 64.6562 28.9062 64.6562 Q24.7031 64.6562 21.5312 62.3125 Q17.3906 59.2812 14.9844 53.4688 Q12.5938 47.6562 12.5 36.9219 Q15.6719 41.75 20.2656 44.0938 Q24.8594 46.4375 29.8906 46.4375 Q38.6719 46.4375 44.8438 39.9688 Q51.0312 33.5 51.0312 23.25 Q51.0312 16.5 48.125 10.7188 Q45.2188 4.9375 40.1406 1.85938 Q35.0625 -1.21875 28.6094 -1.21875 Q17.625 -1.21875 10.6875 6.85938 Q3.76562 14.9375 3.76562 33.5 Q3.76562 54.25 11.4219 63.6719 Q18.1094 71.875 29.4375 71.875 Q37.8906 71.875 43.2812 67.1406 Q48.6875 62.4062 49.75 54.0469 M13.875 23.1875 Q13.875 18.6562 15.7969 14.5 Q17.7188 10.3594 21.1875 8.17188 Q24.6562 6 28.4688 6 Q34.0312 6 38.0312 10.4844 Q42.0469 14.9844 42.0469 22.7031 Q42.0469 30.125 38.0781 34.3906 Q34.125 38.6719 28.125 38.6719 Q22.1719 38.6719 18.0156 34.3906 Q13.875 30.125 13.875 23.1875" />
            </defs>
            <g
               id="g93"
               transform="translate(191.679270833 182.03875)scale(0.08 -0.08)"
               style="fill:#262626;">
              <use
                 id="use95"
                 xlink:href="#ArialMT-36" />
              <use
                 id="use97"
                 xlink:href="#ArialMT-2e"
                 x="55.615234375" />
              <use
                 id="use99"
                 xlink:href="#ArialMT-30"
                 x="83.3984375" />
            </g>
          </g>
        </g>
        <g
           id="xtick_4">
          <g
             id="line2d_10">
            <path
               id="path103"
               style="fill:none;stroke:#cccccc;stroke-linecap:round;stroke-width:0.8;"
               d=" M252.624 168.312 L252.624 16.8"
               clip-path="url(#p7026cc9036)" />
          </g>
          <g
             id="line2d_11">
            <g
               id="g106">
              <use
                 id="use108"
                 y="168.3125"
                 xlink:href="#m9ceacb34a3"
                 x="252.624348958"
                 style="fill:#262626;stroke:#262626;stroke-width:0.8;" />
            </g>
          </g>
          <g
             id="line2d_12">
            <g
               id="g111">
              <use
                 id="use113"
                 y="16.8"
                 xlink:href="#m9ceacb34a3"
                 x="252.624348958"
                 style="fill:#262626;stroke:#262626;stroke-width:0.8;" />
            </g>
          </g>
          <g
             id="text_4">
            <!-- 7.5 -->
            <defs
               id="defs116">
              <path
                 id="ArialMT-37"
                 d=" M4.73438 62.2031 L4.73438 70.6562 L51.0781 70.6562 L51.0781 63.8125 Q44.2344 56.5469 37.5156 44.4844 Q30.8125 32.4219 27.1562 19.6719 Q24.5156 10.6875 23.7812 0 L14.75 0 Q14.8906 8.45312 18.0625 20.4062 Q21.2344 32.375 27.1719 43.4844 Q33.1094 54.5938 39.7969 62.2031 z " />
            </defs>
            <g
               id="g119"
               transform="translate(247.413723958 182.03875)scale(0.08 -0.08)"
               style="fill:#262626;">
              <use
                 id="use121"
                 xlink:href="#ArialMT-37" />
              <use
                 id="use123"
                 xlink:href="#ArialMT-2e"
                 x="55.615234375" />
              <use
                 id="use125"
                 xlink:href="#ArialMT-35"
                 x="83.3984375" />
            </g>
          </g>
        </g>
        <g
           id="text_5">
          <!-- r [Å] -->
          <defs
             id="defs128">
            <path
               id="ArialMT-5b"
               d=" M6.78125 -19.875 L6.78125 71.5781 L26.1719 71.5781 L26.1719 64.3125 L15.5781 64.3125 L15.5781 -12.5938 L26.1719 -12.5938 L26.1719 -19.875 z " />
            <path
               id="ArialMT-5d"
               d=" M21.2969 -19.875 L1.90625 -19.875 L1.90625 -12.5938 L12.5 -12.5938 L12.5 64.3125 L1.90625 64.3125 L1.90625 71.5781 L21.2969 71.5781 z " />
            <path
               id="ArialMT-c5"
               d=" M-0.140625 0 L27.3438 71.5781 L37.5469 71.5781 L66.8438 0 L56.0625 0 L47.7031 21.6875 L17.7812 21.6875 L9.90625 0 z  M20.5156 29.3906 L44.7812 29.3906 L37.3125 49.2188 Q33.8906 58.25 32.2344 64.0625 Q30.8594 57.1719 28.375 50.3906 z  M23.5312 78.3281 Q23.5312 81.8906 26.1406 84.4844 Q28.7656 87.0781 32.3281 87.0781 Q35.9375 87.0781 38.5156 84.4531 Q41.1094 81.8438 41.1094 78.1406 Q41.1094 74.375 38.5156 71.7812 Q35.9375 69.2031 32.375 69.2031 Q28.7188 69.2031 26.125 71.8125 Q23.5312 74.4219 23.5312 78.3281 M27.25 78.2812 Q27.25 75.9844 28.7812 74.4219 Q30.3281 72.8594 32.4219 72.8594 Q34.5156 72.8594 36.0469 74.4219 Q37.5938 75.9844 37.5938 78.1875 Q37.5938 80.3906 36.0781 81.9531 Q34.5781 83.5156 32.4219 83.5156 Q30.3281 83.5156 28.7812 81.9688 Q27.25 80.4375 27.25 78.2812" />
            <path
               id="ArialMT-72"
               d=" M6.5 0 L6.5 51.8594 L14.4062 51.8594 L14.4062 44 Q17.4375 49.5156 20 51.2656 Q22.5625 53.0312 25.6406 53.0312 Q30.0781 53.0312 34.6719 50.2031 L31.6406 42.0469 Q28.4219 43.9531 25.2031 43.9531 Q22.3125 43.9531 20.0156 42.2188 Q17.7188 40.4844 16.75 37.4062 Q15.2812 32.7188 15.2812 27.1562 L15.2812 0 z " />
            <path
               id="ArialMT-20" />
          </defs>
          <g
             id="g135"
             transform="translate(151.96428125 196.291625)scale(0.088 -0.088)"
             style="fill:#262626;">
            <use
               id="use137"
               xlink:href="#ArialMT-72" />
            <use
               id="use139"
               xlink:href="#ArialMT-20"
               x="33.30078125" />
            <use
               id="use141"
               xlink:href="#ArialMT-5b"
               x="61.083984375" />
            <use
               id="use143"
               xlink:href="#ArialMT-c5"
               x="88.8671875" />
            <use
               id="use145"
               xlink:href="#ArialMT-5d"
               x="155.56640625" />
          </g>
        </g>
      </g>
      <g
         id="matplotlib.axis_2">
        <g
           id="ytick_1">
          <g
             id="line2d_13">
            <path
               id="path150"
               style="fill:none;stroke:#cccccc;stroke-linecap:round;stroke-width:0.8;"
               d=" M48.2922 168.312 L271.2 168.312"
               clip-path="url(#p7026cc9036)" />
          </g>
          <g
             id="line2d_14">
            <g
               id="g153">
              <use
                 id="use155"
                 y="168.3125"
                 xlink:href="#m9ceacb34a3"
                 x="48.2921875"
                 style="fill:#262626;stroke:#262626;stroke-width:0.8;" />
            </g>
          </g>
          <g
             id="line2d_15">
            <g
               id="g158">
              <use
                 id="use160"
                 y="168.3125"
                 xlink:href="#m9ceacb34a3"
                 x="271.2"
                 style="fill:#262626;stroke:#262626;stroke-width:0.8;" />
            </g>
          </g>
          <g
             id="text_6">
            <!-- 0.0 -->
            <g
               id="g163"
               transform="translate(29.8871875 170.380625)scale(0.08 -0.08)"
               style="fill:#262626;">
              <use
                 id="use165"
                 xlink:href="#ArialMT-30" />
              <use
                 id="use167"
                 xlink:href="#ArialMT-2e"
                 x="55.615234375" />
              <use
                 id="use169"
                 xlink:href="#ArialMT-30"
                 x="83.3984375" />
            </g>
          </g>
        </g>
        <g
           id="ytick_2">
          <g
             id="line2d_16">
            <path
               id="path173"
               style="fill:none;stroke:#cccccc;stroke-linecap:round;stroke-width:0.8;"
               d=" M48.2922 114.837 L271.2 114.837"
               clip-path="url(#p7026cc9036)" />
          </g>
          <g
             id="line2d_17">
            <g
               id="g176">
              <use
                 id="use178"
                 y="114.837462923"
                 xlink:href="#m9ceacb34a3"
                 x="48.2921875"
                 style="fill:#262626;stroke:#262626;stroke-width:0.8;" />
            </g>
          </g>
          <g
             id="line2d_18">
            <g
               id="g181">
              <use
                 id="use183"
                 y="114.837462923"
                 xlink:href="#m9ceacb34a3"
                 x="271.2"
                 style="fill:#262626;stroke:#262626;stroke-width:0.8;" />
            </g>
          </g>
          <g
             id="text_7">
            <!-- 1.5 -->
            <defs
               id="defs186">
              <path
                 id="ArialMT-31"
                 d=" M37.25 0 L28.4688 0 L28.4688 56 Q25.2969 52.9844 20.1406 49.9531 Q14.9844 46.9219 10.8906 45.4062 L10.8906 53.9062 Q18.2656 57.375 23.7812 62.2969 Q29.2969 67.2344 31.5938 71.875 L37.25 71.875 z " />
            </defs>
            <g
               id="g189"
               transform="translate(30.3634375 116.905587923)scale(0.08 -0.08)"
               style="fill:#262626;">
              <use
                 id="use191"
                 xlink:href="#ArialMT-31" />
              <use
                 id="use193"
                 xlink:href="#ArialMT-2e"
                 x="55.615234375" />
              <use
                 id="use195"
                 xlink:href="#ArialMT-35"
                 x="83.3984375" />
            </g>
          </g>
        </g>
        <g
           id="ytick_3">
          <g
             id="line2d_19">
            <path
               id="path199"
               style="fill:none;stroke:#cccccc;stroke-linecap:round;stroke-width:0.8;"
               d=" M48.2922 61.3624 L271.2 61.3624"
               clip-path="url(#p7026cc9036)" />
          </g>
          <g
             id="line2d_20">
            <g
               id="g202">
              <use
                 id="use204"
                 y="61.3624258459"
                 xlink:href="#m9ceacb34a3"
                 x="48.2921875"
                 style="fill:#262626;stroke:#262626;stroke-width:0.8;" />
            </g>
          </g>
          <g
             id="line2d_21">
            <g
               id="g207">
              <use
                 id="use209"
                 y="61.3624258459"
                 xlink:href="#m9ceacb34a3"
                 x="271.2"
                 style="fill:#262626;stroke:#262626;stroke-width:0.8;" />
            </g>
          </g>
          <g
             id="text_8">
            <!-- 3.0 -->
            <g
               id="g212"
               transform="translate(29.8909375 63.4305508459)scale(0.08 -0.08)"
               style="fill:#262626;">
              <use
                 id="use214"
                 xlink:href="#ArialMT-33" />
              <use
                 id="use216"
                 xlink:href="#ArialMT-2e"
                 x="55.615234375" />
              <use
                 id="use218"
                 xlink:href="#ArialMT-30"
                 x="83.3984375" />
            </g>
          </g>
        </g>
        <g
           id="text_9">
          <!-- g(r) -->
          <defs
             id="defs221">
            <path
               id="ArialMT-67"
               d=" M4.98438 -4.29688 L13.5312 -5.5625 Q14.0625 -9.51562 16.5 -11.3281 Q19.7812 -13.7656 25.4375 -13.7656 Q31.5469 -13.7656 34.8594 -11.3281 Q38.1875 -8.89062 39.3594 -4.5 Q40.0469 -1.8125 39.9844 6.78125 Q34.2344 0 25.6406 0 Q14.9375 0 9.07812 7.71875 Q3.21875 15.4375 3.21875 26.2188 Q3.21875 33.6406 5.90625 39.9062 Q8.59375 46.1875 13.6875 49.6094 Q18.7969 53.0312 25.6875 53.0312 Q34.8594 53.0312 40.8281 45.6094 L40.8281 51.8594 L48.9219 51.8594 L48.9219 7.03125 Q48.9219 -5.07812 46.4531 -10.125 Q44 -15.1875 38.6406 -18.1094 Q33.2969 -21.0469 25.4844 -21.0469 Q16.2188 -21.0469 10.5 -16.875 Q4.78125 -12.7031 4.98438 -4.29688 M12.25 26.8594 Q12.25 16.6562 16.2969 11.9688 Q20.3594 7.28125 26.4688 7.28125 Q32.5156 7.28125 36.6094 11.9375 Q40.7188 16.6094 40.7188 26.5625 Q40.7188 36.0781 36.5 40.9062 Q32.2812 45.75 26.3125 45.75 Q20.4531 45.75 16.3438 40.9844 Q12.25 36.2344 12.25 26.8594" />
            <path
               id="ArialMT-29"
               d=" M12.3594 -21.0469 L6.0625 -21.0469 Q20.6562 2.39062 20.6562 25.875 Q20.6562 35.0625 18.5625 44.0938 Q16.8906 51.4219 13.9219 58.1562 Q12.0156 62.5469 6.0625 72.7969 L12.3594 72.7969 Q21.5312 60.5469 25.9219 48.1875 Q29.6875 37.5469 29.6875 25.9219 Q29.6875 12.75 24.625 0.4375 Q19.5781 -11.8594 12.3594 -21.0469" />
            <path
               id="ArialMT-28"
               d=" M23.3906 -21.0469 Q16.1094 -11.8594 11.0781 0.4375 Q6.0625 12.75 6.0625 25.9219 Q6.0625 37.5469 9.8125 48.1875 Q14.2031 60.5469 23.3906 72.7969 L29.6875 72.7969 Q23.7812 62.6406 21.875 58.2969 Q18.8906 51.5625 17.1875 44.2344 Q15.0938 35.1094 15.0938 25.875 Q15.0938 2.39062 29.6875 -21.0469 z " />
          </defs>
          <g
             id="g226"
             transform="translate(23.0350625 99.0978125)rotate(-90.0)scale(0.088 -0.088)"
             style="fill:#262626;">
            <use
               id="use228"
               xlink:href="#ArialMT-67" />
            <use
               id="use230"
               xlink:href="#ArialMT-28"
               x="55.615234375" />
            <use
               id="use232"
               xlink:href="#ArialMT-72"
               x="88.916015625" />
            <use
               id="use234"
               xlink:href="#ArialMT-29"
               x="122.216796875" />
          </g>
        </g>
      </g>
      <g
         id="line2d_22" />
      <g
         id="line2d_23">
        <path
           id="path240"
           style="fill:none;stroke:#ca0020;stroke-linecap:round;stroke-width:1.4;"
           d=" M47.3634 168.312 L49.221 168.312 L51.0785 168.312 L52.9361 168.312 L54.7937 168.312 L56.6512 168.312 L58.5088 168.312 L60.3664 168.312 L62.2239 168.312 L64.0815 168.312 L65.9391 164.386 L67.7966 152.476 L69.6542 126.655 L71.5118 89.6183 L73.3693 56.5258 L75.2269 40.7074 L77.0844 45.3704 L78.942 64.0994 L80.7996 87.4776 L82.6571 109.409 L84.5147 126.766 L86.3723 138.839 L88.2298 147.068 L90.0874 152.164 L91.945 155.143 L93.8025 156.412 L95.6601 156.683 L97.5177 156.237 L99.3752 155.323 L101.233 154.144 L103.09 152.423 L104.948 150.677 L106.805 148.732 L108.663 146.691 L110.521 144.409 L112.378 141.848 L114.236 139.063 L116.093 136.64 L117.951 133.975 L119.808 131.233 L121.666 128.315 L123.524 125.632 L125.381 123.402 L127.239 121.133 L129.096 118.938 L130.954 117.234 L132.811 115.891 L134.669 114.672 L136.527 114.077 L138.384 114.105 L140.242 114.532 L142.099 115.353 L143.957 116.491 L145.814 117.581 L147.672 119.294 L149.529 121.263 L151.387 123.415 L153.245 125.487 L155.102 126.934 L156.96 128.757 L158.817 130.674 L160.675 132.276 L162.532 134.077 L164.39 135.672 L166.248 136.95 L168.105 138.143 L169.963 139.216 L171.82 140.254 L173.678 140.822 L175.535 141.408 L177.393 141.648 L179.251 142.074 L181.108 142.139 L182.966 141.986 L184.823 141.919 L186.681 141.857 L188.538 141.506 L190.396 140.831 L192.253 140.197 L194.111 139.162 L195.969 138.421 L197.826 137.681 L199.684 136.813 L201.541 135.929 L203.399 134.855 L205.256 133.762 L207.114 132.688 L208.972 131.817 L210.829 130.785 L212.687 130.02 L214.544 129.219 L216.402 128.514 L218.259 128.273 L220.117 127.975 L221.975 127.766 L223.832 127.765 L225.69 127.839 L227.547 127.991 L229.405 128.298 L231.262 128.69 L233.12 129.176 L234.977 129.72 L236.835 130.231 L238.693 130.81 L240.55 131.22 L242.408 131.707 L244.265 132.033 L246.123 132.4 L247.98 132.613 L249.838 132.776 L251.696 132.921 L253.553 133.078 L255.411 133.071 L257.268 132.934 L259.126 132.98 L260.983 132.955 L262.841 132.702 L264.699 132.625 L266.556 133.016 L268.414 133.705 L270.271 134.413"
           clip-path="url(#p7026cc9036)" />
      </g>
      <g
         id="line2d_24" />
      <g
         id="line2d_25">
        <path
           id="path246"
           style="fill:none;stroke:#0571b0;stroke-linecap:round;stroke-width:1.4;"
           d=" M47.9207 168.312 L64.6388 168.312 L65.0103 164.511 L65.3818 164.175 L66.1248 163.006 L66.8678 161.012 L67.6109 158.031 L68.3539 153.953 L69.0969 148.743 L70.2115 138.949 L71.6975 123.169 L73.9266 98.6704 L75.0411 88.6132 L75.7842 83.4025 L76.5272 79.605 L77.2702 77.308 L77.6417 76.7246 L78.0132 76.5081 L78.3847 76.645 L78.7563 77.1173 L79.1278 77.9031 L79.8708 80.3114 L80.6138 83.6401 L81.7284 89.8107 L85.4435 111.788 L86.558 117.07 L87.6726 121.51 L88.7871 125.19 L89.9016 128.229 L91.0162 130.736 L92.1307 132.789 L93.2453 134.437 L94.3598 135.715 L95.4743 136.661 L96.5889 137.326 L97.7034 137.769 L99.1895 138.127 L101.419 138.382 L103.648 138.409 L105.505 138.215 L107.363 137.8 L109.963 136.955 L125.938 131.372 L132.626 129.49 L135.598 128.895 L138.198 128.607 L141.17 128.498 L144.886 128.599 L147.858 128.889 L150.458 129.358 L153.43 130.149 L172.749 135.959 L175.721 136.503 L178.693 136.823 L181.665 136.904 L185.009 136.737 L188.724 136.327 L192.068 135.756 L197.269 134.586 L210.643 131.57 L218.445 130.613 L221.417 130.397 L224.761 130.419 L235.163 130.866 L245.937 132.073 L254.482 132.935 L260.426 133.258 L268.599 133.456 L271.2 133.45 L271.2 133.45"
           clip-path="url(#p7026cc9036)" />
      </g>
      <g
         id="patch_3">
        <path
           id="path249"
           style="fill:none;stroke:#cccccc;stroke-linecap:square;stroke-linejoin:miter;"
           d=" M48.2922 16.8 L271.2 16.8" />
      </g>
      <g
         id="patch_4">
        <path
           id="path252"
           style="fill:none;stroke:#cccccc;stroke-linecap:square;stroke-linejoin:miter;"
           d=" M271.2 168.312 L271.2 16.8" />
      </g>
      <g
         id="patch_5">
        <path
           id="path255"
           style="fill:none;stroke:#cccccc;stroke-linecap:square;stroke-linejoin:miter;"
           d=" M48.2922 168.312 L271.2 168.312" />
      </g>
      <g
         id="patch_6">
        <path
           id="path258"
           style="fill:none;stroke:#cccccc;stroke-linecap:square;stroke-linejoin:miter;"
           d=" M48.2922 168.312 L48.2922 16.8" />
      </g>
      <g
         id="legend_1">
        <g
           id="line2d_27" />
        <g
           id="line2d_28">
          <path
             id="path294"
             style="fill:none;stroke:#ca0020;stroke-linecap:round;stroke-width:1.4;"
             d=" M148.304 38.2425 L164.304 38.2425" />
        </g>
        <g
           id="line2d_29" />
        <g
           id="text_11">
          <!-- BLYP -->
          <defs
             id="defs298">
            <path
               id="ArialMT-4c"
               d=" M7.32812 0 L7.32812 71.5781 L16.7969 71.5781 L16.7969 8.45312 L52.0469 8.45312 L52.0469 0 z " />
            <path
               id="ArialMT-42"
               d=" M7.32812 0 L7.32812 71.5781 L34.1875 71.5781 Q42.3906 71.5781 47.3438 69.4062 Q52.2969 67.2344 55.0938 62.7188 Q57.9062 58.2031 57.9062 53.2656 Q57.9062 48.6875 55.4219 44.625 Q52.9375 40.5781 47.9062 38.0938 Q54.3906 36.1875 57.875 31.5938 Q61.375 27 61.375 20.75 Q61.375 15.7188 59.25 11.3906 Q57.125 7.07812 54 4.73438 Q50.875 2.39062 46.1562 1.1875 Q41.4531 0 34.625 0 z  M16.7969 41.5 L32.2812 41.5 Q38.5781 41.5 41.3125 42.3281 Q44.9219 43.4062 46.75 45.8906 Q48.5781 48.3906 48.5781 52.1562 Q48.5781 55.7188 46.875 58.4219 Q45.1719 61.1406 41.9844 62.1406 Q38.8125 63.1406 31.1094 63.1406 L16.7969 63.1406 z  M16.7969 8.45312 L34.625 8.45312 Q39.2031 8.45312 41.0625 8.79688 Q44.3438 9.375 46.5312 10.7344 Q48.7344 12.1094 50.1406 14.7188 Q51.5625 17.3281 51.5625 20.75 Q51.5625 24.75 49.5156 27.7031 Q47.4688 30.6719 43.8281 31.8594 Q40.1875 33.0625 33.3438 33.0625 L16.7969 33.0625 z " />
            <path
               id="ArialMT-50"
               d=" M7.71875 0 L7.71875 71.5781 L34.7188 71.5781 Q41.8438 71.5781 45.6094 70.9062 Q50.875 70.0156 54.4375 67.5469 Q58.0156 65.0938 60.1875 60.6406 Q62.3594 56.2031 62.3594 50.875 Q62.3594 41.75 56.5469 35.4219 Q50.7344 29.1094 35.5469 29.1094 L17.1875 29.1094 L17.1875 0 z  M17.1875 37.5469 L35.6875 37.5469 Q44.875 37.5469 48.7344 40.9688 Q52.5938 44.3906 52.5938 50.5938 Q52.5938 55.0781 50.3125 58.2656 Q48.0469 61.4688 44.3438 62.5 Q41.9375 63.1406 35.5 63.1406 L17.1875 63.1406 z " />
            <path
               id="ArialMT-59"
               d=" M27.875 0 L27.875 30.3281 L0.296875 71.5781 L11.8125 71.5781 L25.9219 50 Q29.8281 43.9531 33.2031 37.8906 Q36.4219 43.5 41.0156 50.5312 L54.8906 71.5781 L65.9219 71.5781 L37.3594 30.3281 L37.3594 0 z " />
          </defs>
          <g
             id="g304"
             transform="translate(170.70375 41.0425)scale(0.08 -0.08)"
             style="fill:#262626;">
            <use
               id="use306"
               xlink:href="#ArialMT-42" />
            <use
               id="use308"
               xlink:href="#ArialMT-4c"
               x="66.69921875" />
            <use
               id="use310"
               xlink:href="#ArialMT-59"
               x="114.939453125" />
            <use
               id="use312"
               xlink:href="#ArialMT-50"
               x="181.638671875" />
          </g>
        </g>
        <g
           id="line2d_31" />
        <g
           id="line2d_32"
           transform="translate(0,-13.042373)"
           style="stroke-linecap:butt;stroke-linejoin:round">
          <path
             id="path350"
             style="fill:none;stroke:#0571b0;stroke-width:1.39999998;stroke-linecap:round;stroke-linejoin:round"
             d="m 148.304,60.9725 16,0"
             inkscape:connector-curvature="0" />
        </g>
        <g
           id="line2d_33" />
        <g
           id="text_13"
           transform="translate(0,-13.042373)"
           style="stroke-linecap:butt;stroke-linejoin:round">
          <!-- Experiment [Skinner et al.] -->
          <defs
             id="defs354">
            <path
               id="ArialMT-61"
               d="M 40.4375,6.39062 Q 35.5469,2.25 31.0312,0.53125 26.5156,-1.17188 21.3438,-1.17188 12.7969,-1.17188 8.20312,3 3.60938,7.17188 3.60938,13.6719 q 0,3.8125 1.73437,6.9531 1.73437,3.1562 4.54687,5.0625 2.81248,1.9063 6.32818,2.875 2.5781,0.6875 7.8124,1.3281 10.6407,1.2656 15.6719,3.0156 0.0469,1.8126 0.0469,2.2969 0,5.375 -2.5,7.5781 -3.3594,2.9688 -10,2.9688 -6.2031,0 -9.1562,-2.1719 -2.9532,-2.1719 -4.375,-7.6875 L 5.125,37.0625 q 1.17188,5.5156 3.85938,8.9063 2.68752,3.3906 7.76562,5.2187 5.0781,1.8437 11.7656,1.8437 6.6406,0 10.7813,-1.5624 4.1562,-1.5626 6.1093,-3.9376 1.9532,-2.3593 2.7344,-5.9843 0.4375,-2.2344 0.4375,-8.0938 l 0,-11.7187 q 0,-12.26565 0.5625,-15.51565 Q 49.7031,2.98438 51.375,0 l -9.1875,0 q -1.3594,2.73438 -1.75,6.39062 M 39.7031,26.0312 q -4.7969,-1.9531 -14.3593,-3.3281 -5.4219,-0.7812 -7.6719,-1.7656 -2.2344,-0.9687 -3.4688,-2.8437 -1.2187,-1.875 -1.2187,-4.1719 0,-3.5157 2.6562,-5.8594 2.6719,-2.34375 7.7969,-2.34375 5.0781,0 9.0313,2.21875 3.9531,2.2187 5.8124,6.0781 1.4219,2.9844 1.4219,8.7813 z"
               inkscape:connector-curvature="0"
               style="stroke-linecap:butt;stroke-linejoin:round" />
            <path
               id="ArialMT-78"
               d="M 0.734375,0 19.6719,26.9531 2.15625,51.8594 l 10.98435,0 7.9532,-12.1563 q 2.25,-3.4687 3.6093,-5.8125 2.1563,3.2188 3.9531,5.7032 l 8.75,12.2656 10.5,0 L 29.9844,27.4375 49.2656,0 38.4844,0 27.8281,16.1094 25,20.4531 11.375,0 Z"
               inkscape:connector-curvature="0"
               style="stroke-linecap:butt;stroke-linejoin:round" />
            <path
               id="ArialMT-74"
               d="m 25.7812,7.85938 1.2657,-7.76563 q -3.7031,-0.78125 -6.6407,-0.78125 -4.7812,0 -7.4218,1.515625 Q 10.3594,2.34375 9.28125,4.8125 8.20312,7.28125 8.20312,15.1875 l 0,29.8281 -6.4375,0 0,6.8438 6.4375,0 0,12.8437 8.73438,5.2657 0,-18.1094 8.8437,0 0,-6.8438 -8.8437,0 0,-30.3125 q 0,-3.7656 0.4687,-4.84372 0.4688,-1.0625 1.5157,-1.70313 1.0469,-0.64063 3,-0.64063 1.4687,0 3.8593,0.34376"
               inkscape:connector-curvature="0"
               style="stroke-linecap:butt;stroke-linejoin:round" />
            <path
               id="ArialMT-69"
               d="m 6.64062,61.4688 0,10.1093 8.79688,0 0,-10.1093 z m 0,-61.4688 0,51.8594 8.79688,0 0,-51.8594 z"
               inkscape:connector-curvature="0"
               style="stroke-linecap:butt;stroke-linejoin:round" />
            <path
               id="ArialMT-70"
               d="m 6.59375,-19.875 0,71.7344 8.00005,0 0,-6.7344 q 2.8437,3.9531 6.4062,5.9219 3.5625,1.9843 8.6406,1.9843 6.6406,0 11.7188,-3.4218 5.0781,-3.4219 7.6562,-9.6563 2.5938,-6.2187 2.5938,-13.6406 0,-7.9531 -2.8594,-14.3281 Q 45.9062,5.60938 40.4531,2.21875 35.0156,-1.17188 29,-1.17188 q -4.3906,0 -7.8906,1.85938 Q 17.625,2.54688 15.375,5.375 l 0,-25.25 z m 7.95315,45.5156 q 0,-10.0156 4.0469,-14.7968 4.0624,-4.7813 9.8281,-4.7813 5.8593,0 10.0312,4.9531 4.1719,4.9532 4.1719,15.3594 0,9.9062 -4.0781,14.8281 -4.0781,4.9375 -9.7344,4.9375 -5.625,0 -9.9531,-5.25 -4.3125,-5.25 -4.3125,-15.25"
               inkscape:connector-curvature="0"
               style="stroke-linecap:butt;stroke-linejoin:round" />
            <path
               id="ArialMT-6b"
               d="m 6.64062,0 0,71.5781 8.79688,0 0,-40.8125 20.7969,21.0938 11.375,0 L 27.7812,32.625 49.6094,0 38.7656,0 21.625,26.5156 15.4375,20.5625 15.4375,0 Z"
               inkscape:connector-curvature="0"
               style="stroke-linecap:butt;stroke-linejoin:round" />
            <path
               id="ArialMT-6e"
               d="m 6.59375,0 0,51.8594 7.90625,0 0,-7.375 q 5.7188,8.5468 16.5,8.5468 4.6875,0 8.625,-1.6874 3.9375,-1.6876 5.8906,-4.4219 1.9532,-2.7344 2.7344,-6.4844 0.4844,-2.4531 0.4844,-8.5469 l 0,-31.8906 -8.7969,0 0,31.5469 q 0,5.375 -1.0313,8.0312 -1.0156,2.6563 -3.625,4.2344 -2.6093,1.5937 -6.125,1.5937 -5.625,0 -9.7031,-3.5624 Q 15.375,38.2812 15.375,28.3281 L 15.375,0 Z"
               inkscape:connector-curvature="0"
               style="stroke-linecap:butt;stroke-linejoin:round" />
            <path
               id="ArialMT-6d"
               d="m 6.59375,0 0,51.8594 7.85935,0 0,-7.2813 q 2.4375,3.8125 6.4844,6.125 4.0625,2.3281 9.2344,2.3281 5.7656,0 9.4531,-2.3906 3.6875,-2.3906 5.2031,-6.6875 6.1563,9.0781 16.0157,9.0781 7.7187,0 11.8593,-4.2812 4.1563,-4.2656 4.1563,-13.1562 l 0,-35.5938 -8.75,0 0,32.6719 q 0,5.2656 -0.8594,7.5781 -0.8438,2.3281 -3.0938,3.7344 -2.2343,1.4218 -5.2656,1.4218 -5.4687,0 -9.0937,-3.6406 -3.6094,-3.625 -3.6094,-11.6406 l 0,-30.125 -8.7813,0 0,33.6875 q 0,5.8594 -2.1562,8.7813 -2.1406,2.9374 -7.0312,2.9374 -3.7032,0 -6.8594,-1.9531 Q 18.2188,41.5 16.7969,37.7344 15.375,33.9844 15.375,26.9062 L 15.375,0 Z"
               inkscape:connector-curvature="0"
               style="stroke-linecap:butt;stroke-linejoin:round" />
          </defs>
          <g
             id="g364"
             transform="matrix(0.08,0,0,-0.08,170.70375,63.7725)"
             style="fill:#262626;stroke-linecap:butt;stroke-linejoin:round">
            <path
               d="m 7.90625,0 0,71.5781 51.76565,0 0,-8.4375 -42.2813,0 0,-21.9218 39.5938,0 0,-8.4063 -39.5938,0 0,-24.35938 43.9375,0 0,-8.45312 z"
               id="use366"
               inkscape:connector-curvature="0"
               style="stroke-linecap:butt;stroke-linejoin:round" />
            <use
               id="use368"
               xlink:href="#ArialMT-78"
               x="66.699219"
               style="stroke-linecap:butt;stroke-linejoin:round"
               y="0"
               width="100%"
               height="100%" />
            <use
               id="use370"
               xlink:href="#ArialMT-70"
               x="116.69922"
               style="stroke-linecap:butt;stroke-linejoin:round"
               y="0"
               width="100%"
               height="100%" />
            <path
               style="stroke-linecap:butt;stroke-linejoin:round"
               d="m 214.40825,16.7031 9.0781,-1.125 q -2.1407,-7.9531 -7.9531,-12.35935 -5.8126,-4.39063 -14.8438,-4.39063 -11.375,0 -18.0469,7 -6.67185,7.01568 -6.67185,19.65628 0,13.0937 6.73435,20.3125 6.75,7.2343 17.4844,7.2343 10.4062,0 17,-7.0781 6.5938,-7.0781 6.5938,-19.9219 0,-0.7812 -0.0469,-2.3437 l -38.6719,0 q 0.4844,-8.5469 4.8281,-13.0937 4.3438,-4.5313 10.8438,-4.5313 4.8281,0 8.25,2.53125 3.4219,2.54685 5.4219,8.10935 m -28.8594,14.2031 28.9531,0 q -0.5781,6.5469 -3.3125,9.8126 -4.2031,5.0781 -10.8906,5.0781 -6.0625,0 -10.1875,-4.0469 -4.125,-4.0469 -4.5625,-10.8438"
               id="use372"
               inkscape:connector-curvature="0" />
            <use
               id="use374"
               xlink:href="#ArialMT-72"
               x="227.92969"
               style="stroke-linecap:butt;stroke-linejoin:round"
               y="0"
               width="100%"
               height="100%" />
            <use
               id="use376"
               xlink:href="#ArialMT-69"
               x="261.23047"
               style="stroke-linecap:butt;stroke-linejoin:round"
               y="0"
               width="100%"
               height="100%" />
            <use
               id="use378"
               xlink:href="#ArialMT-6d"
               x="283.44727"
               style="stroke-linecap:butt;stroke-linejoin:round"
               y="0"
               width="100%"
               height="100%" />
            <path
               style="stroke-linecap:butt;stroke-linejoin:round"
               d="m 408.84185,16.7031 9.0781,-1.125 q -2.1407,-7.9531 -7.9531,-12.35935 -5.8126,-4.39063 -14.8438,-4.39063 -11.375,0 -18.0469,7 -6.67185,7.01568 -6.67185,19.65628 0,13.0937 6.73435,20.3125 6.75,7.2343 17.4844,7.2343 10.4062,0 17,-7.0781 6.5938,-7.0781 6.5938,-19.9219 0,-0.7812 -0.0469,-2.3437 l -38.6719,0 q 0.4844,-8.5469 4.8281,-13.0937 4.3438,-4.5313 10.8438,-4.5313 4.8281,0 8.25,2.53125 3.4219,2.54685 5.4219,8.10935 m -28.8594,14.2031 28.9531,0 q -0.5781,6.5469 -3.3125,9.8126 -4.2031,5.0781 -10.8906,5.0781 -6.0625,0 -10.1875,-4.0469 -4.125,-4.0469 -4.5625,-10.8438"
               id="use380"
               inkscape:connector-curvature="0" />
            <use
               id="use382"
               xlink:href="#ArialMT-6e"
               x="422.36328"
               style="stroke-linecap:butt;stroke-linejoin:round"
               y="0"
               width="100%"
               height="100%" />
            <use
               id="use384"
               xlink:href="#ArialMT-74"
               x="477.97852"
               style="stroke-linecap:butt;stroke-linejoin:round"
               y="0"
               width="100%"
               height="100%" />
            <use
               id="use386"
               xlink:href="#ArialMT-20"
               x="505.76172"
               style="stroke-linecap:butt;stroke-linejoin:round"
               y="0"
               width="100%"
               height="100%" />
            <use
               id="use388"
               xlink:href="#ArialMT-5b"
               x="533.54492"
               style="stroke-linecap:butt;stroke-linejoin:round"
               y="0"
               width="100%"
               height="100%" />
            <path
               d="m 565.82812,23 8.92191,0.7812 q 0.64059,-5.375 2.95309,-8.8124 2.3281,-3.4376 7.2031,-5.56255 4.8907,-2.125 11,-2.125 5.40631,0 9.5625,1.60937 4.15631,1.60938 6.1719,4.40628 2.0313,2.8125 2.0313,6.1406 0,3.3594 -1.9532,5.875 -1.9531,2.5156 -6.4375,4.2344 -2.8906,1.125 -12.75,3.4843 -9.8593,2.375 -13.8125,4.4688 -5.1406,2.6875 -7.65622,6.6562 -2.5,3.9844 -2.5,8.9219 0,5.4219 3.06253,10.125 3.07809,4.7188 8.98429,7.1563 5.9219,2.4375 13.14071,2.4375 7.95309,0 14.03119,-2.5625 6.09381,-2.5625 9.3594,-7.5469 3.2656,-4.9687 3.5156,-11.2656 l -9.0781,-0.6875 q -0.7344,6.7812 -4.9688,10.25 -4.2187,3.4687 -12.4687,3.4687 -8.5937,0 -12.5313,-3.1562 -3.92179,-3.1407 -3.92179,-7.5781 0,-3.8594 2.78119,-6.3594 2.7344,-2.4844 14.28131,-5.0938 11.54689,-2.6094 15.84369,-4.5625 6.25,-2.8906 9.21881,-7.3125 2.98439,-4.4062 2.98439,-10.1718 0,-5.7188 -3.2657,-10.7813 -3.2656,-5.04688 -9.40619,-7.85938 -6.125,-2.79687 -13.78131,-2.79687 -9.71869,0 -16.2968,2.82813 Q 573.48432,4.4375 569.75,10.125 566.01562,15.8281 565.82812,23"
               id="use390"
               inkscape:connector-curvature="0"
               style="stroke-linecap:butt;stroke-linejoin:round" />
            <use
               id="use392"
               xlink:href="#ArialMT-6b"
               x="628.02734"
               style="stroke-linecap:butt;stroke-linejoin:round"
               y="0"
               width="100%"
               height="100%" />
            <use
               id="use394"
               xlink:href="#ArialMT-69"
               x="678.02734"
               style="stroke-linecap:butt;stroke-linejoin:round"
               y="0"
               width="100%"
               height="100%" />
            <use
               id="use396"
               xlink:href="#ArialMT-6e"
               x="700.24414"
               style="stroke-linecap:butt;stroke-linejoin:round"
               y="0"
               width="100%"
               height="100%" />
            <use
               id="use398"
               xlink:href="#ArialMT-6e"
               x="755.85938"
               style="stroke-linecap:butt;stroke-linejoin:round"
               y="0"
               width="100%"
               height="100%" />
            <path
               style="stroke-linecap:butt;stroke-linejoin:round"
               d="m 853.56841,16.7031 9.0781,-1.125 q -2.1407,-7.9531 -7.9531,-12.35935 -5.8126,-4.39063 -14.8438,-4.39063 -11.375,0 -18.0469,7 -6.67185,7.01568 -6.67185,19.65628 0,13.0937 6.73435,20.3125 6.75,7.2343 17.4844,7.2343 10.4062,0 17,-7.0781 6.5938,-7.0781 6.5938,-19.9219 0,-0.7812 -0.0469,-2.3437 l -38.6719,0 q 0.4844,-8.5469 4.8281,-13.0937 4.3438,-4.5313 10.8438,-4.5313 4.8281,0 8.25,2.53125 3.4219,2.54685 5.4219,8.10935 m -28.8594,14.2031 28.9531,0 q -0.5781,6.5469 -3.3125,9.8126 -4.2031,5.0781 -10.8906,5.0781 -6.0625,0 -10.1875,-4.0469 -4.125,-4.0469 -4.5625,-10.8438"
               id="use400"
               inkscape:connector-curvature="0" />
            <use
               id="use402"
               xlink:href="#ArialMT-72"
               x="867.08984"
               style="stroke-linecap:butt;stroke-linejoin:round"
               y="0"
               width="100%"
               height="100%" />
            <use
               id="use404"
               xlink:href="#ArialMT-20"
               x="900.39062"
               style="stroke-linecap:butt;stroke-linejoin:round"
               y="0"
               width="100%"
               height="100%" />
            <path
               style="stroke-linecap:butt;stroke-linejoin:round"
               d="m 970.26763,16.7031 9.0781,-1.125 q -2.1407,-7.9531 -7.9531,-12.35935 -5.8126,-4.39063 -14.8438,-4.39063 -11.375,0 -18.0469,7 -6.67185,7.01568 -6.67185,19.65628 0,13.0937 6.73435,20.3125 6.75,7.2343 17.4844,7.2343 10.4062,0 17,-7.0781 6.5938,-7.0781 6.5938,-19.9219 0,-0.7812 -0.0469,-2.3437 l -38.6719,0 q 0.4844,-8.5469 4.8281,-13.0937 4.3438,-4.5313 10.8438,-4.5313 4.8281,0 8.25,2.53125 3.4219,2.54685 5.4219,8.10935 m -28.8594,14.2031 28.9531,0 q -0.5781,6.5469 -3.3125,9.8126 -4.2031,5.0781 -10.8906,5.0781 -6.0625,0 -10.1875,-4.0469 -4.125,-4.0469 -4.5625,-10.8438"
               id="use406"
               inkscape:connector-curvature="0" />
            <use
               id="use408"
               xlink:href="#ArialMT-74"
               x="983.78906"
               style="stroke-linecap:butt;stroke-linejoin:round"
               y="0"
               width="100%"
               height="100%" />
            <use
               id="use410"
               xlink:href="#ArialMT-20"
               x="1011.5723"
               style="stroke-linecap:butt;stroke-linejoin:round"
               y="0"
               width="100%"
               height="100%" />
            <use
               id="use412"
               xlink:href="#ArialMT-61"
               x="1039.3555"
               style="stroke-linecap:butt;stroke-linejoin:round"
               y="0"
               width="100%"
               height="100%" />
            <path
               style="stroke-linecap:butt;stroke-linejoin:round"
               d="m 1101.3613,0 0,71.5781 8.7969,0 0,-71.5781 z"
               id="use414"
               inkscape:connector-curvature="0" />
            <use
               id="use416"
               xlink:href="#ArialMT-2e"
               x="1117.1875"
               style="stroke-linecap:butt;stroke-linejoin:round"
               y="0"
               width="100%"
               height="100%" />
            <use
               id="use418"
               xlink:href="#ArialMT-5d"
               x="1144.9707"
               style="stroke-linecap:butt;stroke-linejoin:round"
               y="0"
               width="100%"
               height="100%" />
          </g>
        </g>
      </g>
    </g>
  </g>
  <defs
     id="defs420">
    <clipPath
       id="p7026cc9036">
      <rect
         id="rect423"
         y="16.8"
         x="48.2921875"
         width="222.9078125"
         height="151.5125" />
    </clipPath>
  </defs>
</svg>
